<svg width="269" height="68" viewBox="0 0 269 68" fill="none" xmlns="http://www.w3.org/2000/svg">
<g filter="url(#filter0_di_42_453)">
<rect x="8" y="7" width="253" height="52" rx="8" fill="url(#paint0_linear_42_453)" shape-rendering="crispEdges"/>
<rect x="8.5" y="7.5" width="252" height="51" rx="7.5" stroke="url(#paint1_linear_42_453)" shape-rendering="crispEdges"/>
<path d="M54.179 30.1847H51.9631C51.8778 29.7112 51.7192 29.2945 51.4872 28.9347C51.2552 28.5748 50.9711 28.2694 50.6349 28.0185C50.2988 27.7675 49.9223 27.5781 49.5057 27.4503C49.0938 27.3224 48.6558 27.2585 48.1918 27.2585C47.3537 27.2585 46.6032 27.4692 45.9403 27.8906C45.2822 28.312 44.7614 28.9299 44.3778 29.7443C43.9991 30.5587 43.8097 31.553 43.8097 32.7273C43.8097 33.911 43.9991 34.91 44.3778 35.7244C44.7614 36.5388 45.2846 37.1544 45.9474 37.571C46.6103 37.9877 47.3561 38.196 48.1847 38.196C48.6439 38.196 49.0795 38.1345 49.4915 38.0114C49.9081 37.8835 50.2846 37.6965 50.6207 37.4503C50.9569 37.2041 51.241 36.9034 51.473 36.5483C51.7098 36.1884 51.8731 35.7765 51.9631 35.3125L54.179 35.3196C54.0606 36.0346 53.831 36.6927 53.4901 37.294C53.1539 37.8906 52.7206 38.4067 52.1903 38.8423C51.6648 39.2732 51.0634 39.607 50.3864 39.8438C49.7093 40.0805 48.9706 40.1989 48.1705 40.1989C46.911 40.1989 45.7888 39.9006 44.804 39.304C43.8191 38.7027 43.0426 37.8433 42.4744 36.7259C41.911 35.6084 41.6293 34.2756 41.6293 32.7273C41.6293 31.1742 41.9134 29.8414 42.4815 28.7287C43.0497 27.6113 43.8262 26.7543 44.8111 26.1577C45.7959 25.5563 46.9157 25.2557 48.1705 25.2557C48.9422 25.2557 49.6619 25.367 50.3295 25.5895C51.0019 25.8073 51.6056 26.1293 52.1406 26.5554C52.6757 26.9768 53.1184 27.4929 53.4688 28.1037C53.8191 28.7098 54.0559 29.4034 54.179 30.1847ZM56.6346 40V29.0909H58.6871V30.8239H58.8008C58.9996 30.2367 59.35 29.7751 59.8519 29.4389C60.3585 29.098 60.9315 28.9276 61.5707 28.9276C61.7032 28.9276 61.8595 28.9323 62.0394 28.9418C62.2241 28.9512 62.3685 28.9631 62.4727 28.9773V31.0085C62.3874 30.9848 62.2359 30.9588 62.0181 30.9304C61.8003 30.8973 61.5825 30.8807 61.3647 30.8807C60.8628 30.8807 60.4154 30.9872 60.0224 31.2003C59.6341 31.4086 59.3263 31.6998 59.0991 32.0739C58.8718 32.4432 58.7582 32.8646 58.7582 33.3381V40H56.6346ZM68.6214 40.2202C67.5466 40.2202 66.621 39.9905 65.8445 39.5312C65.0727 39.0672 64.4761 38.4162 64.0547 37.5781C63.638 36.7353 63.4297 35.7481 63.4297 34.6165C63.4297 33.4991 63.638 32.5142 64.0547 31.6619C64.4761 30.8097 65.0632 30.1444 65.8161 29.6662C66.5736 29.188 67.459 28.9489 68.4723 28.9489C69.0878 28.9489 69.6844 29.0507 70.2621 29.2543C70.8397 29.4579 71.3582 29.7775 71.8175 30.2131C72.2768 30.6487 72.639 31.2145 72.9041 31.9105C73.1693 32.6018 73.3018 33.4422 73.3018 34.4318V35.1847H64.63V33.5938H71.2209C71.2209 33.035 71.1072 32.5402 70.88 32.1094C70.6527 31.6738 70.3331 31.3305 69.9212 31.0795C69.514 30.8286 69.0357 30.7031 68.4865 30.7031C67.8899 30.7031 67.3691 30.8499 66.924 31.1435C66.4837 31.4323 66.1428 31.8111 65.9013 32.2798C65.6645 32.7438 65.5462 33.2481 65.5462 33.7926V35.0355C65.5462 35.7647 65.674 36.3849 65.9297 36.8963C66.1901 37.4077 66.5523 37.7983 67.0163 38.0682C67.4804 38.3333 68.0225 38.4659 68.6428 38.4659C69.0452 38.4659 69.4122 38.4091 69.7436 38.2955C70.075 38.1771 70.3615 38.0019 70.603 37.7699C70.8445 37.5379 71.0291 37.2514 71.157 36.9105L73.1669 37.2727C73.0059 37.8646 72.7171 38.383 72.3004 38.8281C71.8885 39.2685 71.37 39.6117 70.745 39.858C70.1248 40.0994 69.4169 40.2202 68.6214 40.2202ZM78.8327 40.2415C78.1415 40.2415 77.5165 40.1136 76.9577 39.858C76.399 39.5975 75.9563 39.2211 75.6296 38.7287C75.3076 38.2363 75.1467 37.6326 75.1467 36.9176C75.1467 36.3021 75.265 35.7955 75.5018 35.3977C75.7385 35 76.0581 34.6851 76.4606 34.4531C76.863 34.2211 77.3129 34.0459 77.81 33.9276C78.3072 33.8092 78.8138 33.7192 79.3299 33.6577C79.9833 33.5819 80.5136 33.5204 80.9208 33.473C81.328 33.4209 81.6239 33.3381 81.8086 33.2244C81.9933 33.1108 82.0856 32.9261 82.0856 32.6705V32.6207C82.0856 32.0005 81.9104 31.5199 81.56 31.179C81.2144 30.8381 80.6983 30.6676 80.0117 30.6676C79.2968 30.6676 78.7333 30.8262 78.3214 31.1435C77.9142 31.456 77.6325 31.804 77.4762 32.1875L75.4805 31.733C75.7172 31.0701 76.0629 30.535 76.5174 30.1278C76.9767 29.7159 77.5046 29.4176 78.1012 29.233C78.6978 29.0436 79.3252 28.9489 79.9833 28.9489C80.4189 28.9489 80.8806 29.0009 81.3683 29.1051C81.8607 29.2045 82.32 29.3892 82.7461 29.6591C83.177 29.929 83.5297 30.3149 83.8043 30.8168C84.079 31.3139 84.2163 31.9602 84.2163 32.7557V40H82.1424V38.5085H82.0572C81.9199 38.7831 81.7139 39.053 81.4393 39.3182C81.1647 39.5833 80.8119 39.8035 80.381 39.9787C79.9502 40.1539 79.4341 40.2415 78.8327 40.2415ZM79.2944 38.5369C79.8815 38.5369 80.3834 38.4209 80.8001 38.1889C81.2215 37.9569 81.5411 37.6539 81.7589 37.2798C81.9814 36.901 82.0927 36.4962 82.0927 36.0653V34.6591C82.0169 34.7348 81.8701 34.8059 81.6523 34.8722C81.4393 34.9337 81.1954 34.9882 80.9208 35.0355C80.6462 35.0781 80.3787 35.1184 80.1183 35.1562C79.8578 35.1894 79.64 35.2178 79.4648 35.2415C79.0529 35.2936 78.6765 35.3812 78.3356 35.5043C77.9994 35.6274 77.7295 35.8049 77.5259 36.0369C77.3271 36.2642 77.2276 36.5672 77.2276 36.946C77.2276 37.4716 77.4218 37.8693 77.81 38.1392C78.1983 38.4044 78.6931 38.5369 79.2944 38.5369ZM92.1371 29.0909V30.7955H86.1783V29.0909H92.1371ZM87.7763 26.4773H89.8999V36.7969C89.8999 37.2088 89.9614 37.5189 90.0845 37.7273C90.2076 37.9309 90.3662 38.0705 90.5604 38.1463C90.7592 38.2173 90.9747 38.2528 91.2067 38.2528C91.3771 38.2528 91.5263 38.241 91.6541 38.2173C91.782 38.1937 91.8814 38.1747 91.9524 38.1605L92.3359 39.9148C92.2128 39.9621 92.0376 40.0095 91.8104 40.0568C91.5831 40.1089 91.299 40.1373 90.9581 40.142C90.3994 40.1515 89.8786 40.0521 89.3956 39.8438C88.9126 39.6354 88.522 39.3134 88.2237 38.8778C87.9254 38.4422 87.7763 37.8954 87.7763 37.2372V26.4773ZM99.0707 40.2202C97.9959 40.2202 97.0702 39.9905 96.2937 39.5312C95.5219 39.0672 94.9253 38.4162 94.5039 37.5781C94.0872 36.7353 93.8789 35.7481 93.8789 34.6165C93.8789 33.4991 94.0872 32.5142 94.5039 31.6619C94.9253 30.8097 95.5124 30.1444 96.2653 29.6662C97.0228 29.188 97.9083 28.9489 98.9215 28.9489C99.5371 28.9489 100.134 29.0507 100.711 29.2543C101.289 29.4579 101.807 29.7775 102.267 30.2131C102.726 30.6487 103.088 31.2145 103.353 31.9105C103.618 32.6018 103.751 33.4422 103.751 34.4318V35.1847H95.0792V33.5938H101.67C101.67 33.035 101.556 32.5402 101.329 32.1094C101.102 31.6738 100.782 31.3305 100.37 31.0795C99.9632 30.8286 99.485 30.7031 98.9357 30.7031C98.3391 30.7031 97.8183 30.8499 97.3732 31.1435C96.9329 31.4323 96.592 31.8111 96.3505 32.2798C96.1138 32.7438 95.9954 33.2481 95.9954 33.7926V35.0355C95.9954 35.7647 96.1232 36.3849 96.3789 36.8963C96.6393 37.4077 97.0015 37.7983 97.4656 38.0682C97.9296 38.3333 98.4717 38.4659 99.092 38.4659C99.4944 38.4659 99.8614 38.4091 100.193 38.2955C100.524 38.1771 100.811 38.0019 101.052 37.7699C101.294 37.5379 101.478 37.2514 101.606 36.9105L103.616 37.2727C103.455 37.8646 103.166 38.383 102.75 38.8281C102.338 39.2685 101.819 39.6117 101.194 39.858C100.574 40.0994 99.8661 40.2202 99.0707 40.2202ZM113.524 33.5227V40H111.4V29.0909H113.439V30.8665H113.574C113.824 30.2888 114.217 29.8248 114.752 29.4744C115.292 29.1241 115.972 28.9489 116.791 28.9489C117.534 28.9489 118.185 29.1051 118.744 29.4176C119.303 29.7254 119.736 30.1847 120.044 30.7955C120.351 31.4062 120.505 32.1615 120.505 33.0611V40H118.382V33.3168C118.382 32.526 118.176 31.9081 117.764 31.4631C117.352 31.0133 116.786 30.7884 116.066 30.7884C115.574 30.7884 115.136 30.8949 114.752 31.108C114.374 31.321 114.073 31.6335 113.85 32.0455C113.633 32.4527 113.524 32.9451 113.524 33.5227ZM128.055 40.2202C126.98 40.2202 126.055 39.9905 125.278 39.5312C124.506 39.0672 123.91 38.4162 123.488 37.5781C123.072 36.7353 122.863 35.7481 122.863 34.6165C122.863 33.4991 123.072 32.5142 123.488 31.6619C123.91 30.8097 124.497 30.1444 125.25 29.6662C126.007 29.188 126.893 28.9489 127.906 28.9489C128.521 28.9489 129.118 29.0507 129.696 29.2543C130.273 29.4579 130.792 29.7775 131.251 30.2131C131.71 30.6487 132.073 31.2145 132.338 31.9105C132.603 32.6018 132.735 33.4422 132.735 34.4318V35.1847H124.064V33.5938H130.654C130.654 33.035 130.541 32.5402 130.314 32.1094C130.086 31.6738 129.767 31.3305 129.355 31.0795C128.948 30.8286 128.469 30.7031 127.92 30.7031C127.324 30.7031 126.803 30.8499 126.358 31.1435C125.917 31.4323 125.576 31.8111 125.335 32.2798C125.098 32.7438 124.98 33.2481 124.98 33.7926V35.0355C124.98 35.7647 125.108 36.3849 125.363 36.8963C125.624 37.4077 125.986 37.7983 126.45 38.0682C126.914 38.3333 127.456 38.4659 128.076 38.4659C128.479 38.4659 128.846 38.4091 129.177 38.2955C129.509 38.1771 129.795 38.0019 130.037 37.7699C130.278 37.5379 130.463 37.2514 130.591 36.9105L132.6 37.2727C132.44 37.8646 132.151 38.383 131.734 38.8281C131.322 39.2685 130.804 39.6117 130.179 39.858C129.558 40.0994 128.85 40.2202 128.055 40.2202ZM137.437 40L134.227 29.0909H136.422L138.559 37.1023H138.666L140.811 29.0909H143.005L145.136 37.0668H145.243L147.366 29.0909H149.561L146.358 40H144.191L141.975 32.1236H141.812L139.596 40H137.437ZM161.961 29.0909V30.7955H156.002V29.0909H161.961ZM157.6 26.4773H159.724V36.7969C159.724 37.2088 159.786 37.5189 159.909 37.7273C160.032 37.9309 160.19 38.0705 160.385 38.1463C160.583 38.2173 160.799 38.2528 161.031 38.2528C161.201 38.2528 161.35 38.241 161.478 38.2173C161.606 38.1937 161.706 38.1747 161.777 38.1605L162.16 39.9148C162.037 39.9621 161.862 40.0095 161.635 40.0568C161.407 40.1089 161.123 40.1373 160.782 40.142C160.224 40.1515 159.703 40.0521 159.22 39.8438C158.737 39.6354 158.346 39.3134 158.048 38.8778C157.75 38.4422 157.6 37.8954 157.6 37.2372V26.4773ZM167.485 40.2415C166.794 40.2415 166.169 40.1136 165.61 39.858C165.051 39.5975 164.609 39.2211 164.282 38.7287C163.96 38.2363 163.799 37.6326 163.799 36.9176C163.799 36.3021 163.917 35.7955 164.154 35.3977C164.391 35 164.71 34.6851 165.113 34.4531C165.515 34.2211 165.965 34.0459 166.462 33.9276C166.96 33.8092 167.466 33.7192 167.982 33.6577C168.636 33.5819 169.166 33.5204 169.573 33.473C169.98 33.4209 170.276 33.3381 170.461 33.2244C170.646 33.1108 170.738 32.9261 170.738 32.6705V32.6207C170.738 32.0005 170.563 31.5199 170.212 31.179C169.867 30.8381 169.351 30.6676 168.664 30.6676C167.949 30.6676 167.386 30.8262 166.974 31.1435C166.567 31.456 166.285 31.804 166.129 32.1875L164.133 31.733C164.37 31.0701 164.715 30.535 165.17 30.1278C165.629 29.7159 166.157 29.4176 166.754 29.233C167.35 29.0436 167.978 28.9489 168.636 28.9489C169.071 28.9489 169.533 29.0009 170.021 29.1051C170.513 29.2045 170.972 29.3892 171.398 29.6591C171.829 29.929 172.182 30.3149 172.457 30.8168C172.731 31.3139 172.869 31.9602 172.869 32.7557V40H170.795V38.5085H170.71C170.572 38.7831 170.366 39.053 170.092 39.3182C169.817 39.5833 169.464 39.8035 169.033 39.9787C168.603 40.1539 168.086 40.2415 167.485 40.2415ZM167.947 38.5369C168.534 38.5369 169.036 38.4209 169.452 38.1889C169.874 37.9569 170.193 37.6539 170.411 37.2798C170.634 36.901 170.745 36.4962 170.745 36.0653V34.6591C170.669 34.7348 170.522 34.8059 170.305 34.8722C170.092 34.9337 169.848 34.9882 169.573 35.0355C169.299 35.0781 169.031 35.1184 168.771 35.1562C168.51 35.1894 168.292 35.2178 168.117 35.2415C167.705 35.2936 167.329 35.3812 166.988 35.5043C166.652 35.6274 166.382 35.8049 166.178 36.0369C165.979 36.2642 165.88 36.5672 165.88 36.946C165.88 37.4716 166.074 37.8693 166.462 38.1392C166.851 38.4044 167.345 38.5369 167.947 38.5369ZM183.872 31.7543L181.947 32.0952C181.867 31.849 181.739 31.6146 181.564 31.392C181.393 31.1695 181.161 30.9872 180.868 30.8452C180.574 30.7031 180.207 30.6321 179.767 30.6321C179.165 30.6321 178.663 30.767 178.261 31.0369C177.859 31.3021 177.657 31.6454 177.657 32.0668C177.657 32.4313 177.792 32.7249 178.062 32.9474C178.332 33.17 178.768 33.3523 179.369 33.4943L181.102 33.892C182.106 34.1241 182.854 34.4815 183.346 34.9645C183.839 35.4474 184.085 36.0748 184.085 36.8466C184.085 37.5 183.895 38.0824 183.517 38.5938C183.143 39.1004 182.619 39.4981 181.947 39.7869C181.279 40.0758 180.505 40.2202 179.625 40.2202C178.403 40.2202 177.406 39.9598 176.635 39.4389C175.863 38.9134 175.389 38.1676 175.214 37.2017L177.267 36.8892C177.395 37.4242 177.657 37.8291 178.055 38.1037C178.453 38.3736 178.971 38.5085 179.61 38.5085C180.306 38.5085 180.863 38.3641 181.279 38.0753C181.696 37.7817 181.904 37.4242 181.904 37.0028C181.904 36.6619 181.777 36.3755 181.521 36.1435C181.27 35.9115 180.884 35.7363 180.363 35.6179L178.517 35.2131C177.499 34.9811 176.746 34.6117 176.258 34.1051C175.775 33.5985 175.534 32.9569 175.534 32.1804C175.534 31.5365 175.714 30.973 176.074 30.4901C176.433 30.0071 176.931 29.6307 177.565 29.3608C178.199 29.0862 178.926 28.9489 179.745 28.9489C180.924 28.9489 181.852 29.2045 182.529 29.7159C183.207 30.2225 183.654 30.902 183.872 31.7543ZM188.373 36.2997L188.359 33.7074H188.728L193.075 29.0909H195.617L190.66 34.3466H190.326L188.373 36.2997ZM186.42 40V25.4545H188.543V40H186.42ZM193.309 40L189.403 34.8153L190.866 33.331L195.915 40H193.309Z" fill="white"/>
<path fill-rule="evenodd" clip-rule="evenodd" d="M216.5 22.25C210.563 22.25 205.75 27.0629 205.75 33C205.75 38.9371 210.563 43.75 216.5 43.75C222.437 43.75 227.25 38.9371 227.25 33C227.25 27.0629 222.437 22.25 216.5 22.25ZM217.25 29C217.25 28.5858 216.914 28.25 216.5 28.25C216.086 28.25 215.75 28.5858 215.75 29V32.25H212.5C212.086 32.25 211.75 32.5858 211.75 33C211.75 33.4142 212.086 33.75 212.5 33.75H215.75V37C215.75 37.4142 216.086 37.75 216.5 37.75C216.914 37.75 217.25 37.4142 217.25 37V33.75H220.5C220.914 33.75 221.25 33.4142 221.25 33C221.25 32.5858 220.914 32.25 220.5 32.25H217.25V29Z" fill="white"/>
</g>
<defs>
<filter id="filter0_di_42_453" x="0" y="0" width="269" height="71" filterUnits="userSpaceOnUse" color-interpolation-filters="sRGB">
<feFlood flood-opacity="0" result="BackgroundImageFix"/>
<feColorMatrix in="SourceAlpha" type="matrix" values="0 0 0 0 0 0 0 0 0 0 0 0 0 0 0 0 0 0 127 0" result="hardAlpha"/>
<feOffset dy="1"/>
<feGaussianBlur stdDeviation="4"/>
<feComposite in2="hardAlpha" operator="out"/>
<feColorMatrix type="matrix" values="0 0 0 0 0 0 0 0 0 0 0 0 0 0 0 0 0 0 0.25 0"/>
<feBlend mode="normal" in2="BackgroundImageFix" result="effect1_dropShadow_42_453"/>
<feBlend mode="normal" in="SourceGraphic" in2="effect1_dropShadow_42_453" result="shape"/>
<feColorMatrix in="SourceAlpha" type="matrix" values="0 0 0 0 0 0 0 0 0 0 0 0 0 0 0 0 0 0 127 0" result="hardAlpha"/>
<feOffset dy="12"/>
<feGaussianBlur stdDeviation="8"/>
<feComposite in2="hardAlpha" operator="arithmetic" k2="-1" k3="1"/>
<feColorMatrix type="matrix" values="0 0 0 0 0.728333 0 0 0 0 0.728333 0 0 0 0 0.728333 0 0 0 0.2 0"/>
<feBlend mode="normal" in2="shape" result="effect2_innerShadow_42_453"/>
</filter>
<linearGradient id="paint0_linear_42_453" x1="134.5" y1="7" x2="134.5" y2="59" gradientUnits="userSpaceOnUse">
<stop stop-color="#4C38C2"/>
<stop offset="1" stop-color="#2F2188"/>
</linearGradient>
<linearGradient id="paint1_linear_42_453" x1="134.5" y1="59" x2="134.5" y2="3" gradientUnits="userSpaceOnUse">
<stop stop-color="#4B36CC"/>
<stop offset="1" stop-color="#9C93D4"/>
</linearGradient>
</defs>
</svg>
