<svg width="152" height="56" viewBox="0 0 152 56" fill="none" xmlns="http://www.w3.org/2000/svg">
<g filter="url(#filter0_di_42_271)">
<rect x="8" y="7" width="136" height="40" rx="8" fill="url(#paint0_linear_42_271)" shape-rendering="crispEdges"/>
<rect x="8.5" y="7.5" width="135" height="39" rx="7.5" stroke="url(#paint1_linear_42_271)" shape-rendering="crispEdges"/>
<path d="M26.9432 24.6477H25.1705C25.1023 24.2689 24.9754 23.9356 24.7898 23.6477C24.6042 23.3598 24.3769 23.1155 24.108 22.9148C23.839 22.714 23.5379 22.5625 23.2045 22.4602C22.875 22.358 22.5246 22.3068 22.1534 22.3068C21.483 22.3068 20.8826 22.4754 20.3523 22.8125C19.8258 23.1496 19.4091 23.6439 19.1023 24.2955C18.7992 24.947 18.6477 25.7424 18.6477 26.6818C18.6477 27.6288 18.7992 28.428 19.1023 29.0795C19.4091 29.7311 19.8277 30.2235 20.358 30.5568C20.8883 30.8902 21.4848 31.0568 22.1477 31.0568C22.5152 31.0568 22.8636 31.0076 23.1932 30.9091C23.5265 30.8068 23.8277 30.6572 24.0966 30.4602C24.3655 30.2633 24.5928 30.0227 24.7784 29.7386C24.9678 29.4508 25.0985 29.1212 25.1705 28.75L26.9432 28.7557C26.8485 29.3277 26.6648 29.8542 26.392 30.3352C26.1231 30.8125 25.7765 31.2254 25.3523 31.5739C24.9318 31.9186 24.4508 32.1856 23.9091 32.375C23.3674 32.5644 22.7765 32.6591 22.1364 32.6591C21.1288 32.6591 20.2311 32.4205 19.4432 31.9432C18.6553 31.4621 18.0341 30.7746 17.5795 29.8807C17.1288 28.9867 16.9034 27.9205 16.9034 26.6818C16.9034 25.4394 17.1307 24.3731 17.5852 23.483C18.0398 22.589 18.661 21.9034 19.4489 21.4261C20.2367 20.9451 21.1326 20.7045 22.1364 20.7045C22.7538 20.7045 23.3295 20.7936 23.8636 20.9716C24.4015 21.1458 24.8845 21.4034 25.3125 21.7443C25.7405 22.0814 26.0947 22.4943 26.375 22.983C26.6553 23.4678 26.8447 24.0227 26.9432 24.6477ZM28.9077 32.5V23.7727H30.5497V25.1591H30.6406C30.7997 24.6894 31.08 24.3201 31.4815 24.0511C31.8868 23.7784 32.3452 23.642 32.8565 23.642C32.9626 23.642 33.0876 23.6458 33.2315 23.6534C33.3793 23.661 33.4948 23.6705 33.5781 23.6818V25.3068C33.5099 25.2879 33.3887 25.267 33.2145 25.2443C33.0402 25.2178 32.866 25.2045 32.6918 25.2045C32.2902 25.2045 31.9323 25.2898 31.6179 25.4602C31.3073 25.6269 31.0611 25.8598 30.8793 26.1591C30.6974 26.4545 30.6065 26.7917 30.6065 27.1705V32.5H28.9077ZM38.4972 32.6761C37.6373 32.6761 36.8968 32.4924 36.2756 32.125C35.6581 31.7538 35.1809 31.233 34.8438 30.5625C34.5104 29.8883 34.3438 29.0985 34.3438 28.1932C34.3438 27.2992 34.5104 26.5114 34.8438 25.8295C35.1809 25.1477 35.6506 24.6155 36.2528 24.233C36.8589 23.8504 37.5672 23.6591 38.3778 23.6591C38.8703 23.6591 39.3475 23.7405 39.8097 23.9034C40.2718 24.0663 40.6866 24.322 41.054 24.6705C41.4214 25.0189 41.7112 25.4716 41.9233 26.0284C42.1354 26.5814 42.2415 27.2538 42.2415 28.0455V28.6477H35.304V27.375H40.5767C40.5767 26.928 40.4858 26.5322 40.304 26.1875C40.1222 25.839 39.8665 25.5644 39.5369 25.3636C39.2112 25.1629 38.8286 25.0625 38.3892 25.0625C37.9119 25.0625 37.4953 25.1799 37.1392 25.4148C36.7869 25.6458 36.5142 25.9489 36.321 26.3239C36.1316 26.6951 36.0369 27.0985 36.0369 27.5341V28.5284C36.0369 29.1117 36.1392 29.608 36.3438 30.017C36.5521 30.4261 36.8419 30.7386 37.2131 30.9545C37.5843 31.1667 38.018 31.2727 38.5142 31.2727C38.8362 31.2727 39.1297 31.2273 39.3949 31.1364C39.66 31.0417 39.8892 30.9015 40.0824 30.7159C40.2756 30.5303 40.4233 30.3011 40.5256 30.0284L42.1335 30.3182C42.0047 30.7917 41.7737 31.2064 41.4403 31.5625C41.1108 31.9148 40.696 32.1894 40.196 32.3864C39.6998 32.5795 39.1335 32.6761 38.4972 32.6761ZM46.6662 32.6932C46.1132 32.6932 45.6132 32.5909 45.1662 32.3864C44.7192 32.178 44.3651 31.8769 44.1037 31.483C43.8461 31.089 43.7173 30.6061 43.7173 30.0341C43.7173 29.5417 43.812 29.1364 44.0014 28.8182C44.1908 28.5 44.4465 28.2481 44.7685 28.0625C45.0904 27.8769 45.4503 27.7367 45.848 27.642C46.2457 27.5473 46.651 27.4754 47.0639 27.4261C47.5866 27.3655 48.0109 27.3163 48.3366 27.2784C48.6624 27.2367 48.8991 27.1705 49.0469 27.0795C49.1946 26.9886 49.2685 26.8409 49.2685 26.6364V26.5966C49.2685 26.1004 49.1283 25.7159 48.848 25.4432C48.5715 25.1705 48.1586 25.0341 47.6094 25.0341C47.0374 25.0341 46.5866 25.161 46.2571 25.4148C45.9313 25.6648 45.706 25.9432 45.581 26.25L43.9844 25.8864C44.1738 25.3561 44.4503 24.928 44.8139 24.6023C45.1813 24.2727 45.6037 24.0341 46.081 23.8864C46.5582 23.7348 47.0601 23.6591 47.5866 23.6591C47.9351 23.6591 48.3045 23.7008 48.6946 23.7841C49.0885 23.8636 49.456 24.0114 49.7969 24.2273C50.1416 24.4432 50.4238 24.7519 50.6435 25.1534C50.8632 25.5511 50.973 26.0682 50.973 26.7045V32.5H49.3139V31.3068H49.2457C49.1359 31.5265 48.9711 31.7424 48.7514 31.9545C48.5317 32.1667 48.2495 32.3428 47.9048 32.483C47.5601 32.6231 47.1473 32.6932 46.6662 32.6932ZM47.0355 31.3295C47.5052 31.3295 47.9067 31.2367 48.2401 31.0511C48.5772 30.8655 48.8329 30.6231 49.0071 30.3239C49.1851 30.0208 49.2741 29.697 49.2741 29.3523V28.2273C49.2135 28.2879 49.0961 28.3447 48.9219 28.3977C48.7514 28.447 48.5563 28.4905 48.3366 28.5284C48.117 28.5625 47.9029 28.5947 47.6946 28.625C47.4863 28.6515 47.312 28.6742 47.1719 28.6932C46.8423 28.7348 46.5412 28.8049 46.2685 28.9034C45.9995 29.0019 45.7836 29.1439 45.6207 29.3295C45.4616 29.5114 45.3821 29.7538 45.3821 30.0568C45.3821 30.4773 45.5374 30.7955 45.848 31.0114C46.1586 31.2235 46.5545 31.3295 47.0355 31.3295ZM57.3097 23.7727V25.1364H52.5426V23.7727H57.3097ZM53.821 21.6818H55.5199V29.9375C55.5199 30.267 55.5691 30.5152 55.6676 30.6818C55.7661 30.8447 55.893 30.9564 56.0483 31.017C56.2074 31.0739 56.3797 31.1023 56.5653 31.1023C56.7017 31.1023 56.821 31.0928 56.9233 31.0739C57.0256 31.0549 57.1051 31.0398 57.1619 31.0284L57.4688 32.4318C57.3703 32.4697 57.2301 32.5076 57.0483 32.5455C56.8665 32.5871 56.6392 32.6098 56.3665 32.6136C55.9195 32.6212 55.5028 32.5417 55.1165 32.375C54.7301 32.2083 54.4176 31.9508 54.179 31.6023C53.9403 31.2538 53.821 30.8163 53.821 30.2898V21.6818ZM62.8565 32.6761C61.9967 32.6761 61.2562 32.4924 60.6349 32.125C60.0175 31.7538 59.5402 31.233 59.2031 30.5625C58.8698 29.8883 58.7031 29.0985 58.7031 28.1932C58.7031 27.2992 58.8698 26.5114 59.2031 25.8295C59.5402 25.1477 60.0099 24.6155 60.6122 24.233C61.2183 23.8504 61.9266 23.6591 62.7372 23.6591C63.2296 23.6591 63.7069 23.7405 64.169 23.9034C64.6312 24.0663 65.0459 24.322 65.4134 24.6705C65.7808 25.0189 66.0705 25.4716 66.2827 26.0284C66.4948 26.5814 66.6009 27.2538 66.6009 28.0455V28.6477H59.6634V27.375H64.9361C64.9361 26.928 64.8452 26.5322 64.6634 26.1875C64.4815 25.839 64.2259 25.5644 63.8963 25.3636C63.5705 25.1629 63.188 25.0625 62.7486 25.0625C62.2713 25.0625 61.8546 25.1799 61.4986 25.4148C61.1463 25.6458 60.8736 25.9489 60.6804 26.3239C60.491 26.6951 60.3963 27.0985 60.3963 27.5341V28.5284C60.3963 29.1117 60.4986 29.608 60.7031 30.017C60.9115 30.4261 61.2012 30.7386 61.5724 30.9545C61.9437 31.1667 62.3774 31.2727 62.8736 31.2727C63.1955 31.2727 63.4891 31.2273 63.7543 31.1364C64.0194 31.0417 64.2486 30.9015 64.4418 30.7159C64.6349 30.5303 64.7827 30.3011 64.8849 30.0284L66.4929 30.3182C66.3641 30.7917 66.133 31.2064 65.7997 31.5625C65.4702 31.9148 65.0554 32.1894 64.5554 32.3864C64.0592 32.5795 63.4929 32.6761 62.8565 32.6761ZM74.419 27.3182V32.5H72.7202V23.7727H74.3509V25.1932H74.4588C74.6596 24.7311 74.974 24.3598 75.402 24.0795C75.8338 23.7992 76.3774 23.6591 77.0327 23.6591C77.6274 23.6591 78.1482 23.7841 78.5952 24.0341C79.0421 24.2803 79.3887 24.6477 79.6349 25.1364C79.8812 25.625 80.0043 26.2292 80.0043 26.9489V32.5H78.3054V27.1534C78.3054 26.5208 78.1406 26.0265 77.8111 25.6705C77.4815 25.3106 77.0289 25.1307 76.4531 25.1307C76.0592 25.1307 75.7088 25.2159 75.402 25.3864C75.099 25.5568 74.8584 25.8068 74.6804 26.1364C74.5062 26.4621 74.419 26.8561 74.419 27.3182ZM86.044 32.6761C85.1842 32.6761 84.4437 32.4924 83.8224 32.125C83.205 31.7538 82.7277 31.233 82.3906 30.5625C82.0573 29.8883 81.8906 29.0985 81.8906 28.1932C81.8906 27.2992 82.0573 26.5114 82.3906 25.8295C82.7277 25.1477 83.1974 24.6155 83.7997 24.233C84.4058 23.8504 85.1141 23.6591 85.9247 23.6591C86.4171 23.6591 86.8944 23.7405 87.3565 23.9034C87.8187 24.0663 88.2334 24.322 88.6009 24.6705C88.9683 25.0189 89.258 25.4716 89.4702 26.0284C89.6823 26.5814 89.7884 27.2538 89.7884 28.0455V28.6477H82.8509V27.375H88.1236C88.1236 26.928 88.0327 26.5322 87.8509 26.1875C87.669 25.839 87.4134 25.5644 87.0838 25.3636C86.758 25.1629 86.3755 25.0625 85.9361 25.0625C85.4588 25.0625 85.0421 25.1799 84.6861 25.4148C84.3338 25.6458 84.0611 25.9489 83.8679 26.3239C83.6785 26.6951 83.5838 27.0985 83.5838 27.5341V28.5284C83.5838 29.1117 83.6861 29.608 83.8906 30.017C84.099 30.4261 84.3887 30.7386 84.7599 30.9545C85.1312 31.1667 85.5649 31.2727 86.0611 31.2727C86.383 31.2727 86.6766 31.2273 86.9418 31.1364C87.2069 31.0417 87.4361 30.9015 87.6293 30.7159C87.8224 30.5303 87.9702 30.3011 88.0724 30.0284L89.6804 30.3182C89.5516 30.7917 89.3205 31.2064 88.9872 31.5625C88.6577 31.9148 88.2429 32.1894 87.7429 32.3864C87.2467 32.5795 86.6804 32.6761 86.044 32.6761ZM93.5497 32.5L90.9815 23.7727H92.7372L94.4474 30.1818H94.5327L96.2486 23.7727H98.0043L99.7088 30.1534H99.794L101.493 23.7727H103.249L100.686 32.5H98.9531L97.1804 26.1989H97.0497L95.277 32.5H93.5497Z" fill="white"/>
<path fill-rule="evenodd" clip-rule="evenodd" d="M124 16.25C118.063 16.25 113.25 21.0629 113.25 27C113.25 32.9371 118.063 37.75 124 37.75C129.937 37.75 134.75 32.9371 134.75 27C134.75 21.0629 129.937 16.25 124 16.25ZM124.75 23C124.75 22.5858 124.414 22.25 124 22.25C123.586 22.25 123.25 22.5858 123.25 23V26.25H120C119.586 26.25 119.25 26.5858 119.25 27C119.25 27.4142 119.586 27.75 120 27.75H123.25V31C123.25 31.4142 123.586 31.75 124 31.75C124.414 31.75 124.75 31.4142 124.75 31V27.75H128C128.414 27.75 128.75 27.4142 128.75 27C128.75 26.5858 128.414 26.25 128 26.25H124.75V23Z" fill="white"/>
</g>
<defs>
<filter id="filter0_di_42_271" x="0" y="0" width="152" height="59" filterUnits="userSpaceOnUse" color-interpolation-filters="sRGB">
<feFlood flood-opacity="0" result="BackgroundImageFix"/>
<feColorMatrix in="SourceAlpha" type="matrix" values="0 0 0 0 0 0 0 0 0 0 0 0 0 0 0 0 0 0 127 0" result="hardAlpha"/>
<feOffset dy="1"/>
<feGaussianBlur stdDeviation="4"/>
<feComposite in2="hardAlpha" operator="out"/>
<feColorMatrix type="matrix" values="0 0 0 0 0 0 0 0 0 0 0 0 0 0 0 0 0 0 0.25 0"/>
<feBlend mode="normal" in2="BackgroundImageFix" result="effect1_dropShadow_42_271"/>
<feBlend mode="normal" in="SourceGraphic" in2="effect1_dropShadow_42_271" result="shape"/>
<feColorMatrix in="SourceAlpha" type="matrix" values="0 0 0 0 0 0 0 0 0 0 0 0 0 0 0 0 0 0 127 0" result="hardAlpha"/>
<feOffset dy="12"/>
<feGaussianBlur stdDeviation="8"/>
<feComposite in2="hardAlpha" operator="arithmetic" k2="-1" k3="1"/>
<feColorMatrix type="matrix" values="0 0 0 0 0.728333 0 0 0 0 0.728333 0 0 0 0 0.728333 0 0 0 0.2 0"/>
<feBlend mode="normal" in2="shape" result="effect2_innerShadow_42_271"/>
</filter>
<linearGradient id="paint0_linear_42_271" x1="76" y1="7" x2="76" y2="47" gradientUnits="userSpaceOnUse">
<stop stop-color="#4C38C2"/>
<stop offset="1" stop-color="#2F2188"/>
</linearGradient>
<linearGradient id="paint1_linear_42_271" x1="76" y1="47" x2="76" y2="3.92308" gradientUnits="userSpaceOnUse">
<stop stop-color="#4B36CC"/>
<stop offset="1" stop-color="#9C93D4"/>
</linearGradient>
</defs>
</svg>
