<svg width="541" height="40" viewBox="0 0 541 40" fill="none" xmlns="http://www.w3.org/2000/svg">
<rect width="162" height="40" rx="4" fill="#F4F4F4"/>
<path d="M18.7727 17.5H17.3636C17.2803 17.0947 17.1345 16.7386 16.9261 16.4318C16.7216 16.125 16.4716 15.8674 16.1761 15.6591C15.8845 15.447 15.5606 15.2879 15.2045 15.1818C14.8485 15.0758 14.4773 15.0227 14.0909 15.0227C13.3864 15.0227 12.7481 15.2008 12.1761 15.5568C11.608 15.9129 11.1553 16.4375 10.8182 17.1307C10.4848 17.8239 10.3182 18.6742 10.3182 19.6818C10.3182 20.6894 10.4848 21.5398 10.8182 22.233C11.1553 22.9261 11.608 23.4508 12.1761 23.8068C12.7481 24.1629 13.3864 24.3409 14.0909 24.3409C14.4773 24.3409 14.8485 24.2879 15.2045 24.1818C15.5606 24.0758 15.8845 23.9186 16.1761 23.7102C16.4716 23.4981 16.7216 23.2386 16.9261 22.9318C17.1345 22.6212 17.2803 22.2652 17.3636 21.8636H18.7727C18.6667 22.4583 18.4735 22.9905 18.1932 23.4602C17.9129 23.9299 17.5644 24.3295 17.1477 24.6591C16.7311 24.9848 16.2633 25.233 15.7443 25.4034C15.2292 25.5739 14.678 25.6591 14.0909 25.6591C13.0985 25.6591 12.2159 25.4167 11.4432 24.9318C10.6705 24.447 10.0625 23.7576 9.61932 22.8636C9.17614 21.9697 8.95455 20.9091 8.95455 19.6818C8.95455 18.4545 9.17614 17.3939 9.61932 16.5C10.0625 15.6061 10.6705 14.9167 11.4432 14.4318C12.2159 13.947 13.0985 13.7045 14.0909 13.7045C14.678 13.7045 15.2292 13.7898 15.7443 13.9602C16.2633 14.1307 16.7311 14.3807 17.1477 14.7102C17.5644 15.036 17.9129 15.4337 18.1932 15.9034C18.4735 16.3693 18.6667 16.9015 18.7727 17.5ZM23.4361 25.7045C22.883 25.7045 22.3812 25.6004 21.9304 25.392C21.4796 25.1799 21.1217 24.875 20.8565 24.4773C20.5914 24.0758 20.4588 23.5909 20.4588 23.0227C20.4588 22.5227 20.5573 22.1174 20.7543 21.8068C20.9512 21.4924 21.2145 21.2462 21.544 21.0682C21.8736 20.8902 22.2372 20.7576 22.6349 20.6705C23.0365 20.5795 23.4399 20.5076 23.8452 20.4545C24.3755 20.3864 24.8054 20.3352 25.1349 20.3011C25.4683 20.2633 25.7107 20.2008 25.8622 20.1136C26.0175 20.0265 26.0952 19.875 26.0952 19.6591V19.6136C26.0952 19.053 25.9418 18.6174 25.6349 18.3068C25.3319 17.9962 24.8717 17.8409 24.2543 17.8409C23.6141 17.8409 23.1122 17.9811 22.7486 18.2614C22.3849 18.5417 22.1293 18.8409 21.9815 19.1591L20.7088 18.7045C20.9361 18.1742 21.2391 17.7614 21.6179 17.4659C22.0005 17.1667 22.4171 16.9583 22.8679 16.8409C23.3224 16.7197 23.7694 16.6591 24.2088 16.6591C24.4891 16.6591 24.8111 16.6932 25.1747 16.7614C25.5421 16.8258 25.8963 16.9602 26.2372 17.1648C26.5819 17.3693 26.8679 17.678 27.0952 18.0909C27.3224 18.5038 27.4361 19.0568 27.4361 19.75V25.5H26.0952V24.3182H26.027C25.9361 24.5076 25.7846 24.7102 25.5724 24.9261C25.3603 25.142 25.0781 25.3258 24.7259 25.4773C24.3736 25.6288 23.9437 25.7045 23.4361 25.7045ZM23.6406 24.5C24.1709 24.5 24.6179 24.3958 24.9815 24.1875C25.349 23.9792 25.6255 23.7102 25.8111 23.3807C26.0005 23.0511 26.0952 22.7045 26.0952 22.3409V21.1136C26.0384 21.1818 25.9134 21.2443 25.7202 21.3011C25.5308 21.3542 25.3111 21.4015 25.0611 21.4432C24.8149 21.4811 24.5743 21.5152 24.3395 21.5455C24.1084 21.572 23.9209 21.5947 23.777 21.6136C23.4285 21.6591 23.1027 21.733 22.7997 21.8352C22.5005 21.9337 22.258 22.0833 22.0724 22.2841C21.8906 22.4811 21.7997 22.75 21.7997 23.0909C21.7997 23.5568 21.9721 23.9091 22.3168 24.1477C22.6652 24.3826 23.1065 24.5 23.6406 24.5ZM31.2244 13.8636V25.5H29.8835V13.8636H31.2244ZM37.3395 25.6818C36.4986 25.6818 35.7732 25.4962 35.1634 25.125C34.5573 24.75 34.0895 24.2273 33.7599 23.5568C33.4342 22.8826 33.2713 22.0985 33.2713 21.2045C33.2713 20.3106 33.4342 19.5227 33.7599 18.8409C34.0895 18.1553 34.5478 17.6212 35.1349 17.2386C35.7259 16.8523 36.4152 16.6591 37.2031 16.6591C37.6577 16.6591 38.1065 16.7348 38.5497 16.8864C38.9929 17.0379 39.3963 17.2841 39.7599 17.625C40.1236 17.9621 40.4134 18.4091 40.6293 18.9659C40.8452 19.5227 40.9531 20.2083 40.9531 21.0227V21.5909H34.2259V20.4318H39.5895C39.5895 19.9394 39.491 19.5 39.294 19.1136C39.1009 18.7273 38.8243 18.4223 38.4645 18.1989C38.1084 17.9754 37.688 17.8636 37.2031 17.8636C36.669 17.8636 36.2069 17.9962 35.8168 18.2614C35.4304 18.5227 35.133 18.8636 34.9247 19.2841C34.7164 19.7045 34.6122 20.1553 34.6122 20.6364V21.4091C34.6122 22.0682 34.7259 22.6269 34.9531 23.0852C35.1842 23.5398 35.5043 23.8864 35.9134 24.125C36.3224 24.3598 36.7978 24.4773 37.3395 24.4773C37.6918 24.4773 38.0099 24.428 38.294 24.3295C38.5819 24.2273 38.83 24.0758 39.0384 23.875C39.2467 23.6705 39.4077 23.4167 39.5213 23.1136L40.8168 23.4773C40.6804 23.9167 40.4512 24.303 40.1293 24.6364C39.8073 24.9659 39.4096 25.2235 38.9361 25.4091C38.4626 25.5909 37.9304 25.6818 37.3395 25.6818ZM44.3338 20.25V25.5H42.9929V16.7727H44.2884V18.1364H44.402C44.6065 17.6932 44.9171 17.3371 45.3338 17.0682C45.7505 16.7955 46.2884 16.6591 46.9474 16.6591C47.5384 16.6591 48.0554 16.7803 48.4986 17.0227C48.9418 17.2614 49.2865 17.625 49.5327 18.1136C49.7789 18.5985 49.902 19.2121 49.902 19.9545V25.5H48.5611V20.0455C48.5611 19.3598 48.383 18.8258 48.027 18.4432C47.6709 18.0568 47.1823 17.8636 46.5611 17.8636C46.133 17.8636 45.7505 17.9564 45.4134 18.142C45.08 18.3277 44.8168 18.5985 44.6236 18.9545C44.4304 19.3106 44.3338 19.7424 44.3338 20.25ZM55.6477 25.6818C54.9205 25.6818 54.2784 25.4981 53.7216 25.1307C53.1648 24.7595 52.7292 24.2367 52.4148 23.5625C52.1004 22.8845 51.9432 22.0833 51.9432 21.1591C51.9432 20.2424 52.1004 19.447 52.4148 18.7727C52.7292 18.0985 53.1667 17.5777 53.7273 17.2102C54.2879 16.8428 54.9356 16.6591 55.6705 16.6591C56.2386 16.6591 56.6875 16.7538 57.017 16.9432C57.3504 17.1288 57.6042 17.3409 57.7784 17.5795C57.9564 17.8144 58.0947 18.0076 58.1932 18.1591H58.3068V13.8636H59.6477V25.5H58.3523V24.1591H58.1932C58.0947 24.3182 57.9545 24.5189 57.7727 24.7614C57.5909 25 57.3314 25.214 56.9943 25.4034C56.6572 25.589 56.2083 25.6818 55.6477 25.6818ZM55.8295 24.4773C56.3674 24.4773 56.822 24.3371 57.1932 24.0568C57.5644 23.7727 57.8466 23.3807 58.0398 22.8807C58.233 22.3769 58.3295 21.7955 58.3295 21.1364C58.3295 20.4848 58.2348 19.9148 58.0455 19.4261C57.8561 18.9337 57.5758 18.5511 57.2045 18.2784C56.8333 18.0019 56.375 17.8636 55.8295 17.8636C55.2614 17.8636 54.7879 18.0095 54.4091 18.3011C54.0341 18.589 53.7519 18.9811 53.5625 19.4773C53.3769 19.9697 53.2841 20.5227 53.2841 21.1364C53.2841 21.7576 53.3788 22.322 53.5682 22.8295C53.7614 23.3333 54.0455 23.7348 54.4205 24.0341C54.7992 24.3295 55.2689 24.4773 55.8295 24.4773ZM64.858 25.7045C64.3049 25.7045 63.803 25.6004 63.3523 25.392C62.9015 25.1799 62.5436 24.875 62.2784 24.4773C62.0133 24.0758 61.8807 23.5909 61.8807 23.0227C61.8807 22.5227 61.9792 22.1174 62.1761 21.8068C62.3731 21.4924 62.6364 21.2462 62.9659 21.0682C63.2955 20.8902 63.6591 20.7576 64.0568 20.6705C64.4583 20.5795 64.8617 20.5076 65.267 20.4545C65.7973 20.3864 66.2273 20.3352 66.5568 20.3011C66.8902 20.2633 67.1326 20.2008 67.2841 20.1136C67.4394 20.0265 67.517 19.875 67.517 19.6591V19.6136C67.517 19.053 67.3636 18.6174 67.0568 18.3068C66.7538 17.9962 66.2936 17.8409 65.6761 17.8409C65.036 17.8409 64.5341 17.9811 64.1705 18.2614C63.8068 18.5417 63.5511 18.8409 63.4034 19.1591L62.1307 18.7045C62.358 18.1742 62.661 17.7614 63.0398 17.4659C63.4223 17.1667 63.839 16.9583 64.2898 16.8409C64.7443 16.7197 65.1913 16.6591 65.6307 16.6591C65.911 16.6591 66.233 16.6932 66.5966 16.7614C66.964 16.8258 67.3182 16.9602 67.6591 17.1648C68.0038 17.3693 68.2898 17.678 68.517 18.0909C68.7443 18.5038 68.858 19.0568 68.858 19.75V25.5H67.517V24.3182H67.4489C67.358 24.5076 67.2064 24.7102 66.9943 24.9261C66.7822 25.142 66.5 25.3258 66.1477 25.4773C65.7955 25.6288 65.3655 25.7045 64.858 25.7045ZM65.0625 24.5C65.5928 24.5 66.0398 24.3958 66.4034 24.1875C66.7708 23.9792 67.0473 23.7102 67.233 23.3807C67.4223 23.0511 67.517 22.7045 67.517 22.3409V21.1136C67.4602 21.1818 67.3352 21.2443 67.142 21.3011C66.9527 21.3542 66.733 21.4015 66.483 21.4432C66.2367 21.4811 65.9962 21.5152 65.7614 21.5455C65.5303 21.572 65.3428 21.5947 65.1989 21.6136C64.8504 21.6591 64.5246 21.733 64.2216 21.8352C63.9223 21.9337 63.6799 22.0833 63.4943 22.2841C63.3125 22.4811 63.2216 22.75 63.2216 23.0909C63.2216 23.5568 63.3939 23.9091 63.7386 24.1477C64.0871 24.3826 64.5284 24.5 65.0625 24.5ZM71.3054 25.5V16.7727H72.6009V18.0909H72.6918C72.8509 17.6591 73.1387 17.3087 73.5554 17.0398C73.9721 16.7708 74.4418 16.6364 74.9645 16.6364C75.063 16.6364 75.1861 16.6383 75.3338 16.642C75.4815 16.6458 75.5933 16.6515 75.669 16.6591V18.0227C75.6236 18.0114 75.5194 17.9943 75.3565 17.9716C75.1974 17.9451 75.0289 17.9318 74.8509 17.9318C74.4266 17.9318 74.0478 18.0208 73.7145 18.1989C73.3849 18.3731 73.1236 18.6155 72.9304 18.9261C72.741 19.233 72.6463 19.5833 72.6463 19.9773V25.5H71.3054ZM88.8949 16.7727L85.6676 25.5H84.304L81.0767 16.7727H82.5312L84.9403 23.7273H85.0312L87.4403 16.7727H88.8949ZM90.6648 25.5V16.7727H92.0057V25.5H90.6648ZM91.3466 15.3182C91.0852 15.3182 90.8598 15.2292 90.6705 15.0511C90.4848 14.8731 90.392 14.6591 90.392 14.4091C90.392 14.1591 90.4848 13.9451 90.6705 13.767C90.8598 13.589 91.0852 13.5 91.3466 13.5C91.608 13.5 91.8314 13.589 92.017 13.767C92.2064 13.9451 92.3011 14.1591 92.3011 14.4091C92.3011 14.6591 92.2064 14.8731 92.017 15.0511C91.8314 15.2292 91.608 15.3182 91.3466 15.3182ZM98.1207 25.6818C97.2798 25.6818 96.5545 25.4962 95.9446 25.125C95.3385 24.75 94.8707 24.2273 94.5412 23.5568C94.2154 22.8826 94.0526 22.0985 94.0526 21.2045C94.0526 20.3106 94.2154 19.5227 94.5412 18.8409C94.8707 18.1553 95.3291 17.6212 95.9162 17.2386C96.5071 16.8523 97.1965 16.6591 97.9844 16.6591C98.4389 16.6591 98.8878 16.7348 99.331 16.8864C99.7741 17.0379 100.178 17.2841 100.541 17.625C100.905 17.9621 101.195 18.4091 101.411 18.9659C101.626 19.5227 101.734 20.2083 101.734 21.0227V21.5909H95.0071V20.4318H100.371C100.371 19.9394 100.272 19.5 100.075 19.1136C99.8821 18.7273 99.6056 18.4223 99.2457 18.1989C98.8897 17.9754 98.4692 17.8636 97.9844 17.8636C97.4503 17.8636 96.9882 17.9962 96.598 18.2614C96.2116 18.5227 95.9143 18.8636 95.706 19.2841C95.4976 19.7045 95.3935 20.1553 95.3935 20.6364V21.4091C95.3935 22.0682 95.5071 22.6269 95.7344 23.0852C95.9654 23.5398 96.2855 23.8864 96.6946 24.125C97.1037 24.3598 97.5791 24.4773 98.1207 24.4773C98.473 24.4773 98.7912 24.428 99.0753 24.3295C99.3632 24.2273 99.6113 24.0758 99.8196 23.875C100.028 23.6705 100.189 23.4167 100.303 23.1136L101.598 23.4773C101.462 23.9167 101.232 24.303 100.911 24.6364C100.589 24.9659 100.191 25.2235 99.7173 25.4091C99.2438 25.5909 98.7116 25.6818 98.1207 25.6818ZM105.751 25.5L103.092 16.7727H104.501L106.388 23.4545H106.479L108.342 16.7727H109.774L111.615 23.4318H111.706L113.592 16.7727H115.001L112.342 25.5H111.024L109.115 18.7955H108.979L107.07 25.5H105.751Z" fill="#797979"/>
<path d="M145 12V10M145 12V14M145 12H140.5M133 18V27C133 28.1046 133.895 29 135 29H149C150.105 29 151 28.1046 151 27V18H133Z" stroke="#797979" stroke-width="1.5" stroke-linecap="round" stroke-linejoin="round"/>
<path d="M133 18V14C133 12.8954 133.895 12 135 12H137" stroke="#797979" stroke-width="1.5" stroke-linecap="round" stroke-linejoin="round"/>
<path d="M137 10V14" stroke="#797979" stroke-width="1.5" stroke-linecap="round" stroke-linejoin="round"/>
<path d="M151 18V14C151 12.8954 150.105 12 149 12H148.5" stroke="#797979" stroke-width="1.5" stroke-linecap="round" stroke-linejoin="round"/>
<rect x="178" width="141" height="40" rx="4" fill="#F4F4F4"/>
<path d="M187.886 25.5H186.409L190.682 13.8636H192.136L196.409 25.5H194.932L191.455 15.7045H191.364L187.886 25.5ZM188.432 20.9545H194.386V22.2045H188.432V20.9545ZM203.54 21.9318V16.7727H204.881V25.5H203.54V24.0227H203.449C203.244 24.4659 202.926 24.8428 202.494 25.1534C202.063 25.4602 201.517 25.6136 200.858 25.6136C200.312 25.6136 199.828 25.4943 199.403 25.2557C198.979 25.0133 198.646 24.6496 198.403 24.1648C198.161 23.6761 198.04 23.0606 198.04 22.3182V16.7727H199.381V22.2273C199.381 22.8636 199.559 23.3712 199.915 23.75C200.275 24.1288 200.733 24.3182 201.29 24.3182C201.623 24.3182 201.962 24.233 202.307 24.0625C202.655 23.892 202.947 23.6307 203.182 23.2784C203.42 22.9261 203.54 22.4773 203.54 21.9318ZM211.132 16.7727V17.9091H206.609V16.7727H211.132ZM207.928 14.6818H209.268V23C209.268 23.3788 209.323 23.6629 209.433 23.8523C209.547 24.0379 209.691 24.1629 209.865 24.2273C210.043 24.2879 210.231 24.3182 210.428 24.3182C210.575 24.3182 210.696 24.3106 210.791 24.2955C210.886 24.2765 210.962 24.2614 211.018 24.25L211.291 25.4545C211.2 25.4886 211.073 25.5227 210.911 25.5568C210.748 25.5947 210.541 25.6136 210.291 25.6136C209.912 25.6136 209.541 25.5322 209.178 25.3693C208.818 25.2064 208.518 24.9583 208.28 24.625C208.045 24.2917 207.928 23.8712 207.928 23.3636V14.6818ZM216.601 25.6818C215.813 25.6818 215.122 25.4943 214.527 25.1193C213.936 24.7443 213.474 24.2197 213.141 23.5455C212.811 22.8712 212.646 22.0833 212.646 21.1818C212.646 20.2727 212.811 19.4792 213.141 18.8011C213.474 18.1231 213.936 17.5966 214.527 17.2216C215.122 16.8466 215.813 16.6591 216.601 16.6591C217.389 16.6591 218.078 16.8466 218.669 17.2216C219.264 17.5966 219.726 18.1231 220.055 18.8011C220.389 19.4792 220.555 20.2727 220.555 21.1818C220.555 22.0833 220.389 22.8712 220.055 23.5455C219.726 24.2197 219.264 24.7443 218.669 25.1193C218.078 25.4943 217.389 25.6818 216.601 25.6818ZM216.601 24.4773C217.199 24.4773 217.692 24.3239 218.078 24.017C218.464 23.7102 218.75 23.3068 218.936 22.8068C219.122 22.3068 219.214 21.7652 219.214 21.1818C219.214 20.5985 219.122 20.0549 218.936 19.5511C218.75 19.0473 218.464 18.6402 218.078 18.3295C217.692 18.0189 217.199 17.8636 216.601 17.8636C216.002 17.8636 215.51 18.0189 215.124 18.3295C214.737 18.6402 214.451 19.0473 214.266 19.5511C214.08 20.0549 213.987 20.5985 213.987 21.1818C213.987 21.7652 214.08 22.3068 214.266 22.8068C214.451 23.3068 214.737 23.7102 215.124 24.017C215.51 24.3239 216.002 24.4773 216.601 24.4773ZM222.602 25.5V16.7727H223.898V18.1364H224.011C224.193 17.6705 224.487 17.3087 224.892 17.0511C225.297 16.7898 225.784 16.6591 226.352 16.6591C226.928 16.6591 227.407 16.7898 227.79 17.0511C228.176 17.3087 228.477 17.6705 228.693 18.1364H228.784C229.008 17.6856 229.343 17.3277 229.79 17.0625C230.237 16.7936 230.773 16.6591 231.398 16.6591C232.178 16.6591 232.816 16.9034 233.312 17.392C233.809 17.8769 234.057 18.6326 234.057 19.6591V25.5H232.716V19.6591C232.716 19.0152 232.54 18.5549 232.188 18.2784C231.835 18.0019 231.42 17.8636 230.943 17.8636C230.33 17.8636 229.854 18.0492 229.517 18.4205C229.18 18.7879 229.011 19.2538 229.011 19.8182V25.5H227.648V19.5227C227.648 19.0265 227.487 18.6269 227.165 18.3239C226.843 18.017 226.428 17.8636 225.92 17.8636C225.572 17.8636 225.246 17.9564 224.943 18.142C224.644 18.3277 224.402 18.5852 224.216 18.9148C224.034 19.2405 223.943 19.6174 223.943 20.0455V25.5H222.602ZM239.077 25.7045C238.524 25.7045 238.022 25.6004 237.571 25.392C237.12 25.1799 236.762 24.875 236.497 24.4773C236.232 24.0758 236.099 23.5909 236.099 23.0227C236.099 22.5227 236.198 22.1174 236.395 21.8068C236.592 21.4924 236.855 21.2462 237.185 21.0682C237.514 20.8902 237.878 20.7576 238.276 20.6705C238.677 20.5795 239.08 20.5076 239.486 20.4545C240.016 20.3864 240.446 20.3352 240.776 20.3011C241.109 20.2633 241.351 20.2008 241.503 20.1136C241.658 20.0265 241.736 19.875 241.736 19.6591V19.6136C241.736 19.053 241.582 18.6174 241.276 18.3068C240.973 17.9962 240.512 17.8409 239.895 17.8409C239.255 17.8409 238.753 17.9811 238.389 18.2614C238.026 18.5417 237.77 18.8409 237.622 19.1591L236.349 18.7045C236.577 18.1742 236.88 17.7614 237.259 17.4659C237.641 17.1667 238.058 16.9583 238.509 16.8409C238.963 16.7197 239.41 16.6591 239.849 16.6591C240.13 16.6591 240.452 16.6932 240.815 16.7614C241.183 16.8258 241.537 16.9602 241.878 17.1648C242.223 17.3693 242.509 17.678 242.736 18.0909C242.963 18.5038 243.077 19.0568 243.077 19.75V25.5H241.736V24.3182H241.668C241.577 24.5076 241.425 24.7102 241.213 24.9261C241.001 25.142 240.719 25.3258 240.366 25.4773C240.014 25.6288 239.584 25.7045 239.077 25.7045ZM239.281 24.5C239.812 24.5 240.259 24.3958 240.622 24.1875C240.99 23.9792 241.266 23.7102 241.452 23.3807C241.641 23.0511 241.736 22.7045 241.736 22.3409V21.1136C241.679 21.1818 241.554 21.2443 241.361 21.3011C241.171 21.3542 240.952 21.4015 240.702 21.4432C240.455 21.4811 240.215 21.5152 239.98 21.5455C239.749 21.572 239.562 21.5947 239.418 21.6136C239.069 21.6591 238.743 21.733 238.44 21.8352C238.141 21.9337 237.899 22.0833 237.713 22.2841C237.531 22.4811 237.44 22.75 237.44 23.0909C237.44 23.5568 237.613 23.9091 237.957 24.1477C238.306 24.3826 238.747 24.5 239.281 24.5ZM249.32 16.7727V17.9091H244.797V16.7727H249.32ZM246.115 14.6818H247.456V23C247.456 23.3788 247.511 23.6629 247.621 23.8523C247.734 24.0379 247.878 24.1629 248.053 24.2273C248.231 24.2879 248.418 24.3182 248.615 24.3182C248.763 24.3182 248.884 24.3106 248.979 24.2955C249.073 24.2765 249.149 24.2614 249.206 24.25L249.479 25.4545C249.388 25.4886 249.261 25.5227 249.098 25.5568C248.935 25.5947 248.729 25.6136 248.479 25.6136C248.1 25.6136 247.729 25.5322 247.365 25.3693C247.005 25.2064 246.706 24.9583 246.467 24.625C246.232 24.2917 246.115 23.8712 246.115 23.3636V14.6818ZM251.337 25.5V16.7727H252.678V25.5H251.337ZM252.018 15.3182C251.757 15.3182 251.532 15.2292 251.342 15.0511C251.157 14.8731 251.064 14.6591 251.064 14.4091C251.064 14.1591 251.157 13.9451 251.342 13.767C251.532 13.589 251.757 13.5 252.018 13.5C252.28 13.5 252.503 13.589 252.689 13.767C252.878 13.9451 252.973 14.1591 252.973 14.4091C252.973 14.6591 252.878 14.8731 252.689 15.0511C252.503 15.2292 252.28 15.3182 252.018 15.3182ZM258.679 25.6818C257.891 25.6818 257.2 25.4943 256.605 25.1193C256.014 24.7443 255.552 24.2197 255.219 23.5455C254.889 22.8712 254.724 22.0833 254.724 21.1818C254.724 20.2727 254.889 19.4792 255.219 18.8011C255.552 18.1231 256.014 17.5966 256.605 17.2216C257.2 16.8466 257.891 16.6591 258.679 16.6591C259.467 16.6591 260.156 16.8466 260.747 17.2216C261.342 17.5966 261.804 18.1231 262.134 18.8011C262.467 19.4792 262.634 20.2727 262.634 21.1818C262.634 22.0833 262.467 22.8712 262.134 23.5455C261.804 24.2197 261.342 24.7443 260.747 25.1193C260.156 25.4943 259.467 25.6818 258.679 25.6818ZM258.679 24.4773C259.277 24.4773 259.77 24.3239 260.156 24.017C260.543 23.7102 260.829 23.3068 261.014 22.8068C261.2 22.3068 261.293 21.7652 261.293 21.1818C261.293 20.5985 261.2 20.0549 261.014 19.5511C260.829 19.0473 260.543 18.6402 260.156 18.3295C259.77 18.0189 259.277 17.8636 258.679 17.8636C258.08 17.8636 257.588 18.0189 257.202 18.3295C256.815 18.6402 256.529 19.0473 256.344 19.5511C256.158 20.0549 256.065 20.5985 256.065 21.1818C256.065 21.7652 256.158 22.3068 256.344 22.8068C256.529 23.3068 256.815 23.7102 257.202 24.017C257.588 24.3239 258.08 24.4773 258.679 24.4773ZM266.021 20.25V25.5H264.68V16.7727H265.976V18.1364H266.089C266.294 17.6932 266.605 17.3371 267.021 17.0682C267.438 16.7955 267.976 16.6591 268.635 16.6591C269.226 16.6591 269.743 16.7803 270.186 17.0227C270.629 17.2614 270.974 17.625 271.22 18.1136C271.466 18.5985 271.589 19.2121 271.589 19.9545V25.5H270.249V20.0455C270.249 19.3598 270.071 18.8258 269.714 18.4432C269.358 18.0568 268.87 17.8636 268.249 17.8636C267.821 17.8636 267.438 17.9564 267.101 18.142C266.768 18.3277 266.504 18.5985 266.311 18.9545C266.118 19.3106 266.021 19.7424 266.021 20.25Z" fill="#797979"/>
<path d="M295 23C299.875 23 302 20.949 302 16C302 20.949 304.11 23 309 23C304.11 23 302 25.1104 302 30C302 25.1104 299.875 23 295 23Z" stroke="#797979" stroke-width="1.5" stroke-linejoin="round"/>
<path d="M289 14.5C292.134 14.5 293.5 13.1815 293.5 10C293.5 13.1815 294.857 14.5 298 14.5C294.857 14.5 293.5 15.8567 293.5 19C293.5 15.8567 292.134 14.5 289 14.5Z" stroke="#797979" stroke-width="1.5" stroke-linejoin="round"/>
<rect x="335" width="92" height="40" rx="4" fill="#F4F4F4"/>
<path d="M344.409 25.5V13.8636H351.386V15.1136H345.818V19.0455H350.864V20.2955H345.818V25.5H344.409ZM353.618 25.5V16.7727H354.959V25.5H353.618ZM354.3 15.3182C354.038 15.3182 353.813 15.2292 353.624 15.0511C353.438 14.8731 353.345 14.6591 353.345 14.4091C353.345 14.1591 353.438 13.9451 353.624 13.767C353.813 13.589 354.038 13.5 354.3 13.5C354.561 13.5 354.785 13.589 354.97 13.767C355.16 13.9451 355.254 14.1591 355.254 14.4091C355.254 14.6591 355.16 14.8731 354.97 15.0511C354.785 15.2292 354.561 15.3182 354.3 15.3182ZM358.756 13.8636V25.5H357.415V13.8636H358.756ZM365.007 16.7727V17.9091H360.484V16.7727H365.007ZM361.803 14.6818H363.143V23C363.143 23.3788 363.198 23.6629 363.308 23.8523C363.422 24.0379 363.566 24.1629 363.74 24.2273C363.918 24.2879 364.106 24.3182 364.303 24.3182C364.45 24.3182 364.571 24.3106 364.666 24.2955C364.761 24.2765 364.837 24.2614 364.893 24.25L365.166 25.4545C365.075 25.4886 364.948 25.5227 364.786 25.5568C364.623 25.5947 364.416 25.6136 364.166 25.6136C363.787 25.6136 363.416 25.5322 363.053 25.3693C362.693 25.2064 362.393 24.9583 362.155 24.625C361.92 24.2917 361.803 23.8712 361.803 23.3636V14.6818ZM370.589 25.6818C369.749 25.6818 369.023 25.4962 368.413 25.125C367.807 24.75 367.339 24.2273 367.01 23.5568C366.684 22.8826 366.521 22.0985 366.521 21.2045C366.521 20.3106 366.684 19.5227 367.01 18.8409C367.339 18.1553 367.798 17.6212 368.385 17.2386C368.976 16.8523 369.665 16.6591 370.453 16.6591C370.908 16.6591 371.357 16.7348 371.8 16.8864C372.243 17.0379 372.646 17.2841 373.01 17.625C373.374 17.9621 373.663 18.4091 373.879 18.9659C374.095 19.5227 374.203 20.2083 374.203 21.0227V21.5909H367.476V20.4318H372.839C372.839 19.9394 372.741 19.5 372.544 19.1136C372.351 18.7273 372.074 18.4223 371.714 18.1989C371.358 17.9754 370.938 17.8636 370.453 17.8636C369.919 17.8636 369.457 17.9962 369.067 18.2614C368.68 18.5227 368.383 18.8636 368.175 19.2841C367.966 19.7045 367.862 20.1553 367.862 20.6364V21.4091C367.862 22.0682 367.976 22.6269 368.203 23.0852C368.434 23.5398 368.754 23.8864 369.163 24.125C369.572 24.3598 370.048 24.4773 370.589 24.4773C370.942 24.4773 371.26 24.428 371.544 24.3295C371.832 24.2273 372.08 24.0758 372.288 23.875C372.497 23.6705 372.658 23.4167 372.771 23.1136L374.067 23.4773C373.93 23.9167 373.701 24.303 373.379 24.6364C373.057 24.9659 372.66 25.2235 372.186 25.4091C371.713 25.5909 371.18 25.6818 370.589 25.6818ZM376.243 25.5V16.7727H377.538V18.0909H377.629C377.788 17.6591 378.076 17.3087 378.493 17.0398C378.91 16.7708 379.379 16.6364 379.902 16.6364C380 16.6364 380.124 16.6383 380.271 16.642C380.419 16.6458 380.531 16.6515 380.607 16.6591V18.0227C380.561 18.0114 380.457 17.9943 380.294 17.9716C380.135 17.9451 379.966 17.9318 379.788 17.9318C379.364 17.9318 378.985 18.0208 378.652 18.1989C378.322 18.3731 378.061 18.6155 377.868 18.9261C377.679 19.233 377.584 19.5833 377.584 19.9773V25.5H376.243Z" fill="#797979"/>
<path d="M399 11H415C415.552 11 416 11.4476 416 11.9999L416 13.5857C416 13.851 415.895 14.1054 415.707 14.293L409.292 20.7071C409.105 20.8946 409 21.149 409 21.4142V27.7192C409 28.3698 408.388 28.8472 407.757 28.6894L405.757 28.1894C405.312 28.0781 405 27.6781 405 27.2192V21.4142C405 21.149 404.894 20.8946 404.707 20.7071L398.292 14.2929C398.105 14.1054 398 13.851 398 13.5858V12C398 11.4477 398.447 11 399 11Z" stroke="#797979" stroke-width="1.5" stroke-linecap="round" stroke-linejoin="round"/>
<rect x="443" width="98" height="40" rx="4" fill="#F4F4F4"/>
<path d="M458.773 16.7727C458.705 16.197 458.428 15.75 457.943 15.4318C457.458 15.1136 456.864 14.9545 456.159 14.9545C455.644 14.9545 455.193 15.0379 454.807 15.2045C454.424 15.3712 454.125 15.6004 453.909 15.892C453.697 16.1837 453.591 16.5152 453.591 16.8864C453.591 17.197 453.665 17.464 453.812 17.6875C453.964 17.9072 454.157 18.0909 454.392 18.2386C454.627 18.3826 454.873 18.5019 455.131 18.5966C455.388 18.6875 455.625 18.7614 455.841 18.8182L457.023 19.1364C457.326 19.2159 457.663 19.3258 458.034 19.4659C458.409 19.6061 458.767 19.7973 459.108 20.0398C459.453 20.2784 459.737 20.5852 459.96 20.9602C460.184 21.3352 460.295 21.7955 460.295 22.3409C460.295 22.9697 460.131 23.5379 459.801 24.0455C459.475 24.553 458.998 24.9564 458.369 25.2557C457.744 25.5549 456.985 25.7045 456.091 25.7045C455.258 25.7045 454.536 25.5701 453.926 25.3011C453.32 25.0322 452.843 24.6572 452.494 24.1761C452.15 23.6951 451.955 23.1364 451.909 22.5H453.364C453.402 22.9394 453.549 23.303 453.807 23.5909C454.068 23.875 454.398 24.0871 454.795 24.2273C455.197 24.3636 455.629 24.4318 456.091 24.4318C456.629 24.4318 457.112 24.3447 457.54 24.1705C457.968 23.9924 458.307 23.7462 458.557 23.4318C458.807 23.1136 458.932 22.7424 458.932 22.3182C458.932 21.9318 458.824 21.6174 458.608 21.375C458.392 21.1326 458.108 20.9356 457.756 20.7841C457.403 20.6326 457.023 20.5 456.614 20.3864L455.182 19.9773C454.273 19.7159 453.553 19.3428 453.023 18.858C452.492 18.3731 452.227 17.7386 452.227 16.9545C452.227 16.303 452.403 15.7348 452.756 15.25C453.112 14.7614 453.589 14.3826 454.188 14.1136C454.79 13.8409 455.462 13.7045 456.205 13.7045C456.955 13.7045 457.621 13.839 458.205 14.108C458.788 14.3731 459.25 14.7367 459.591 15.1989C459.936 15.661 460.117 16.1856 460.136 16.7727H458.773ZM463.771 20.25V25.5H462.43V13.8636H463.771V18.1364H463.885C464.089 17.6856 464.396 17.3277 464.805 17.0625C465.218 16.7936 465.768 16.6591 466.453 16.6591C467.048 16.6591 467.569 16.7784 468.016 17.017C468.463 17.2519 468.809 17.6136 469.055 18.1023C469.305 18.5871 469.43 19.2045 469.43 19.9545V25.5H468.089V20.0455C468.089 19.3523 467.91 18.8163 467.55 18.4375C467.194 18.0549 466.699 17.8636 466.067 17.8636C465.627 17.8636 465.233 17.9564 464.885 18.142C464.54 18.3277 464.268 18.5985 464.067 18.9545C463.87 19.3106 463.771 19.7424 463.771 20.25ZM474.452 25.7045C473.899 25.7045 473.397 25.6004 472.946 25.392C472.495 25.1799 472.137 24.875 471.872 24.4773C471.607 24.0758 471.474 23.5909 471.474 23.0227C471.474 22.5227 471.573 22.1174 471.77 21.8068C471.967 21.4924 472.23 21.2462 472.56 21.0682C472.889 20.8902 473.253 20.7576 473.651 20.6705C474.052 20.5795 474.455 20.5076 474.861 20.4545C475.391 20.3864 475.821 20.3352 476.151 20.3011C476.484 20.2633 476.726 20.2008 476.878 20.1136C477.033 20.0265 477.111 19.875 477.111 19.6591V19.6136C477.111 19.053 476.957 18.6174 476.651 18.3068C476.348 17.9962 475.887 17.8409 475.27 17.8409C474.63 17.8409 474.128 17.9811 473.764 18.2614C473.401 18.5417 473.145 18.8409 472.997 19.1591L471.724 18.7045C471.952 18.1742 472.255 17.7614 472.634 17.4659C473.016 17.1667 473.433 16.9583 473.884 16.8409C474.338 16.7197 474.785 16.6591 475.224 16.6591C475.505 16.6591 475.827 16.6932 476.19 16.7614C476.558 16.8258 476.912 16.9602 477.253 17.1648C477.598 17.3693 477.884 17.678 478.111 18.0909C478.338 18.5038 478.452 19.0568 478.452 19.75V25.5H477.111V24.3182H477.043C476.952 24.5076 476.8 24.7102 476.588 24.9261C476.376 25.142 476.094 25.3258 475.741 25.4773C475.389 25.6288 474.959 25.7045 474.452 25.7045ZM474.656 24.5C475.187 24.5 475.634 24.3958 475.997 24.1875C476.365 23.9792 476.641 23.7102 476.827 23.3807C477.016 23.0511 477.111 22.7045 477.111 22.3409V21.1136C477.054 21.1818 476.929 21.2443 476.736 21.3011C476.546 21.3542 476.327 21.4015 476.077 21.4432C475.83 21.4811 475.59 21.5152 475.355 21.5455C475.124 21.572 474.937 21.5947 474.793 21.6136C474.444 21.6591 474.118 21.733 473.815 21.8352C473.516 21.9337 473.274 22.0833 473.088 22.2841C472.906 22.4811 472.815 22.75 472.815 23.0909C472.815 23.5568 472.988 23.9091 473.332 24.1477C473.681 24.3826 474.122 24.5 474.656 24.5ZM480.899 25.5V16.7727H482.195V18.0909H482.286C482.445 17.6591 482.732 17.3087 483.149 17.0398C483.566 16.7708 484.036 16.6364 484.558 16.6364C484.657 16.6364 484.78 16.6383 484.928 16.642C485.075 16.6458 485.187 16.6515 485.263 16.6591V18.0227C485.217 18.0114 485.113 17.9943 484.95 17.9716C484.791 17.9451 484.623 17.9318 484.445 17.9318C484.02 17.9318 483.642 18.0208 483.308 18.1989C482.979 18.3731 482.717 18.6155 482.524 18.9261C482.335 19.233 482.24 19.5833 482.24 19.9773V25.5H480.899ZM490.246 25.6818C489.405 25.6818 488.679 25.4962 488.07 25.125C487.464 24.75 486.996 24.2273 486.666 23.5568C486.34 22.8826 486.178 22.0985 486.178 21.2045C486.178 20.3106 486.34 19.5227 486.666 18.8409C486.996 18.1553 487.454 17.6212 488.041 17.2386C488.632 16.8523 489.321 16.6591 490.109 16.6591C490.564 16.6591 491.013 16.7348 491.456 16.8864C491.899 17.0379 492.303 17.2841 492.666 17.625C493.03 17.9621 493.32 18.4091 493.536 18.9659C493.751 19.5227 493.859 20.2083 493.859 21.0227V21.5909H487.132V20.4318H492.496C492.496 19.9394 492.397 19.5 492.2 19.1136C492.007 18.7273 491.731 18.4223 491.371 18.1989C491.015 17.9754 490.594 17.8636 490.109 17.8636C489.575 17.8636 489.113 17.9962 488.723 18.2614C488.337 18.5227 488.039 18.8636 487.831 19.2841C487.623 19.7045 487.518 20.1553 487.518 20.6364V21.4091C487.518 22.0682 487.632 22.6269 487.859 23.0852C488.09 23.5398 488.411 23.8864 488.82 24.125C489.229 24.3598 489.704 24.4773 490.246 24.4773C490.598 24.4773 490.916 24.428 491.2 24.3295C491.488 24.2273 491.736 24.0758 491.945 23.875C492.153 23.6705 492.314 23.4167 492.428 23.1136L493.723 23.4773C493.587 23.9167 493.357 24.303 493.036 24.6364C492.714 24.9659 492.316 25.2235 491.842 25.4091C491.369 25.5909 490.837 25.6818 490.246 25.6818Z" fill="#797979"/>
<path d="M527 30C528.657 30 530 28.6569 530 27C530 25.3431 528.657 24 527 24C525.343 24 524 25.3431 524 27C524 28.6569 525.343 30 527 30Z" stroke="#797979" stroke-width="1.5" stroke-linecap="round" stroke-linejoin="round"/>
<path d="M527 16C528.657 16 530 14.6568 530 13C530 11.3432 528.657 10 527 10C525.343 10 524 11.3432 524 13C524 14.6568 525.343 16 527 16Z" stroke="#797979" stroke-width="1.5" stroke-linecap="round" stroke-linejoin="round"/>
<path d="M515 23C516.657 23 518 21.6569 518 20C518 18.3431 516.657 17 515 17C513.343 17 512 18.3431 512 20C512 21.6569 513.343 23 515 23Z" stroke="#797979" stroke-width="1.5" stroke-linecap="round" stroke-linejoin="round"/>
<path d="M524.5 14.5L517.5 18.5" stroke="#797979" stroke-width="1.5"/>
<path d="M517.5 21.5L524.5 25.5" stroke="#797979" stroke-width="1.5"/>
</svg>
