<svg width="253" height="200" viewBox="0 0 253 200" fill="none" xmlns="http://www.w3.org/2000/svg">
<rect x="0.5" y="0.5" width="252" height="39" rx="3.5" fill="#F4F4F4"/>
<rect x="0.5" y="0.5" width="252" height="39" rx="3.5" stroke="#DDDDDD"/>
<path d="M10 16L19.7317 11.1341C19.9006 11.0497 20.0994 11.0497 20.2683 11.1341L30 16" stroke="#797979" stroke-width="1.5" stroke-linecap="round" stroke-linejoin="round"/>
<path d="M28 19V27C28 28.1046 27.1046 29 26 29H14C12.8954 29 12 28.1046 12 27V19" stroke="#797979" stroke-width="1.5" stroke-linecap="round" stroke-linejoin="round"/>
<path d="M47.7614 27V12.4545H49.5227V18.9318H57.2784V12.4545H59.0398V27H57.2784V20.4943H49.5227V27H47.7614ZM66.7706 27.2273C65.7857 27.2273 64.9216 26.9929 64.1783 26.5241C63.4396 26.0554 62.862 25.3996 62.4453 24.5568C62.0334 23.714 61.8274 22.7292 61.8274 21.6023C61.8274 20.4659 62.0334 19.474 62.4453 18.6264C62.862 17.7789 63.4396 17.1207 64.1783 16.652C64.9216 16.1832 65.7857 15.9489 66.7706 15.9489C67.7554 15.9489 68.6172 16.1832 69.3558 16.652C70.0992 17.1207 70.6768 17.7789 71.0888 18.6264C71.5054 19.474 71.7138 20.4659 71.7138 21.6023C71.7138 22.7292 71.5054 23.714 71.0888 24.5568C70.6768 25.3996 70.0992 26.0554 69.3558 26.5241C68.6172 26.9929 67.7554 27.2273 66.7706 27.2273ZM66.7706 25.7216C67.5187 25.7216 68.1342 25.5298 68.6172 25.1463C69.1001 24.7628 69.4576 24.2585 69.6896 23.6335C69.9216 23.0085 70.0376 22.3314 70.0376 21.6023C70.0376 20.8731 69.9216 20.1937 69.6896 19.5639C69.4576 18.9342 69.1001 18.4252 68.6172 18.0369C68.1342 17.6487 67.5187 17.4545 66.7706 17.4545C66.0225 17.4545 65.407 17.6487 64.924 18.0369C64.4411 18.4252 64.0836 18.9342 63.8516 19.5639C63.6196 20.1937 63.5036 20.8731 63.5036 21.6023C63.5036 22.3314 63.6196 23.0085 63.8516 23.6335C64.0836 24.2585 64.4411 24.7628 64.924 25.1463C65.407 25.5298 66.0225 25.7216 66.7706 25.7216ZM74.2724 27V16.0909H75.8917V17.7955H76.0337C76.261 17.2131 76.628 16.7609 77.1346 16.4389C77.6412 16.1122 78.2496 15.9489 78.9599 15.9489C79.6796 15.9489 80.2785 16.1122 80.7567 16.4389C81.2397 16.7609 81.6161 17.2131 81.886 17.7955H81.9996C82.279 17.232 82.698 16.7846 83.2567 16.4531C83.8155 16.117 84.4854 15.9489 85.2667 15.9489C86.2421 15.9489 87.0399 16.2543 87.6602 16.8651C88.2804 17.4711 88.5906 18.4157 88.5906 19.6989V27H86.9144V19.6989C86.9144 18.8939 86.6942 18.3187 86.2539 17.973C85.8136 17.6274 85.2951 17.4545 84.6985 17.4545C83.9315 17.4545 83.3372 17.6866 82.9158 18.1506C82.4944 18.6098 82.2837 19.1922 82.2837 19.8977V27H80.5792V19.5284C80.5792 18.9081 80.378 18.4086 79.9755 18.0298C79.573 17.6463 79.0546 17.4545 78.4201 17.4545C77.9845 17.4545 77.5773 17.5705 77.1985 17.8026C76.8245 18.0346 76.5214 18.3565 76.2894 18.7685C76.0621 19.1757 75.9485 19.6468 75.9485 20.1818V27H74.2724ZM96.229 27.2273C95.1779 27.2273 94.2712 26.9953 93.5089 26.5312C92.7513 26.0625 92.1665 25.4091 91.7546 24.571C91.3474 23.7282 91.1438 22.7481 91.1438 21.6307C91.1438 20.5133 91.3474 19.5284 91.7546 18.6761C92.1665 17.8191 92.7395 17.1515 93.4734 16.6733C94.212 16.1903 95.0737 15.9489 96.0586 15.9489C96.6268 15.9489 97.1879 16.0436 97.7418 16.233C98.2958 16.4223 98.8001 16.7301 99.2546 17.1562C99.7092 17.5777 100.071 18.1364 100.341 18.8324C100.611 19.5284 100.746 20.3854 100.746 21.4034V22.1136H92.337V20.6648H99.0415C99.0415 20.0492 98.9184 19.5 98.6722 19.017C98.4308 18.5341 98.0851 18.1529 97.6353 17.8736C97.1902 17.5942 96.6647 17.4545 96.0586 17.4545C95.391 17.4545 94.8133 17.6203 94.3256 17.9517C93.8427 18.2784 93.471 18.7045 93.2106 19.2301C92.9502 19.7557 92.82 20.3191 92.82 20.9205V21.8864C92.82 22.7102 92.962 23.4086 93.2461 23.9815C93.5349 24.5497 93.935 24.983 94.4464 25.2812C94.9577 25.5748 95.552 25.7216 96.229 25.7216C96.6694 25.7216 97.0671 25.66 97.4222 25.5369C97.7821 25.4091 98.0922 25.2197 98.3526 24.9688C98.613 24.7131 98.8143 24.3958 98.9563 24.017L100.576 24.4716C100.405 25.0208 100.119 25.5038 99.7163 25.9205C99.3138 26.3324 98.8166 26.6544 98.2248 26.8864C97.6329 27.1136 96.9677 27.2273 96.229 27.2273Z" fill="#797979"/>
<path d="M11 55.6V72.4C11 72.7314 11.2686 73 11.6 73H28.4C28.7314 73 29 72.7314 29 72.4V55.6C29 55.2686 28.7314 55 28.4 55H11.6C11.2686 55 11 55.2686 11 55.6Z" stroke="#797979" stroke-width="1.5" stroke-linecap="round" stroke-linejoin="round"/>
<path d="M14 58V68" stroke="#797979" stroke-width="1.5" stroke-linecap="round" stroke-linejoin="round"/>
<path d="M18 58V61" stroke="#797979" stroke-width="1.5" stroke-linecap="round" stroke-linejoin="round"/>
<path d="M22 58V65" stroke="#797979" stroke-width="1.5" stroke-linecap="round" stroke-linejoin="round"/>
<path d="M26 58V63" stroke="#797979" stroke-width="1.5" stroke-linecap="round" stroke-linejoin="round"/>
<path d="M47.7614 71V56.4545H52.8466C53.8598 56.4545 54.6955 56.6297 55.3537 56.9801C56.0118 57.3258 56.5019 57.7921 56.8239 58.3793C57.1458 58.9616 57.3068 59.608 57.3068 60.3182C57.3068 60.9432 57.1955 61.4593 56.973 61.8665C56.7552 62.2737 56.4664 62.5956 56.1065 62.8324C55.7514 63.0691 55.3655 63.2443 54.9489 63.358V63.5C55.3939 63.5284 55.8414 63.6847 56.2912 63.9688C56.741 64.2528 57.1174 64.66 57.4205 65.1903C57.7235 65.7206 57.875 66.3693 57.875 67.1364C57.875 67.8655 57.7093 68.5213 57.3778 69.1037C57.0464 69.6861 56.5232 70.1477 55.8082 70.4886C55.0933 70.8295 54.1629 71 53.017 71H47.7614ZM49.5227 69.4375H53.017C54.1676 69.4375 54.9844 69.215 55.4673 68.7699C55.955 68.3201 56.1989 67.7756 56.1989 67.1364C56.1989 66.6439 56.0734 66.1894 55.8224 65.7727C55.5715 65.3513 55.214 65.0152 54.75 64.7642C54.286 64.5085 53.7367 64.3807 53.1023 64.3807H49.5227V69.4375ZM49.5227 62.8466H52.7898C53.3201 62.8466 53.7983 62.7424 54.2244 62.5341C54.6553 62.3258 54.9962 62.0322 55.2472 61.6534C55.5028 61.2746 55.6307 60.8295 55.6307 60.3182C55.6307 59.679 55.4081 59.1368 54.9631 58.6918C54.518 58.242 53.8125 58.017 52.8466 58.017H49.5227V62.8466ZM64.9737 71.2273C63.9889 71.2273 63.1248 70.9929 62.3814 70.5241C61.6428 70.0554 61.0651 69.3996 60.6484 68.5568C60.2365 67.714 60.0305 66.7292 60.0305 65.6023C60.0305 64.4659 60.2365 63.474 60.6484 62.6264C61.0651 61.7789 61.6428 61.1207 62.3814 60.652C63.1248 60.1832 63.9889 59.9489 64.9737 59.9489C65.9586 59.9489 66.8203 60.1832 67.5589 60.652C68.3023 61.1207 68.88 61.7789 69.2919 62.6264C69.7086 63.474 69.9169 64.4659 69.9169 65.6023C69.9169 66.7292 69.7086 67.714 69.2919 68.5568C68.88 69.3996 68.3023 70.0554 67.5589 70.5241C66.8203 70.9929 65.9586 71.2273 64.9737 71.2273ZM64.9737 69.7216C65.7218 69.7216 66.3374 69.5298 66.8203 69.1463C67.3033 68.7628 67.6607 68.2585 67.8928 67.6335C68.1248 67.0085 68.2408 66.3314 68.2408 65.6023C68.2408 64.8731 68.1248 64.1937 67.8928 63.5639C67.6607 62.9342 67.3033 62.4252 66.8203 62.0369C66.3374 61.6487 65.7218 61.4545 64.9737 61.4545C64.2256 61.4545 63.6101 61.6487 63.1271 62.0369C62.6442 62.4252 62.2867 62.9342 62.0547 63.5639C61.8227 64.1937 61.7067 64.8731 61.7067 65.6023C61.7067 66.3314 61.8227 67.0085 62.0547 67.6335C62.2867 68.2585 62.6442 68.7628 63.1271 69.1463C63.6101 69.5298 64.2256 69.7216 64.9737 69.7216ZM75.6857 71.2557C74.9944 71.2557 74.3671 71.1255 73.8036 70.8651C73.2402 70.5999 72.7927 70.2188 72.4613 69.7216C72.1299 69.2197 71.9641 68.6136 71.9641 67.9034C71.9641 67.2784 72.0872 66.7718 72.3335 66.3835C72.5797 65.9905 72.9087 65.6828 73.3207 65.4602C73.7326 65.2377 74.1871 65.072 74.6843 64.9631C75.1862 64.8494 75.6905 64.7595 76.1971 64.6932C76.86 64.608 77.3974 64.544 77.8093 64.5014C78.226 64.4541 78.529 64.3759 78.7184 64.267C78.9125 64.1581 79.0096 63.9687 79.0096 63.6989V63.642C79.0096 62.9413 78.8178 62.3968 78.4343 62.0085C78.0555 61.6203 77.4802 61.4261 76.7085 61.4261C75.9083 61.4261 75.2809 61.6013 74.8263 61.9517C74.3718 62.3021 74.0522 62.6761 73.8675 63.0739L72.2766 62.5057C72.5607 61.8428 72.9395 61.3267 73.413 60.9574C73.8912 60.5833 74.4121 60.3229 74.9755 60.1761C75.5437 60.0246 76.1024 59.9489 76.6516 59.9489C77.002 59.9489 77.4045 59.9915 77.859 60.0767C78.3183 60.1572 78.761 60.3253 79.1871 60.581C79.618 60.8366 79.9755 61.2225 80.2596 61.7386C80.5437 62.2547 80.6857 62.946 80.6857 63.8125V71H79.0096V69.5227H78.9244C78.8107 69.7595 78.6213 70.0128 78.3562 70.2827C78.091 70.5526 77.7383 70.7822 77.2979 70.9716C76.8576 71.161 76.3202 71.2557 75.6857 71.2557ZM75.9414 69.75C76.6043 69.75 77.163 69.6198 77.6175 69.3594C78.0768 69.099 78.4225 68.7628 78.6545 68.3509C78.8912 67.9389 79.0096 67.5057 79.0096 67.0511V65.517C78.9386 65.6023 78.7823 65.6804 78.5408 65.7514C78.3041 65.8177 78.0295 65.8769 77.717 65.929C77.4092 65.9763 77.1085 66.0189 76.815 66.0568C76.5262 66.09 76.2918 66.1184 76.1119 66.142C75.6763 66.1989 75.2691 66.2912 74.8903 66.419C74.5162 66.5421 74.2132 66.7292 73.9812 66.9801C73.7539 67.2263 73.6403 67.5625 73.6403 67.9886C73.6403 68.571 73.8557 69.0114 74.2866 69.3097C74.7222 69.6032 75.2738 69.75 75.9414 69.75ZM83.745 71V60.0909H85.3643V61.7386H85.478C85.6768 61.1989 86.0367 60.7609 86.5575 60.4247C87.0784 60.0885 87.6655 59.9205 88.3189 59.9205C88.442 59.9205 88.5959 59.9228 88.7805 59.9276C88.9652 59.9323 89.1049 59.9394 89.1996 59.9489V61.6534C89.1428 61.6392 89.0125 61.6179 88.8089 61.5895C88.6101 61.5563 88.3994 61.5398 88.1768 61.5398C87.6465 61.5398 87.1731 61.651 86.7564 61.8736C86.3445 62.0914 86.0178 62.3944 85.7763 62.7827C85.5395 63.1662 85.4212 63.6042 85.4212 64.0966V71H83.745ZM94.9737 71.2273C94.0646 71.2273 93.2621 70.9976 92.5661 70.5384C91.87 70.0743 91.3255 69.4209 90.9325 68.5781C90.5395 67.7306 90.343 66.7292 90.343 65.5739C90.343 64.428 90.5395 63.4337 90.9325 62.5909C91.3255 61.7481 91.8724 61.0971 92.5732 60.6378C93.2739 60.1785 94.0836 59.9489 95.0021 59.9489C95.7124 59.9489 96.2734 60.0672 96.6854 60.304C97.102 60.536 97.4193 60.8011 97.6371 61.0994C97.8596 61.393 98.0324 61.6345 98.1555 61.8239H98.2976V56.4545H99.9737V71H98.3544V69.3239H98.1555C98.0324 69.5227 97.8572 69.7737 97.63 70.0767C97.4027 70.375 97.0784 70.6425 96.657 70.8793C96.2356 71.1113 95.6745 71.2273 94.9737 71.2273ZM95.201 69.7216C95.8733 69.7216 96.4415 69.5464 96.9055 69.196C97.3696 68.8409 97.7223 68.3509 97.9638 67.7259C98.2053 67.0961 98.326 66.3693 98.326 65.5455C98.326 64.7311 98.2076 64.0185 97.9709 63.4077C97.7341 62.7921 97.3838 62.3139 96.9197 61.973C96.4557 61.6274 95.8828 61.4545 95.201 61.4545C94.4908 61.4545 93.8989 61.6368 93.4254 62.0014C92.9567 62.3613 92.6039 62.8513 92.3672 63.4716C92.1352 64.0871 92.0192 64.7784 92.0192 65.5455C92.0192 66.322 92.1375 67.0275 92.3743 67.6619C92.6158 68.2917 92.9709 68.7936 93.4396 69.1676C93.9131 69.5369 94.5002 69.7216 95.201 69.7216ZM111.004 62.5341L109.498 62.9602C109.403 62.7093 109.263 62.4654 109.079 62.2287C108.899 61.9872 108.653 61.7884 108.34 61.6321C108.028 61.4759 107.628 61.3977 107.14 61.3977C106.472 61.3977 105.916 61.5516 105.471 61.8594C105.031 62.1624 104.81 62.5483 104.81 63.017C104.81 63.4337 104.962 63.7628 105.265 64.0043C105.568 64.2457 106.041 64.447 106.685 64.608L108.305 65.0057C109.28 65.2424 110.007 65.6046 110.485 66.0923C110.963 66.5753 111.202 67.1979 111.202 67.9602C111.202 68.5852 111.022 69.1439 110.663 69.6364C110.308 70.1288 109.81 70.517 109.171 70.8011C108.532 71.0852 107.789 71.2273 106.941 71.2273C105.828 71.2273 104.907 70.9858 104.178 70.5028C103.449 70.0199 102.987 69.3144 102.793 68.3864L104.384 67.9886C104.536 68.5758 104.822 69.0161 105.244 69.3097C105.67 69.6032 106.226 69.75 106.913 69.75C107.694 69.75 108.314 69.5843 108.773 69.2528C109.237 68.9167 109.469 68.5142 109.469 68.0455C109.469 67.6667 109.337 67.3494 109.072 67.0938C108.807 66.8333 108.399 66.6392 107.85 66.5114L106.032 66.0852C105.033 65.8485 104.299 65.4815 103.83 64.9844C103.366 64.4825 103.134 63.8551 103.134 63.1023C103.134 62.4867 103.307 61.9422 103.653 61.4688C104.003 60.9953 104.479 60.6236 105.08 60.3537C105.686 60.0838 106.373 59.9489 107.14 59.9489C108.219 59.9489 109.067 60.1856 109.683 60.6591C110.303 61.1326 110.743 61.7576 111.004 62.5341Z" fill="#797979"/>
<path d="M20 107C21.6569 107 23 105.657 23 104C23 102.343 21.6569 101 20 101C18.3431 101 17 102.343 17 104C17 105.657 18.3431 107 20 107Z" stroke="#797979" stroke-width="1.5" stroke-linecap="round" stroke-linejoin="round"/>
<path d="M27.6224 102.395L26.5247 99.7448L28 98L26 96L24.2647 97.483L21.5578 96.3697L20.9353 94H18.981L18.3491 96.4011L15.7044 97.516L14 96L12 98L13.4534 99.7888L12.3725 102.446L10 103V105L12.4011 105.656L13.5157 108.3L12 110L14 112L15.7912 110.54L18.397 111.612L19 114H21L21.6045 111.613L24.2551 110.515C24.6969 110.831 26 112 26 112L28 110L26.5159 108.249L27.6139 105.598L29.9999 104.977L30 103L27.6224 102.395Z" stroke="#797979" stroke-width="1.5" stroke-linecap="round" stroke-linejoin="round"/>
<path d="M55.7159 100.091C55.6307 99.3712 55.285 98.8125 54.679 98.4148C54.0729 98.017 53.3295 97.8182 52.4489 97.8182C51.8049 97.8182 51.2415 97.9223 50.7585 98.1307C50.2803 98.339 49.9063 98.6255 49.6364 98.9901C49.3712 99.3546 49.2386 99.7689 49.2386 100.233C49.2386 100.621 49.331 100.955 49.5156 101.234C49.705 101.509 49.9465 101.739 50.2401 101.923C50.5336 102.103 50.8414 102.252 51.1634 102.371C51.4853 102.484 51.7812 102.577 52.0511 102.648L53.5284 103.045C53.9072 103.145 54.3286 103.282 54.7926 103.457C55.2614 103.633 55.7088 103.872 56.1349 104.175C56.5658 104.473 56.9209 104.857 57.2003 105.325C57.4796 105.794 57.6193 106.369 57.6193 107.051C57.6193 107.837 57.4134 108.547 57.0014 109.182C56.5942 109.816 55.9976 110.321 55.2116 110.695C54.4304 111.069 53.4811 111.256 52.3636 111.256C51.322 111.256 50.42 111.088 49.6577 110.751C48.9001 110.415 48.3035 109.946 47.8679 109.345C47.437 108.744 47.1932 108.045 47.1364 107.25H48.9545C49.0019 107.799 49.1866 108.254 49.5085 108.614C49.8352 108.969 50.2472 109.234 50.7443 109.409C51.2462 109.58 51.786 109.665 52.3636 109.665C53.036 109.665 53.6397 109.556 54.1747 109.338C54.7098 109.116 55.1335 108.808 55.446 108.415C55.7585 108.017 55.9148 107.553 55.9148 107.023C55.9148 106.54 55.7798 106.147 55.5099 105.844C55.2401 105.541 54.8849 105.295 54.4446 105.105C54.0043 104.916 53.5284 104.75 53.017 104.608L51.2273 104.097C50.0909 103.77 49.1913 103.304 48.5284 102.697C47.8655 102.091 47.5341 101.298 47.5341 100.318C47.5341 99.5038 47.7543 98.7936 48.1946 98.1875C48.6397 97.5767 49.2363 97.1032 49.9844 96.767C50.7372 96.4261 51.5777 96.2557 52.5057 96.2557C53.4432 96.2557 54.2765 96.4238 55.0057 96.7599C55.7348 97.0914 56.3125 97.5459 56.7386 98.1236C57.1695 98.7012 57.3968 99.357 57.4205 100.091H55.7159ZM64.8619 111.227C63.8107 111.227 62.904 110.995 62.1417 110.531C61.3841 110.062 60.7994 109.409 60.3874 108.571C59.9802 107.728 59.7766 106.748 59.7766 105.631C59.7766 104.513 59.9802 103.528 60.3874 102.676C60.7994 101.819 61.3723 101.152 62.1062 100.673C62.8448 100.19 63.7066 99.9489 64.6914 99.9489C65.2596 99.9489 65.8207 100.044 66.3746 100.233C66.9286 100.422 67.4329 100.73 67.8874 101.156C68.342 101.578 68.7042 102.136 68.9741 102.832C69.244 103.528 69.3789 104.385 69.3789 105.403V106.114H60.9698V104.665H67.6744C67.6744 104.049 67.5513 103.5 67.305 103.017C67.0636 102.534 66.7179 102.153 66.2681 101.874C65.823 101.594 65.2975 101.455 64.6914 101.455C64.0238 101.455 63.4461 101.62 62.9585 101.952C62.4755 102.278 62.1038 102.705 61.8434 103.23C61.583 103.756 61.4528 104.319 61.4528 104.92V105.886C61.4528 106.71 61.5948 107.409 61.8789 107.982C62.1677 108.55 62.5678 108.983 63.0792 109.281C63.5906 109.575 64.1848 109.722 64.8619 109.722C65.3022 109.722 65.6999 109.66 66.055 109.537C66.4149 109.409 66.725 109.22 66.9854 108.969C67.2459 108.713 67.4471 108.396 67.5891 108.017L69.2085 108.472C69.038 109.021 68.7515 109.504 68.3491 109.92C67.9466 110.332 67.4495 110.654 66.8576 110.886C66.2657 111.114 65.6005 111.227 64.8619 111.227ZM76.6729 100.091V101.511H71.0195V100.091H76.6729ZM72.6673 97.4773H74.3434V107.875C74.3434 108.348 74.4121 108.704 74.5494 108.94C74.6914 109.172 74.8713 109.329 75.0891 109.409C75.3117 109.485 75.546 109.523 75.7923 109.523C75.9769 109.523 76.1284 109.513 76.2468 109.494C76.3652 109.471 76.4599 109.452 76.5309 109.438L76.8718 110.943C76.7582 110.986 76.5996 111.028 76.396 111.071C76.1924 111.118 75.9343 111.142 75.6218 111.142C75.1483 111.142 74.6843 111.04 74.2298 110.837C73.7799 110.633 73.4059 110.323 73.1076 109.906C72.814 109.49 72.6673 108.964 72.6673 108.33V97.4773ZM83.9386 100.091V101.511H78.2852V100.091H83.9386ZM79.9329 97.4773H81.609V107.875C81.609 108.348 81.6777 108.704 81.815 108.94C81.957 109.172 82.137 109.329 82.3548 109.409C82.5773 109.485 82.8117 109.523 83.0579 109.523C83.2425 109.523 83.3941 109.513 83.5124 109.494C83.6308 109.471 83.7255 109.452 83.7965 109.438L84.1374 110.943C84.0238 110.986 83.8652 111.028 83.6616 111.071C83.458 111.118 83.1999 111.142 82.8874 111.142C82.4139 111.142 81.9499 111.04 81.4954 110.837C81.0456 110.633 80.6715 110.323 80.3732 109.906C80.0797 109.49 79.9329 108.964 79.9329 108.33V97.4773ZM86.4599 111V100.091H88.136V111H86.4599ZM87.3121 98.2727C86.9854 98.2727 86.7037 98.1615 86.467 97.9389C86.235 97.7164 86.119 97.4489 86.119 97.1364C86.119 96.8239 86.235 96.5563 86.467 96.3338C86.7037 96.1113 86.9854 96 87.3121 96C87.6388 96 87.9182 96.1113 88.1502 96.3338C88.387 96.5563 88.5053 96.8239 88.5053 97.1364C88.5053 97.4489 88.387 97.7164 88.1502 97.9389C87.9182 98.1615 87.6388 98.2727 87.3121 98.2727ZM92.8821 104.438V111H91.206V100.091H92.8253V101.795H92.9673C93.223 101.241 93.6113 100.796 94.1321 100.46C94.6529 100.119 95.3253 99.9489 96.1491 99.9489C96.8878 99.9489 97.5341 100.1 98.0881 100.403C98.642 100.702 99.0729 101.156 99.3807 101.767C99.6884 102.373 99.8423 103.14 99.8423 104.068V111H98.1662V104.182C98.1662 103.325 97.9437 102.657 97.4986 102.179C97.0535 101.696 96.4427 101.455 95.6662 101.455C95.1312 101.455 94.6529 101.571 94.2315 101.803C93.8149 102.035 93.4858 102.373 93.2443 102.818C93.0028 103.263 92.8821 103.803 92.8821 104.438ZM107.309 115.318C106.499 115.318 105.803 115.214 105.221 115.006C104.638 114.802 104.153 114.532 103.765 114.196C103.381 113.865 103.076 113.509 102.848 113.131L104.184 112.193C104.335 112.392 104.527 112.619 104.759 112.875C104.991 113.135 105.308 113.36 105.711 113.55C106.118 113.744 106.65 113.841 107.309 113.841C108.189 113.841 108.916 113.628 109.489 113.202C110.062 112.776 110.348 112.108 110.348 111.199V108.983H110.206C110.083 109.182 109.908 109.428 109.681 109.722C109.458 110.01 109.136 110.268 108.715 110.496C108.298 110.718 107.735 110.83 107.025 110.83C106.144 110.83 105.353 110.621 104.652 110.205C103.956 109.788 103.405 109.182 102.998 108.386C102.595 107.591 102.394 106.625 102.394 105.489C102.394 104.371 102.59 103.398 102.983 102.57C103.376 101.736 103.923 101.092 104.624 100.638C105.325 100.179 106.134 99.9489 107.053 99.9489C107.763 99.9489 108.327 100.067 108.743 100.304C109.165 100.536 109.487 100.801 109.709 101.099C109.936 101.393 110.112 101.634 110.235 101.824H110.405V100.091H112.025V111.312C112.025 112.25 111.811 113.012 111.385 113.599C110.964 114.191 110.396 114.625 109.681 114.899C108.971 115.179 108.18 115.318 107.309 115.318ZM107.252 109.324C107.924 109.324 108.492 109.17 108.956 108.862C109.42 108.554 109.773 108.112 110.015 107.534C110.256 106.956 110.377 106.265 110.377 105.46C110.377 104.674 110.258 103.981 110.022 103.379C109.785 102.778 109.435 102.307 108.971 101.966C108.507 101.625 107.934 101.455 107.252 101.455C106.542 101.455 105.95 101.634 105.476 101.994C105.007 102.354 104.655 102.837 104.418 103.443C104.186 104.049 104.07 104.722 104.07 105.46C104.07 106.218 104.188 106.888 104.425 107.47C104.667 108.048 105.022 108.502 105.49 108.834C105.964 109.161 106.551 109.324 107.252 109.324ZM122.82 102.534L121.314 102.96C121.22 102.709 121.08 102.465 120.895 102.229C120.715 101.987 120.469 101.788 120.157 101.632C119.844 101.476 119.444 101.398 118.956 101.398C118.289 101.398 117.732 101.552 117.287 101.859C116.847 102.162 116.627 102.548 116.627 103.017C116.627 103.434 116.778 103.763 117.081 104.004C117.384 104.246 117.858 104.447 118.502 104.608L120.121 105.006C121.096 105.242 121.823 105.605 122.301 106.092C122.78 106.575 123.019 107.198 123.019 107.96C123.019 108.585 122.839 109.144 122.479 109.636C122.124 110.129 121.627 110.517 120.988 110.801C120.348 111.085 119.605 111.227 118.757 111.227C117.645 111.227 116.724 110.986 115.995 110.503C115.266 110.02 114.804 109.314 114.61 108.386L116.201 107.989C116.352 108.576 116.639 109.016 117.06 109.31C117.486 109.603 118.042 109.75 118.729 109.75C119.51 109.75 120.131 109.584 120.59 109.253C121.054 108.917 121.286 108.514 121.286 108.045C121.286 107.667 121.153 107.349 120.888 107.094C120.623 106.833 120.216 106.639 119.667 106.511L117.848 106.085C116.849 105.848 116.115 105.482 115.647 104.984C115.183 104.482 114.951 103.855 114.951 103.102C114.951 102.487 115.123 101.942 115.469 101.469C115.819 100.995 116.295 100.624 116.897 100.354C117.503 100.084 118.189 99.9489 118.956 99.9489C120.036 99.9489 120.883 100.186 121.499 100.659C122.119 101.133 122.56 101.758 122.82 102.534Z" fill="#797979"/>
<path d="M9 152V151C9 147.134 12.134 144 16 144C19.866 144 23 147.134 23 151V152" stroke="#797979" stroke-width="1.5" stroke-linecap="round"/>
<path d="M21 146C21 143.239 23.2386 141 26 141C28.7614 141 31 143.239 31 146V146.5" stroke="#797979" stroke-width="1.5" stroke-linecap="round"/>
<path d="M16 144C18.2091 144 20 142.209 20 140C20 137.791 18.2091 136 16 136C13.7909 136 12 137.791 12 140C12 142.209 13.7909 144 16 144Z" stroke="#797979" stroke-width="1.5" stroke-linecap="round" stroke-linejoin="round"/>
<path d="M26 141C27.6569 141 29 139.657 29 138C29 136.343 27.6569 135 26 135C24.3431 135 23 136.343 23 138C23 139.657 24.3431 141 26 141Z" stroke="#797979" stroke-width="1.5" stroke-linecap="round" stroke-linejoin="round"/>
<path d="M46.9659 138.017V136.455H57.875V138.017H53.3011V151H51.5398V138.017H46.9659ZM63.358 151.227C62.3068 151.227 61.4001 150.995 60.6378 150.531C59.8802 150.062 59.2955 149.409 58.8835 148.571C58.4763 147.728 58.2727 146.748 58.2727 145.631C58.2727 144.513 58.4763 143.528 58.8835 142.676C59.2955 141.819 59.8684 141.152 60.6023 140.673C61.3409 140.19 62.2027 139.949 63.1875 139.949C63.7557 139.949 64.3168 140.044 64.8707 140.233C65.4247 140.422 65.929 140.73 66.3835 141.156C66.8381 141.578 67.2003 142.136 67.4702 142.832C67.7401 143.528 67.875 144.385 67.875 145.403V146.114H59.4659V144.665H66.1705C66.1705 144.049 66.0473 143.5 65.8011 143.017C65.5597 142.534 65.214 142.153 64.7642 141.874C64.3191 141.594 63.7936 141.455 63.1875 141.455C62.5199 141.455 61.9422 141.62 61.4545 141.952C60.9716 142.278 60.5999 142.705 60.3395 143.23C60.0791 143.756 59.9489 144.319 59.9489 144.92V145.886C59.9489 146.71 60.0909 147.409 60.375 147.982C60.6638 148.55 61.0639 148.983 61.5753 149.281C62.0866 149.575 62.6809 149.722 63.358 149.722C63.7983 149.722 64.196 149.66 64.5511 149.537C64.911 149.409 65.2211 149.22 65.4815 148.969C65.742 148.713 65.9432 148.396 66.0852 148.017L67.7045 148.472C67.5341 149.021 67.2476 149.504 66.8452 149.92C66.4427 150.332 65.9455 150.654 65.3537 150.886C64.7618 151.114 64.0966 151.227 63.358 151.227ZM73.6349 151.256C72.9437 151.256 72.3163 151.125 71.7528 150.865C71.1894 150.6 70.742 150.219 70.4105 149.722C70.0791 149.22 69.9134 148.614 69.9134 147.903C69.9134 147.278 70.0365 146.772 70.2827 146.384C70.5289 145.991 70.858 145.683 71.2699 145.46C71.6818 145.238 72.1364 145.072 72.6335 144.963C73.1354 144.849 73.6397 144.759 74.1463 144.693C74.8092 144.608 75.3466 144.544 75.7585 144.501C76.1752 144.454 76.4782 144.376 76.6676 144.267C76.8617 144.158 76.9588 143.969 76.9588 143.699V143.642C76.9588 142.941 76.767 142.397 76.3835 142.009C76.0047 141.62 75.4295 141.426 74.6577 141.426C73.8575 141.426 73.2301 141.601 72.7756 141.952C72.321 142.302 72.0014 142.676 71.8168 143.074L70.2259 142.506C70.5099 141.843 70.8887 141.327 71.3622 140.957C71.8404 140.583 72.3613 140.323 72.9247 140.176C73.4929 140.025 74.0516 139.949 74.6009 139.949C74.9512 139.949 75.3537 139.991 75.8082 140.077C76.2675 140.157 76.7102 140.325 77.1364 140.581C77.5672 140.837 77.9247 141.223 78.2088 141.739C78.4929 142.255 78.6349 142.946 78.6349 143.812V151H76.9588V149.523H76.8736C76.7599 149.759 76.5705 150.013 76.3054 150.283C76.0402 150.553 75.6875 150.782 75.2472 150.972C74.8068 151.161 74.2694 151.256 73.6349 151.256ZM73.8906 149.75C74.5535 149.75 75.1122 149.62 75.5668 149.359C76.026 149.099 76.3717 148.763 76.6037 148.351C76.8404 147.939 76.9588 147.506 76.9588 147.051V145.517C76.8878 145.602 76.7315 145.68 76.4901 145.751C76.2533 145.818 75.9787 145.877 75.6662 145.929C75.3584 145.976 75.0578 146.019 74.7642 146.057C74.4754 146.09 74.241 146.118 74.0611 146.142C73.6255 146.199 73.2183 146.291 72.8395 146.419C72.4654 146.542 72.1624 146.729 71.9304 146.98C71.7031 147.226 71.5895 147.562 71.5895 147.989C71.5895 148.571 71.8049 149.011 72.2358 149.31C72.6714 149.603 73.223 149.75 73.8906 149.75ZM81.6942 151V140.091H83.3136V141.795H83.4556C83.6829 141.213 84.0498 140.761 84.5565 140.439C85.0631 140.112 85.6715 139.949 86.3817 139.949C87.1014 139.949 87.7004 140.112 88.1786 140.439C88.6616 140.761 89.038 141.213 89.3079 141.795H89.4215C89.7009 141.232 90.1199 140.785 90.6786 140.453C91.2373 140.117 91.9073 139.949 92.6886 139.949C93.6639 139.949 94.4618 140.254 95.082 140.865C95.7023 141.471 96.0124 142.416 96.0124 143.699V151H94.3363V143.699C94.3363 142.894 94.1161 142.319 93.6758 141.973C93.2354 141.627 92.717 141.455 92.1204 141.455C91.3533 141.455 90.7591 141.687 90.3377 142.151C89.9163 142.61 89.7056 143.192 89.7056 143.898V151H88.0011V143.528C88.0011 142.908 87.7998 142.409 87.3974 142.03C86.9949 141.646 86.4764 141.455 85.842 141.455C85.4064 141.455 84.9992 141.571 84.6204 141.803C84.2463 142.035 83.9433 142.357 83.7113 142.768C83.484 143.176 83.3704 143.647 83.3704 144.182V151H81.6942ZM106.804 142.534L105.299 142.96C105.204 142.709 105.064 142.465 104.88 142.229C104.7 141.987 104.453 141.788 104.141 141.632C103.828 141.476 103.428 141.398 102.941 141.398C102.273 141.398 101.717 141.552 101.272 141.859C100.831 142.162 100.611 142.548 100.611 143.017C100.611 143.434 100.763 143.763 101.066 144.004C101.369 144.246 101.842 144.447 102.486 144.608L104.105 145.006C105.081 145.242 105.808 145.605 106.286 146.092C106.764 146.575 107.003 147.198 107.003 147.96C107.003 148.585 106.823 149.144 106.463 149.636C106.108 150.129 105.611 150.517 104.972 150.801C104.333 151.085 103.589 151.227 102.742 151.227C101.629 151.227 100.708 150.986 99.979 150.503C99.2499 150.02 98.7882 149.314 98.5941 148.386L100.185 147.989C100.337 148.576 100.623 149.016 101.044 149.31C101.471 149.603 102.027 149.75 102.713 149.75C103.495 149.75 104.115 149.584 104.574 149.253C105.038 148.917 105.27 148.514 105.27 148.045C105.27 147.667 105.138 147.349 104.873 147.094C104.607 146.833 104.2 146.639 103.651 146.511L101.833 146.085C100.834 145.848 100.1 145.482 99.631 144.984C99.167 144.482 98.935 143.855 98.935 143.102C98.935 142.487 99.1078 141.942 99.4535 141.469C99.8039 140.995 100.28 140.624 100.881 140.354C101.487 140.084 102.174 139.949 102.941 139.949C104.02 139.949 104.868 140.186 105.483 140.659C106.104 141.133 106.544 141.758 106.804 142.534Z" fill="#797979"/>
<path d="M28 192H12V176" stroke="#797979" stroke-width="1.5" stroke-linecap="round" stroke-linejoin="round"/>
<path d="M12 188.5L20 181L23 184L27.5 179.5" stroke="#797979" stroke-width="1.5" stroke-linecap="round" stroke-linejoin="round"/>
<path d="M48.358 191H46.5114L51.8523 176.455H53.6705L59.0114 191H57.1648L52.8182 178.756H52.7045L48.358 191ZM49.0398 185.318H56.483V186.881H49.0398V185.318ZM62.7259 184.438V191H61.0497V180.091H62.669V181.795H62.8111C63.0668 181.241 63.455 180.796 63.9759 180.46C64.4967 180.119 65.169 179.949 65.9929 179.949C66.7315 179.949 67.3778 180.1 67.9318 180.403C68.4858 180.702 68.9167 181.156 69.2244 181.767C69.5322 182.373 69.6861 183.14 69.6861 184.068V191H68.0099V184.182C68.0099 183.325 67.7874 182.657 67.3423 182.179C66.8973 181.696 66.2865 181.455 65.5099 181.455C64.9749 181.455 64.4967 181.571 64.0753 181.803C63.6586 182.035 63.3295 182.373 63.0881 182.818C62.8466 183.263 62.7259 183.803 62.7259 184.438ZM75.9592 191.256C75.2679 191.256 74.6405 191.125 74.0771 190.865C73.5136 190.6 73.0662 190.219 72.7347 189.722C72.4033 189.22 72.2376 188.614 72.2376 187.903C72.2376 187.278 72.3607 186.772 72.6069 186.384C72.8531 185.991 73.1822 185.683 73.5941 185.46C74.006 185.238 74.4606 185.072 74.9577 184.963C75.4596 184.849 75.9639 184.759 76.4705 184.693C77.1334 184.608 77.6708 184.544 78.0827 184.501C78.4994 184.454 78.8024 184.376 78.9918 184.267C79.186 184.158 79.283 183.969 79.283 183.699V183.642C79.283 182.941 79.0913 182.397 78.7077 182.009C78.329 181.62 77.7537 181.426 76.9819 181.426C76.1817 181.426 75.5543 181.601 75.0998 181.952C74.6452 182.302 74.3256 182.676 74.141 183.074L72.5501 182.506C72.8342 181.843 73.2129 181.327 73.6864 180.957C74.1647 180.583 74.6855 180.323 75.2489 180.176C75.8171 180.025 76.3758 179.949 76.9251 179.949C77.2754 179.949 77.6779 179.991 78.1325 180.077C78.5917 180.157 79.0344 180.325 79.4606 180.581C79.8915 180.837 80.2489 181.223 80.533 181.739C80.8171 182.255 80.9592 182.946 80.9592 183.812V191H79.283V189.523H79.1978C79.0842 189.759 78.8948 190.013 78.6296 190.283C78.3645 190.553 78.0117 190.782 77.5714 190.972C77.131 191.161 76.5936 191.256 75.9592 191.256ZM76.2148 189.75C76.8777 189.75 77.4364 189.62 77.891 189.359C78.3503 189.099 78.6959 188.763 78.9279 188.351C79.1647 187.939 79.283 187.506 79.283 187.051V185.517C79.212 185.602 79.0558 185.68 78.8143 185.751C78.5775 185.818 78.3029 185.877 77.9904 185.929C77.6826 185.976 77.382 186.019 77.0884 186.057C76.7996 186.09 76.5652 186.118 76.3853 186.142C75.9497 186.199 75.5425 186.291 75.1637 186.419C74.7897 186.542 74.4866 186.729 74.2546 186.98C74.0273 187.226 73.9137 187.562 73.9137 187.989C73.9137 188.571 74.1291 189.011 74.56 189.31C74.9956 189.603 75.5472 189.75 76.2148 189.75ZM85.6946 176.455V191H84.0185V176.455H85.6946ZM89.8441 195.091C89.56 195.091 89.3067 195.067 89.0842 195.02C88.8616 194.977 88.7077 194.935 88.6225 194.892L89.0487 193.415C89.4558 193.519 89.8157 193.557 90.1282 193.528C90.4407 193.5 90.7177 193.36 90.9592 193.109C91.2054 192.863 91.4303 192.463 91.6339 191.909L91.9464 191.057L87.9123 180.091H89.7305L92.7418 188.784H92.8555L95.8668 180.091H97.685L93.0543 192.591C92.846 193.154 92.5879 193.621 92.2802 193.99C91.9724 194.364 91.6149 194.641 91.2077 194.821C90.8053 195.001 90.3507 195.091 89.8441 195.091ZM104.642 180.091V181.511H98.9883V180.091H104.642ZM100.636 177.477H102.312V187.875C102.312 188.348 102.381 188.704 102.518 188.94C102.66 189.172 102.84 189.329 103.058 189.409C103.28 189.485 103.515 189.523 103.761 189.523C103.946 189.523 104.097 189.513 104.216 189.494C104.334 189.471 104.429 189.452 104.5 189.438L104.841 190.943C104.727 190.986 104.568 191.028 104.365 191.071C104.161 191.118 103.903 191.142 103.591 191.142C103.117 191.142 102.653 191.04 102.199 190.837C101.749 190.633 101.375 190.323 101.076 189.906C100.783 189.49 100.636 188.964 100.636 188.33V177.477ZM107.163 191V180.091H108.839V191H107.163ZM108.015 178.273C107.689 178.273 107.407 178.161 107.17 177.939C106.938 177.716 106.822 177.449 106.822 177.136C106.822 176.824 106.938 176.556 107.17 176.334C107.407 176.111 107.689 176 108.015 176C108.342 176 108.621 176.111 108.853 176.334C109.09 176.556 109.208 176.824 109.208 177.136C109.208 177.449 109.09 177.716 108.853 177.939C108.621 178.161 108.342 178.273 108.015 178.273ZM116.341 191.227C115.318 191.227 114.438 190.986 113.699 190.503C112.96 190.02 112.392 189.355 111.994 188.507C111.597 187.66 111.398 186.691 111.398 185.602C111.398 184.494 111.601 183.517 112.009 182.669C112.42 181.817 112.993 181.152 113.727 180.673C114.466 180.19 115.328 179.949 116.312 179.949C117.08 179.949 117.771 180.091 118.386 180.375C119.002 180.659 119.506 181.057 119.899 181.568C120.292 182.08 120.536 182.676 120.631 183.358H118.955C118.827 182.861 118.543 182.42 118.102 182.037C117.667 181.649 117.08 181.455 116.341 181.455C115.688 181.455 115.115 181.625 114.622 181.966C114.134 182.302 113.753 182.778 113.479 183.393C113.209 184.004 113.074 184.722 113.074 185.545C113.074 186.388 113.206 187.122 113.472 187.747C113.741 188.372 114.12 188.857 114.608 189.203C115.1 189.549 115.678 189.722 116.341 189.722C116.777 189.722 117.172 189.646 117.527 189.494C117.882 189.343 118.183 189.125 118.429 188.841C118.675 188.557 118.85 188.216 118.955 187.818H120.631C120.536 188.462 120.302 189.042 119.928 189.558C119.558 190.07 119.068 190.477 118.457 190.78C117.851 191.078 117.146 191.227 116.341 191.227ZM130.808 182.534L129.303 182.96C129.208 182.709 129.068 182.465 128.884 182.229C128.704 181.987 128.457 181.788 128.145 181.632C127.832 181.476 127.432 181.398 126.945 181.398C126.277 181.398 125.721 181.552 125.276 181.859C124.835 182.162 124.615 182.548 124.615 183.017C124.615 183.434 124.767 183.763 125.07 184.004C125.373 184.246 125.846 184.447 126.49 184.608L128.109 185.006C129.085 185.242 129.812 185.605 130.29 186.092C130.768 186.575 131.007 187.198 131.007 187.96C131.007 188.585 130.827 189.144 130.467 189.636C130.112 190.129 129.615 190.517 128.976 190.801C128.337 191.085 127.593 191.227 126.746 191.227C125.633 191.227 124.712 190.986 123.983 190.503C123.254 190.02 122.792 189.314 122.598 188.386L124.189 187.989C124.34 188.576 124.627 189.016 125.048 189.31C125.474 189.603 126.031 189.75 126.717 189.75C127.499 189.75 128.119 189.584 128.578 189.253C129.042 188.917 129.274 188.514 129.274 188.045C129.274 187.667 129.142 187.349 128.876 187.094C128.611 186.833 128.204 186.639 127.655 186.511L125.837 186.085C124.838 185.848 124.104 185.482 123.635 184.984C123.171 184.482 122.939 183.855 122.939 183.102C122.939 182.487 123.112 181.942 123.457 181.469C123.808 180.995 124.284 180.624 124.885 180.354C125.491 180.084 126.178 179.949 126.945 179.949C128.024 179.949 128.872 180.186 129.487 180.659C130.107 181.133 130.548 181.758 130.808 182.534Z" fill="#797979"/>
</svg>
