<svg width="196" height="40" viewBox="0 0 196 40" fill="none" xmlns="http://www.w3.org/2000/svg">
<rect x="0.5" y="0.5" width="195" height="39" rx="7.5" fill="white"/>
<rect x="0.5" y="0.5" width="195" height="39" rx="7.5" stroke="#E9E9E9"/>
<path d="M15.7727 16.7727C15.7045 16.197 15.428 15.75 14.9432 15.4318C14.4583 15.1136 13.8636 14.9545 13.1591 14.9545C12.6439 14.9545 12.1932 15.0379 11.8068 15.2045C11.4242 15.3712 11.125 15.6004 10.9091 15.892C10.697 16.1837 10.5909 16.5152 10.5909 16.8864C10.5909 17.197 10.6648 17.464 10.8125 17.6875C10.964 17.9072 11.1572 18.0909 11.392 18.2386C11.6269 18.3826 11.8731 18.5019 12.1307 18.5966C12.3883 18.6875 12.625 18.7614 12.8409 18.8182L14.0227 19.1364C14.3258 19.2159 14.6629 19.3258 15.0341 19.4659C15.4091 19.6061 15.767 19.7973 16.108 20.0398C16.4527 20.2784 16.7367 20.5852 16.9602 20.9602C17.1837 21.3352 17.2955 21.7955 17.2955 22.3409C17.2955 22.9697 17.1307 23.5379 16.8011 24.0455C16.4754 24.553 15.9981 24.9564 15.3693 25.2557C14.7443 25.5549 13.9848 25.7045 13.0909 25.7045C12.2576 25.7045 11.536 25.5701 10.9261 25.3011C10.3201 25.0322 9.8428 24.6572 9.49432 24.1761C9.14962 23.6951 8.95455 23.1364 8.90909 22.5H10.3636C10.4015 22.9394 10.5492 23.303 10.8068 23.5909C11.0682 23.875 11.3977 24.0871 11.7955 24.2273C12.197 24.3636 12.6288 24.4318 13.0909 24.4318C13.6288 24.4318 14.1117 24.3447 14.5398 24.1705C14.9678 23.9924 15.3068 23.7462 15.5568 23.4318C15.8068 23.1136 15.9318 22.7424 15.9318 22.3182C15.9318 21.9318 15.8239 21.6174 15.608 21.375C15.392 21.1326 15.108 20.9356 14.7557 20.7841C14.4034 20.6326 14.0227 20.5 13.6136 20.3864L12.1818 19.9773C11.2727 19.7159 10.553 19.3428 10.0227 18.858C9.49242 18.3731 9.22727 17.7386 9.22727 16.9545C9.22727 16.303 9.40341 15.7348 9.75568 15.25C10.1117 14.7614 10.589 14.3826 11.1875 14.1136C11.7898 13.8409 12.4621 13.7045 13.2045 13.7045C13.9545 13.7045 14.6212 13.839 15.2045 14.108C15.7879 14.3731 16.25 14.7367 16.5909 15.1989C16.9356 15.661 17.1174 16.1856 17.1364 16.7727H15.7727ZM23.0895 25.6818C22.2486 25.6818 21.5232 25.4962 20.9134 25.125C20.3073 24.75 19.8395 24.2273 19.5099 23.5568C19.1842 22.8826 19.0213 22.0985 19.0213 21.2045C19.0213 20.3106 19.1842 19.5227 19.5099 18.8409C19.8395 18.1553 20.2978 17.6212 20.8849 17.2386C21.4759 16.8523 22.1652 16.6591 22.9531 16.6591C23.4077 16.6591 23.8565 16.7348 24.2997 16.8864C24.7429 17.0379 25.1463 17.2841 25.5099 17.625C25.8736 17.9621 26.1634 18.4091 26.3793 18.9659C26.5952 19.5227 26.7031 20.2083 26.7031 21.0227V21.5909H19.9759V20.4318H25.3395C25.3395 19.9394 25.241 19.5 25.044 19.1136C24.8509 18.7273 24.5743 18.4223 24.2145 18.1989C23.8584 17.9754 23.438 17.8636 22.9531 17.8636C22.419 17.8636 21.9569 17.9962 21.5668 18.2614C21.1804 18.5227 20.883 18.8636 20.6747 19.2841C20.4664 19.7045 20.3622 20.1553 20.3622 20.6364V21.4091C20.3622 22.0682 20.4759 22.6269 20.7031 23.0852C20.9342 23.5398 21.2543 23.8864 21.6634 24.125C22.0724 24.3598 22.5478 24.4773 23.0895 24.4773C23.4418 24.4773 23.7599 24.428 24.044 24.3295C24.3319 24.2273 24.58 24.0758 24.7884 23.875C24.9967 23.6705 25.1577 23.4167 25.2713 23.1136L26.5668 23.4773C26.4304 23.9167 26.2012 24.303 25.8793 24.6364C25.5573 24.9659 25.1596 25.2235 24.6861 25.4091C24.2126 25.5909 23.6804 25.6818 23.0895 25.6818ZM31.3111 25.7045C30.758 25.7045 30.2562 25.6004 29.8054 25.392C29.3546 25.1799 28.9967 24.875 28.7315 24.4773C28.4664 24.0758 28.3338 23.5909 28.3338 23.0227C28.3338 22.5227 28.4323 22.1174 28.6293 21.8068C28.8262 21.4924 29.0895 21.2462 29.419 21.0682C29.7486 20.8902 30.1122 20.7576 30.5099 20.6705C30.9115 20.5795 31.3149 20.5076 31.7202 20.4545C32.2505 20.3864 32.6804 20.3352 33.0099 20.3011C33.3433 20.2633 33.5857 20.2008 33.7372 20.1136C33.8925 20.0265 33.9702 19.875 33.9702 19.6591V19.6136C33.9702 19.053 33.8168 18.6174 33.5099 18.3068C33.2069 17.9962 32.7467 17.8409 32.1293 17.8409C31.4891 17.8409 30.9872 17.9811 30.6236 18.2614C30.2599 18.5417 30.0043 18.8409 29.8565 19.1591L28.5838 18.7045C28.8111 18.1742 29.1141 17.7614 29.4929 17.4659C29.8755 17.1667 30.2921 16.9583 30.7429 16.8409C31.1974 16.7197 31.6444 16.6591 32.0838 16.6591C32.3641 16.6591 32.6861 16.6932 33.0497 16.7614C33.4171 16.8258 33.7713 16.9602 34.1122 17.1648C34.4569 17.3693 34.7429 17.678 34.9702 18.0909C35.1974 18.5038 35.3111 19.0568 35.3111 19.75V25.5H33.9702V24.3182H33.902C33.8111 24.5076 33.6596 24.7102 33.4474 24.9261C33.2353 25.142 32.9531 25.3258 32.6009 25.4773C32.2486 25.6288 31.8187 25.7045 31.3111 25.7045ZM31.5156 24.5C32.0459 24.5 32.4929 24.3958 32.8565 24.1875C33.224 23.9792 33.5005 23.7102 33.6861 23.3807C33.8755 23.0511 33.9702 22.7045 33.9702 22.3409V21.1136C33.9134 21.1818 33.7884 21.2443 33.5952 21.3011C33.4058 21.3542 33.1861 21.4015 32.9361 21.4432C32.6899 21.4811 32.4493 21.5152 32.2145 21.5455C31.9834 21.572 31.7959 21.5947 31.652 21.6136C31.3035 21.6591 30.9777 21.733 30.6747 21.8352C30.3755 21.9337 30.133 22.0833 29.9474 22.2841C29.7656 22.4811 29.6747 22.75 29.6747 23.0909C29.6747 23.5568 29.8471 23.9091 30.1918 24.1477C30.5402 24.3826 30.9815 24.5 31.5156 24.5ZM37.7585 25.5V16.7727H39.054V18.0909H39.1449C39.304 17.6591 39.5919 17.3087 40.0085 17.0398C40.4252 16.7708 40.8949 16.6364 41.4176 16.6364C41.5161 16.6364 41.6392 16.6383 41.7869 16.642C41.9347 16.6458 42.0464 16.6515 42.1222 16.6591V18.0227C42.0767 18.0114 41.9725 17.9943 41.8097 17.9716C41.6506 17.9451 41.482 17.9318 41.304 17.9318C40.8797 17.9318 40.5009 18.0208 40.1676 18.1989C39.8381 18.3731 39.5767 18.6155 39.3835 18.9261C39.1941 19.233 39.0994 19.5833 39.0994 19.9773V25.5H37.7585ZM46.9915 25.6818C46.1733 25.6818 45.4688 25.4886 44.8778 25.1023C44.2869 24.7159 43.8324 24.1837 43.5142 23.5057C43.196 22.8277 43.0369 22.053 43.0369 21.1818C43.0369 20.2955 43.1998 19.5133 43.5256 18.8352C43.8551 18.1534 44.3134 17.6212 44.9006 17.2386C45.4915 16.8523 46.1809 16.6591 46.9688 16.6591C47.5824 16.6591 48.1354 16.7727 48.6278 17C49.1203 17.2273 49.5237 17.5455 49.8381 17.9545C50.1525 18.3636 50.3475 18.8409 50.4233 19.3864H49.0824C48.9801 18.9886 48.7528 18.6364 48.4006 18.3295C48.0521 18.0189 47.5824 17.8636 46.9915 17.8636C46.4688 17.8636 46.0104 18 45.6165 18.2727C45.2263 18.5417 44.9214 18.9223 44.7017 19.4148C44.4858 19.9034 44.3778 20.4773 44.3778 21.1364C44.3778 21.8106 44.4839 22.3977 44.696 22.8977C44.9119 23.3977 45.215 23.786 45.6051 24.0625C45.9991 24.339 46.4612 24.4773 46.9915 24.4773C47.34 24.4773 47.6562 24.4167 47.9403 24.2955C48.2244 24.1742 48.465 24 48.6619 23.7727C48.8589 23.5455 48.9991 23.2727 49.0824 22.9545H50.4233C50.3475 23.4697 50.16 23.9337 49.8608 24.3466C49.5653 24.7557 49.1733 25.0814 48.6847 25.3239C48.1998 25.5625 47.6354 25.6818 46.9915 25.6818ZM53.7244 20.25V25.5H52.3835V13.8636H53.7244V18.1364H53.8381C54.0426 17.6856 54.3494 17.3277 54.7585 17.0625C55.1714 16.7936 55.7206 16.6591 56.4062 16.6591C57.0009 16.6591 57.5218 16.7784 57.9688 17.017C58.4157 17.2519 58.7623 17.6136 59.0085 18.1023C59.2585 18.5871 59.3835 19.2045 59.3835 19.9545V25.5H58.0426V20.0455C58.0426 19.3523 57.8627 18.8163 57.5028 18.4375C57.1468 18.0549 56.6525 17.8636 56.0199 17.8636C55.5805 17.8636 55.1866 17.9564 54.8381 18.142C54.4934 18.3277 54.2206 18.5985 54.0199 18.9545C53.8229 19.3106 53.7244 19.7424 53.7244 20.25Z" fill="#797979"/>
<path d="M181 25L185 29" stroke="#797979" stroke-width="1.5" stroke-linecap="round" stroke-linejoin="round"/>
<path d="M167 19C167 23.4183 170.582 27 175 27C177.213 27 179.216 26.1015 180.664 24.6493C182.108 23.2022 183 21.2053 183 19C183 14.5817 179.418 11 175 11C170.582 11 167 14.5817 167 19Z" stroke="#797979" stroke-width="1.5" stroke-linecap="round" stroke-linejoin="round"/>
</svg>
