<svg width="1115" height="56" viewBox="0 0 1115 56" fill="none" xmlns="http://www.w3.org/2000/svg">
<rect x="0.5" y="7.5" width="195" height="39" rx="7.5" fill="white"/>
<rect x="0.5" y="7.5" width="195" height="39" rx="7.5" stroke="#E9E9E9"/>
<path d="M15.7727 23.7727C15.7045 23.197 15.428 22.75 14.9432 22.4318C14.4583 22.1136 13.8636 21.9545 13.1591 21.9545C12.6439 21.9545 12.1932 22.0379 11.8068 22.2045C11.4242 22.3712 11.125 22.6004 10.9091 22.892C10.697 23.1837 10.5909 23.5152 10.5909 23.8864C10.5909 24.197 10.6648 24.464 10.8125 24.6875C10.964 24.9072 11.1572 25.0909 11.392 25.2386C11.6269 25.3826 11.8731 25.5019 12.1307 25.5966C12.3883 25.6875 12.625 25.7614 12.8409 25.8182L14.0227 26.1364C14.3258 26.2159 14.6629 26.3258 15.0341 26.4659C15.4091 26.6061 15.767 26.7973 16.108 27.0398C16.4527 27.2784 16.7367 27.5852 16.9602 27.9602C17.1837 28.3352 17.2955 28.7955 17.2955 29.3409C17.2955 29.9697 17.1307 30.5379 16.8011 31.0455C16.4754 31.553 15.9981 31.9564 15.3693 32.2557C14.7443 32.5549 13.9848 32.7045 13.0909 32.7045C12.2576 32.7045 11.536 32.5701 10.9261 32.3011C10.3201 32.0322 9.8428 31.6572 9.49432 31.1761C9.14962 30.6951 8.95455 30.1364 8.90909 29.5H10.3636C10.4015 29.9394 10.5492 30.303 10.8068 30.5909C11.0682 30.875 11.3977 31.0871 11.7955 31.2273C12.197 31.3636 12.6288 31.4318 13.0909 31.4318C13.6288 31.4318 14.1117 31.3447 14.5398 31.1705C14.9678 30.9924 15.3068 30.7462 15.5568 30.4318C15.8068 30.1136 15.9318 29.7424 15.9318 29.3182C15.9318 28.9318 15.8239 28.6174 15.608 28.375C15.392 28.1326 15.108 27.9356 14.7557 27.7841C14.4034 27.6326 14.0227 27.5 13.6136 27.3864L12.1818 26.9773C11.2727 26.7159 10.553 26.3428 10.0227 25.858C9.49242 25.3731 9.22727 24.7386 9.22727 23.9545C9.22727 23.303 9.40341 22.7348 9.75568 22.25C10.1117 21.7614 10.589 21.3826 11.1875 21.1136C11.7898 20.8409 12.4621 20.7045 13.2045 20.7045C13.9545 20.7045 14.6212 20.839 15.2045 21.108C15.7879 21.3731 16.25 21.7367 16.5909 22.1989C16.9356 22.661 17.1174 23.1856 17.1364 23.7727H15.7727ZM23.0895 32.6818C22.2486 32.6818 21.5232 32.4962 20.9134 32.125C20.3073 31.75 19.8395 31.2273 19.5099 30.5568C19.1842 29.8826 19.0213 29.0985 19.0213 28.2045C19.0213 27.3106 19.1842 26.5227 19.5099 25.8409C19.8395 25.1553 20.2978 24.6212 20.8849 24.2386C21.4759 23.8523 22.1652 23.6591 22.9531 23.6591C23.4077 23.6591 23.8565 23.7348 24.2997 23.8864C24.7429 24.0379 25.1463 24.2841 25.5099 24.625C25.8736 24.9621 26.1634 25.4091 26.3793 25.9659C26.5952 26.5227 26.7031 27.2083 26.7031 28.0227V28.5909H19.9759V27.4318H25.3395C25.3395 26.9394 25.241 26.5 25.044 26.1136C24.8509 25.7273 24.5743 25.4223 24.2145 25.1989C23.8584 24.9754 23.438 24.8636 22.9531 24.8636C22.419 24.8636 21.9569 24.9962 21.5668 25.2614C21.1804 25.5227 20.883 25.8636 20.6747 26.2841C20.4664 26.7045 20.3622 27.1553 20.3622 27.6364V28.4091C20.3622 29.0682 20.4759 29.6269 20.7031 30.0852C20.9342 30.5398 21.2543 30.8864 21.6634 31.125C22.0724 31.3598 22.5478 31.4773 23.0895 31.4773C23.4418 31.4773 23.7599 31.428 24.044 31.3295C24.3319 31.2273 24.58 31.0758 24.7884 30.875C24.9967 30.6705 25.1577 30.4167 25.2713 30.1136L26.5668 30.4773C26.4304 30.9167 26.2012 31.303 25.8793 31.6364C25.5573 31.9659 25.1596 32.2235 24.6861 32.4091C24.2126 32.5909 23.6804 32.6818 23.0895 32.6818ZM31.3111 32.7045C30.758 32.7045 30.2562 32.6004 29.8054 32.392C29.3546 32.1799 28.9967 31.875 28.7315 31.4773C28.4664 31.0758 28.3338 30.5909 28.3338 30.0227C28.3338 29.5227 28.4323 29.1174 28.6293 28.8068C28.8262 28.4924 29.0895 28.2462 29.419 28.0682C29.7486 27.8902 30.1122 27.7576 30.5099 27.6705C30.9115 27.5795 31.3149 27.5076 31.7202 27.4545C32.2505 27.3864 32.6804 27.3352 33.0099 27.3011C33.3433 27.2633 33.5857 27.2008 33.7372 27.1136C33.8925 27.0265 33.9702 26.875 33.9702 26.6591V26.6136C33.9702 26.053 33.8168 25.6174 33.5099 25.3068C33.2069 24.9962 32.7467 24.8409 32.1293 24.8409C31.4891 24.8409 30.9872 24.9811 30.6236 25.2614C30.2599 25.5417 30.0043 25.8409 29.8565 26.1591L28.5838 25.7045C28.8111 25.1742 29.1141 24.7614 29.4929 24.4659C29.8755 24.1667 30.2921 23.9583 30.7429 23.8409C31.1974 23.7197 31.6444 23.6591 32.0838 23.6591C32.3641 23.6591 32.6861 23.6932 33.0497 23.7614C33.4171 23.8258 33.7713 23.9602 34.1122 24.1648C34.4569 24.3693 34.7429 24.678 34.9702 25.0909C35.1974 25.5038 35.3111 26.0568 35.3111 26.75V32.5H33.9702V31.3182H33.902C33.8111 31.5076 33.6596 31.7102 33.4474 31.9261C33.2353 32.142 32.9531 32.3258 32.6009 32.4773C32.2486 32.6288 31.8187 32.7045 31.3111 32.7045ZM31.5156 31.5C32.0459 31.5 32.4929 31.3958 32.8565 31.1875C33.224 30.9792 33.5005 30.7102 33.6861 30.3807C33.8755 30.0511 33.9702 29.7045 33.9702 29.3409V28.1136C33.9134 28.1818 33.7884 28.2443 33.5952 28.3011C33.4058 28.3542 33.1861 28.4015 32.9361 28.4432C32.6899 28.4811 32.4493 28.5152 32.2145 28.5455C31.9834 28.572 31.7959 28.5947 31.652 28.6136C31.3035 28.6591 30.9777 28.733 30.6747 28.8352C30.3755 28.9337 30.133 29.0833 29.9474 29.2841C29.7656 29.4811 29.6747 29.75 29.6747 30.0909C29.6747 30.5568 29.8471 30.9091 30.1918 31.1477C30.5402 31.3826 30.9815 31.5 31.5156 31.5ZM37.7585 32.5V23.7727H39.054V25.0909H39.1449C39.304 24.6591 39.5919 24.3087 40.0085 24.0398C40.4252 23.7708 40.8949 23.6364 41.4176 23.6364C41.5161 23.6364 41.6392 23.6383 41.7869 23.642C41.9347 23.6458 42.0464 23.6515 42.1222 23.6591V25.0227C42.0767 25.0114 41.9725 24.9943 41.8097 24.9716C41.6506 24.9451 41.482 24.9318 41.304 24.9318C40.8797 24.9318 40.5009 25.0208 40.1676 25.1989C39.8381 25.3731 39.5767 25.6155 39.3835 25.9261C39.1941 26.233 39.0994 26.5833 39.0994 26.9773V32.5H37.7585ZM46.9915 32.6818C46.1733 32.6818 45.4688 32.4886 44.8778 32.1023C44.2869 31.7159 43.8324 31.1837 43.5142 30.5057C43.196 29.8277 43.0369 29.053 43.0369 28.1818C43.0369 27.2955 43.1998 26.5133 43.5256 25.8352C43.8551 25.1534 44.3134 24.6212 44.9006 24.2386C45.4915 23.8523 46.1809 23.6591 46.9688 23.6591C47.5824 23.6591 48.1354 23.7727 48.6278 24C49.1203 24.2273 49.5237 24.5455 49.8381 24.9545C50.1525 25.3636 50.3475 25.8409 50.4233 26.3864H49.0824C48.9801 25.9886 48.7528 25.6364 48.4006 25.3295C48.0521 25.0189 47.5824 24.8636 46.9915 24.8636C46.4688 24.8636 46.0104 25 45.6165 25.2727C45.2263 25.5417 44.9214 25.9223 44.7017 26.4148C44.4858 26.9034 44.3778 27.4773 44.3778 28.1364C44.3778 28.8106 44.4839 29.3977 44.696 29.8977C44.9119 30.3977 45.215 30.786 45.6051 31.0625C45.9991 31.339 46.4612 31.4773 46.9915 31.4773C47.34 31.4773 47.6562 31.4167 47.9403 31.2955C48.2244 31.1742 48.465 31 48.6619 30.7727C48.8589 30.5455 48.9991 30.2727 49.0824 29.9545H50.4233C50.3475 30.4697 50.16 30.9337 49.8608 31.3466C49.5653 31.7557 49.1733 32.0814 48.6847 32.3239C48.1998 32.5625 47.6354 32.6818 46.9915 32.6818ZM53.7244 27.25V32.5H52.3835V20.8636H53.7244V25.1364H53.8381C54.0426 24.6856 54.3494 24.3277 54.7585 24.0625C55.1714 23.7936 55.7206 23.6591 56.4062 23.6591C57.0009 23.6591 57.5218 23.7784 57.9688 24.017C58.4157 24.2519 58.7623 24.6136 59.0085 25.1023C59.2585 25.5871 59.3835 26.2045 59.3835 26.9545V32.5H58.0426V27.0455C58.0426 26.3523 57.8627 25.8163 57.5028 25.4375C57.1468 25.0549 56.6525 24.8636 56.0199 24.8636C55.5805 24.8636 55.1866 24.9564 54.8381 25.142C54.4934 25.3277 54.2206 25.5985 54.0199 25.9545C53.8229 26.3106 53.7244 26.7424 53.7244 27.25Z" fill="#797979"/>
<path d="M181 32L185 36" stroke="#797979" stroke-width="1.5" stroke-linecap="round" stroke-linejoin="round"/>
<path d="M167 26C167 30.4183 170.582 34 175 34C177.213 34 179.216 33.1015 180.664 31.6493C182.108 30.2022 183 28.2053 183 26C183 21.5817 179.418 18 175 18C170.582 18 167 21.5817 167 26Z" stroke="#797979" stroke-width="1.5" stroke-linecap="round" stroke-linejoin="round"/>
<rect x="414" y="7" width="162" height="40" rx="4" fill="#F4F4F4"/>
<path d="M432.773 24.5H431.364C431.28 24.0947 431.134 23.7386 430.926 23.4318C430.722 23.125 430.472 22.8674 430.176 22.6591C429.884 22.447 429.561 22.2879 429.205 22.1818C428.848 22.0758 428.477 22.0227 428.091 22.0227C427.386 22.0227 426.748 22.2008 426.176 22.5568C425.608 22.9129 425.155 23.4375 424.818 24.1307C424.485 24.8239 424.318 25.6742 424.318 26.6818C424.318 27.6894 424.485 28.5398 424.818 29.233C425.155 29.9261 425.608 30.4508 426.176 30.8068C426.748 31.1629 427.386 31.3409 428.091 31.3409C428.477 31.3409 428.848 31.2879 429.205 31.1818C429.561 31.0758 429.884 30.9186 430.176 30.7102C430.472 30.4981 430.722 30.2386 430.926 29.9318C431.134 29.6212 431.28 29.2652 431.364 28.8636H432.773C432.667 29.4583 432.473 29.9905 432.193 30.4602C431.913 30.9299 431.564 31.3295 431.148 31.6591C430.731 31.9848 430.263 32.233 429.744 32.4034C429.229 32.5739 428.678 32.6591 428.091 32.6591C427.098 32.6591 426.216 32.4167 425.443 31.9318C424.67 31.447 424.063 30.7576 423.619 29.8636C423.176 28.9697 422.955 27.9091 422.955 26.6818C422.955 25.4545 423.176 24.3939 423.619 23.5C424.063 22.6061 424.67 21.9167 425.443 21.4318C426.216 20.947 427.098 20.7045 428.091 20.7045C428.678 20.7045 429.229 20.7898 429.744 20.9602C430.263 21.1307 430.731 21.3807 431.148 21.7102C431.564 22.036 431.913 22.4337 432.193 22.9034C432.473 23.3693 432.667 23.9015 432.773 24.5ZM437.436 32.7045C436.883 32.7045 436.381 32.6004 435.93 32.392C435.48 32.1799 435.122 31.875 434.857 31.4773C434.591 31.0758 434.459 30.5909 434.459 30.0227C434.459 29.5227 434.557 29.1174 434.754 28.8068C434.951 28.4924 435.214 28.2462 435.544 28.0682C435.874 27.8902 436.237 27.7576 436.635 27.6705C437.036 27.5795 437.44 27.5076 437.845 27.4545C438.375 27.3864 438.805 27.3352 439.135 27.3011C439.468 27.2633 439.711 27.2008 439.862 27.1136C440.018 27.0265 440.095 26.875 440.095 26.6591V26.6136C440.095 26.053 439.942 25.6174 439.635 25.3068C439.332 24.9962 438.872 24.8409 438.254 24.8409C437.614 24.8409 437.112 24.9811 436.749 25.2614C436.385 25.5417 436.129 25.8409 435.982 26.1591L434.709 25.7045C434.936 25.1742 435.239 24.7614 435.618 24.4659C436 24.1667 436.417 23.9583 436.868 23.8409C437.322 23.7197 437.769 23.6591 438.209 23.6591C438.489 23.6591 438.811 23.6932 439.175 23.7614C439.542 23.8258 439.896 23.9602 440.237 24.1648C440.582 24.3693 440.868 24.678 441.095 25.0909C441.322 25.5038 441.436 26.0568 441.436 26.75V32.5H440.095V31.3182H440.027C439.936 31.5076 439.785 31.7102 439.572 31.9261C439.36 32.142 439.078 32.3258 438.726 32.4773C438.374 32.6288 437.944 32.7045 437.436 32.7045ZM437.641 31.5C438.171 31.5 438.618 31.3958 438.982 31.1875C439.349 30.9792 439.625 30.7102 439.811 30.3807C440 30.0511 440.095 29.7045 440.095 29.3409V28.1136C440.038 28.1818 439.913 28.2443 439.72 28.3011C439.531 28.3542 439.311 28.4015 439.061 28.4432C438.815 28.4811 438.574 28.5152 438.339 28.5455C438.108 28.572 437.921 28.5947 437.777 28.6136C437.429 28.6591 437.103 28.733 436.8 28.8352C436.5 28.9337 436.258 29.0833 436.072 29.2841C435.891 29.4811 435.8 29.75 435.8 30.0909C435.8 30.5568 435.972 30.9091 436.317 31.1477C436.665 31.3826 437.107 31.5 437.641 31.5ZM445.224 20.8636V32.5H443.884V20.8636H445.224ZM451.339 32.6818C450.499 32.6818 449.773 32.4962 449.163 32.125C448.557 31.75 448.089 31.2273 447.76 30.5568C447.434 29.8826 447.271 29.0985 447.271 28.2045C447.271 27.3106 447.434 26.5227 447.76 25.8409C448.089 25.1553 448.548 24.6212 449.135 24.2386C449.726 23.8523 450.415 23.6591 451.203 23.6591C451.658 23.6591 452.107 23.7348 452.55 23.8864C452.993 24.0379 453.396 24.2841 453.76 24.625C454.124 24.9621 454.413 25.4091 454.629 25.9659C454.845 26.5227 454.953 27.2083 454.953 28.0227V28.5909H448.226V27.4318H453.589C453.589 26.9394 453.491 26.5 453.294 26.1136C453.101 25.7273 452.824 25.4223 452.464 25.1989C452.108 24.9754 451.688 24.8636 451.203 24.8636C450.669 24.8636 450.207 24.9962 449.817 25.2614C449.43 25.5227 449.133 25.8636 448.925 26.2841C448.716 26.7045 448.612 27.1553 448.612 27.6364V28.4091C448.612 29.0682 448.726 29.6269 448.953 30.0852C449.184 30.5398 449.504 30.8864 449.913 31.125C450.322 31.3598 450.798 31.4773 451.339 31.4773C451.692 31.4773 452.01 31.428 452.294 31.3295C452.582 31.2273 452.83 31.0758 453.038 30.875C453.247 30.6705 453.408 30.4167 453.521 30.1136L454.817 30.4773C454.68 30.9167 454.451 31.303 454.129 31.6364C453.807 31.9659 453.41 32.2235 452.936 32.4091C452.463 32.5909 451.93 32.6818 451.339 32.6818ZM458.334 27.25V32.5H456.993V23.7727H458.288V25.1364H458.402C458.607 24.6932 458.917 24.3371 459.334 24.0682C459.75 23.7955 460.288 23.6591 460.947 23.6591C461.538 23.6591 462.055 23.7803 462.499 24.0227C462.942 24.2614 463.286 24.625 463.533 25.1136C463.779 25.5985 463.902 26.2121 463.902 26.9545V32.5H462.561V27.0455C462.561 26.3598 462.383 25.8258 462.027 25.4432C461.671 25.0568 461.182 24.8636 460.561 24.8636C460.133 24.8636 459.75 24.9564 459.413 25.142C459.08 25.3277 458.817 25.5985 458.624 25.9545C458.43 26.3106 458.334 26.7424 458.334 27.25ZM469.648 32.6818C468.92 32.6818 468.278 32.4981 467.722 32.1307C467.165 31.7595 466.729 31.2367 466.415 30.5625C466.1 29.8845 465.943 29.0833 465.943 28.1591C465.943 27.2424 466.1 26.447 466.415 25.7727C466.729 25.0985 467.167 24.5777 467.727 24.2102C468.288 23.8428 468.936 23.6591 469.67 23.6591C470.239 23.6591 470.688 23.7538 471.017 23.9432C471.35 24.1288 471.604 24.3409 471.778 24.5795C471.956 24.8144 472.095 25.0076 472.193 25.1591H472.307V20.8636H473.648V32.5H472.352V31.1591H472.193C472.095 31.3182 471.955 31.5189 471.773 31.7614C471.591 32 471.331 32.214 470.994 32.4034C470.657 32.589 470.208 32.6818 469.648 32.6818ZM469.83 31.4773C470.367 31.4773 470.822 31.3371 471.193 31.0568C471.564 30.7727 471.847 30.3807 472.04 29.8807C472.233 29.3769 472.33 28.7955 472.33 28.1364C472.33 27.4848 472.235 26.9148 472.045 26.4261C471.856 25.9337 471.576 25.5511 471.205 25.2784C470.833 25.0019 470.375 24.8636 469.83 24.8636C469.261 24.8636 468.788 25.0095 468.409 25.3011C468.034 25.589 467.752 25.9811 467.562 26.4773C467.377 26.9697 467.284 27.5227 467.284 28.1364C467.284 28.7576 467.379 29.322 467.568 29.8295C467.761 30.3333 468.045 30.7348 468.42 31.0341C468.799 31.3295 469.269 31.4773 469.83 31.4773ZM478.858 32.7045C478.305 32.7045 477.803 32.6004 477.352 32.392C476.902 32.1799 476.544 31.875 476.278 31.4773C476.013 31.0758 475.881 30.5909 475.881 30.0227C475.881 29.5227 475.979 29.1174 476.176 28.8068C476.373 28.4924 476.636 28.2462 476.966 28.0682C477.295 27.8902 477.659 27.7576 478.057 27.6705C478.458 27.5795 478.862 27.5076 479.267 27.4545C479.797 27.3864 480.227 27.3352 480.557 27.3011C480.89 27.2633 481.133 27.2008 481.284 27.1136C481.439 27.0265 481.517 26.875 481.517 26.6591V26.6136C481.517 26.053 481.364 25.6174 481.057 25.3068C480.754 24.9962 480.294 24.8409 479.676 24.8409C479.036 24.8409 478.534 24.9811 478.17 25.2614C477.807 25.5417 477.551 25.8409 477.403 26.1591L476.131 25.7045C476.358 25.1742 476.661 24.7614 477.04 24.4659C477.422 24.1667 477.839 23.9583 478.29 23.8409C478.744 23.7197 479.191 23.6591 479.631 23.6591C479.911 23.6591 480.233 23.6932 480.597 23.7614C480.964 23.8258 481.318 23.9602 481.659 24.1648C482.004 24.3693 482.29 24.678 482.517 25.0909C482.744 25.5038 482.858 26.0568 482.858 26.75V32.5H481.517V31.3182H481.449C481.358 31.5076 481.206 31.7102 480.994 31.9261C480.782 32.142 480.5 32.3258 480.148 32.4773C479.795 32.6288 479.366 32.7045 478.858 32.7045ZM479.062 31.5C479.593 31.5 480.04 31.3958 480.403 31.1875C480.771 30.9792 481.047 30.7102 481.233 30.3807C481.422 30.0511 481.517 29.7045 481.517 29.3409V28.1136C481.46 28.1818 481.335 28.2443 481.142 28.3011C480.953 28.3542 480.733 28.4015 480.483 28.4432C480.237 28.4811 479.996 28.5152 479.761 28.5455C479.53 28.572 479.343 28.5947 479.199 28.6136C478.85 28.6591 478.525 28.733 478.222 28.8352C477.922 28.9337 477.68 29.0833 477.494 29.2841C477.313 29.4811 477.222 29.75 477.222 30.0909C477.222 30.5568 477.394 30.9091 477.739 31.1477C478.087 31.3826 478.528 31.5 479.062 31.5ZM485.305 32.5V23.7727H486.601V25.0909H486.692C486.851 24.6591 487.139 24.3087 487.555 24.0398C487.972 23.7708 488.442 23.6364 488.964 23.6364C489.063 23.6364 489.186 23.6383 489.334 23.642C489.482 23.6458 489.593 23.6515 489.669 23.6591V25.0227C489.624 25.0114 489.519 24.9943 489.357 24.9716C489.197 24.9451 489.029 24.9318 488.851 24.9318C488.427 24.9318 488.048 25.0208 487.714 25.1989C487.385 25.3731 487.124 25.6155 486.93 25.9261C486.741 26.233 486.646 26.5833 486.646 26.9773V32.5H485.305ZM502.895 23.7727L499.668 32.5H498.304L495.077 23.7727H496.531L498.94 30.7273H499.031L501.44 23.7727H502.895ZM504.665 32.5V23.7727H506.006V32.5H504.665ZM505.347 22.3182C505.085 22.3182 504.86 22.2292 504.67 22.0511C504.485 21.8731 504.392 21.6591 504.392 21.4091C504.392 21.1591 504.485 20.9451 504.67 20.767C504.86 20.589 505.085 20.5 505.347 20.5C505.608 20.5 505.831 20.589 506.017 20.767C506.206 20.9451 506.301 21.1591 506.301 21.4091C506.301 21.6591 506.206 21.8731 506.017 22.0511C505.831 22.2292 505.608 22.3182 505.347 22.3182ZM512.121 32.6818C511.28 32.6818 510.554 32.4962 509.945 32.125C509.339 31.75 508.871 31.2273 508.541 30.5568C508.215 29.8826 508.053 29.0985 508.053 28.2045C508.053 27.3106 508.215 26.5227 508.541 25.8409C508.871 25.1553 509.329 24.6212 509.916 24.2386C510.507 23.8523 511.196 23.6591 511.984 23.6591C512.439 23.6591 512.888 23.7348 513.331 23.8864C513.774 24.0379 514.178 24.2841 514.541 24.625C514.905 24.9621 515.195 25.4091 515.411 25.9659C515.626 26.5227 515.734 27.2083 515.734 28.0227V28.5909H509.007V27.4318H514.371C514.371 26.9394 514.272 26.5 514.075 26.1136C513.882 25.7273 513.606 25.4223 513.246 25.1989C512.89 24.9754 512.469 24.8636 511.984 24.8636C511.45 24.8636 510.988 24.9962 510.598 25.2614C510.212 25.5227 509.914 25.8636 509.706 26.2841C509.498 26.7045 509.393 27.1553 509.393 27.6364V28.4091C509.393 29.0682 509.507 29.6269 509.734 30.0852C509.965 30.5398 510.286 30.8864 510.695 31.125C511.104 31.3598 511.579 31.4773 512.121 31.4773C512.473 31.4773 512.791 31.428 513.075 31.3295C513.363 31.2273 513.611 31.0758 513.82 30.875C514.028 30.6705 514.189 30.4167 514.303 30.1136L515.598 30.4773C515.462 30.9167 515.232 31.303 514.911 31.6364C514.589 31.9659 514.191 32.2235 513.717 32.4091C513.244 32.5909 512.712 32.6818 512.121 32.6818ZM519.751 32.5L517.092 23.7727H518.501L520.388 30.4545H520.479L522.342 23.7727H523.774L525.615 30.4318H525.706L527.592 23.7727H529.001L526.342 32.5H525.024L523.115 25.7955H522.979L521.07 32.5H519.751Z" fill="#797979"/>
<path d="M559 19V17M559 19V21M559 19H554.5M547 25V34C547 35.1046 547.895 36 549 36H563C564.105 36 565 35.1046 565 34V25H547Z" stroke="#797979" stroke-width="1.5" stroke-linecap="round" stroke-linejoin="round"/>
<path d="M547 25V21C547 19.8954 547.895 19 549 19H551" stroke="#797979" stroke-width="1.5" stroke-linecap="round" stroke-linejoin="round"/>
<path d="M551 17V21" stroke="#797979" stroke-width="1.5" stroke-linecap="round" stroke-linejoin="round"/>
<path d="M565 25V21C565 19.8954 564.105 19 563 19H562.5" stroke="#797979" stroke-width="1.5" stroke-linecap="round" stroke-linejoin="round"/>
<rect x="592" y="7" width="141" height="40" rx="4" fill="#F4F4F4"/>
<path d="M601.886 32.5H600.409L604.682 20.8636H606.136L610.409 32.5H608.932L605.455 22.7045H605.364L601.886 32.5ZM602.432 27.9545H608.386V29.2045H602.432V27.9545ZM617.54 28.9318V23.7727H618.881V32.5H617.54V31.0227H617.449C617.244 31.4659 616.926 31.8428 616.494 32.1534C616.063 32.4602 615.517 32.6136 614.858 32.6136C614.312 32.6136 613.828 32.4943 613.403 32.2557C612.979 32.0133 612.646 31.6496 612.403 31.1648C612.161 30.6761 612.04 30.0606 612.04 29.3182V23.7727H613.381V29.2273C613.381 29.8636 613.559 30.3712 613.915 30.75C614.275 31.1288 614.733 31.3182 615.29 31.3182C615.623 31.3182 615.962 31.233 616.307 31.0625C616.655 30.892 616.947 30.6307 617.182 30.2784C617.42 29.9261 617.54 29.4773 617.54 28.9318ZM625.132 23.7727V24.9091H620.609V23.7727H625.132ZM621.928 21.6818H623.268V30C623.268 30.3788 623.323 30.6629 623.433 30.8523C623.547 31.0379 623.691 31.1629 623.865 31.2273C624.043 31.2879 624.231 31.3182 624.428 31.3182C624.575 31.3182 624.696 31.3106 624.791 31.2955C624.886 31.2765 624.962 31.2614 625.018 31.25L625.291 32.4545C625.2 32.4886 625.073 32.5227 624.911 32.5568C624.748 32.5947 624.541 32.6136 624.291 32.6136C623.912 32.6136 623.541 32.5322 623.178 32.3693C622.818 32.2064 622.518 31.9583 622.28 31.625C622.045 31.2917 621.928 30.8712 621.928 30.3636V21.6818ZM630.601 32.6818C629.813 32.6818 629.122 32.4943 628.527 32.1193C627.936 31.7443 627.474 31.2197 627.141 30.5455C626.811 29.8712 626.646 29.0833 626.646 28.1818C626.646 27.2727 626.811 26.4792 627.141 25.8011C627.474 25.1231 627.936 24.5966 628.527 24.2216C629.122 23.8466 629.813 23.6591 630.601 23.6591C631.389 23.6591 632.078 23.8466 632.669 24.2216C633.264 24.5966 633.726 25.1231 634.055 25.8011C634.389 26.4792 634.555 27.2727 634.555 28.1818C634.555 29.0833 634.389 29.8712 634.055 30.5455C633.726 31.2197 633.264 31.7443 632.669 32.1193C632.078 32.4943 631.389 32.6818 630.601 32.6818ZM630.601 31.4773C631.199 31.4773 631.692 31.3239 632.078 31.017C632.464 30.7102 632.75 30.3068 632.936 29.8068C633.122 29.3068 633.214 28.7652 633.214 28.1818C633.214 27.5985 633.122 27.0549 632.936 26.5511C632.75 26.0473 632.464 25.6402 632.078 25.3295C631.692 25.0189 631.199 24.8636 630.601 24.8636C630.002 24.8636 629.51 25.0189 629.124 25.3295C628.737 25.6402 628.451 26.0473 628.266 26.5511C628.08 27.0549 627.987 27.5985 627.987 28.1818C627.987 28.7652 628.08 29.3068 628.266 29.8068C628.451 30.3068 628.737 30.7102 629.124 31.017C629.51 31.3239 630.002 31.4773 630.601 31.4773ZM636.602 32.5V23.7727H637.898V25.1364H638.011C638.193 24.6705 638.487 24.3087 638.892 24.0511C639.297 23.7898 639.784 23.6591 640.352 23.6591C640.928 23.6591 641.407 23.7898 641.79 24.0511C642.176 24.3087 642.477 24.6705 642.693 25.1364H642.784C643.008 24.6856 643.343 24.3277 643.79 24.0625C644.237 23.7936 644.773 23.6591 645.398 23.6591C646.178 23.6591 646.816 23.9034 647.312 24.392C647.809 24.8769 648.057 25.6326 648.057 26.6591V32.5H646.716V26.6591C646.716 26.0152 646.54 25.5549 646.188 25.2784C645.835 25.0019 645.42 24.8636 644.943 24.8636C644.33 24.8636 643.854 25.0492 643.517 25.4205C643.18 25.7879 643.011 26.2538 643.011 26.8182V32.5H641.648V26.5227C641.648 26.0265 641.487 25.6269 641.165 25.3239C640.843 25.017 640.428 24.8636 639.92 24.8636C639.572 24.8636 639.246 24.9564 638.943 25.142C638.644 25.3277 638.402 25.5852 638.216 25.9148C638.034 26.2405 637.943 26.6174 637.943 27.0455V32.5H636.602ZM653.077 32.7045C652.524 32.7045 652.022 32.6004 651.571 32.392C651.12 32.1799 650.762 31.875 650.497 31.4773C650.232 31.0758 650.099 30.5909 650.099 30.0227C650.099 29.5227 650.198 29.1174 650.395 28.8068C650.592 28.4924 650.855 28.2462 651.185 28.0682C651.514 27.8902 651.878 27.7576 652.276 27.6705C652.677 27.5795 653.08 27.5076 653.486 27.4545C654.016 27.3864 654.446 27.3352 654.776 27.3011C655.109 27.2633 655.351 27.2008 655.503 27.1136C655.658 27.0265 655.736 26.875 655.736 26.6591V26.6136C655.736 26.053 655.582 25.6174 655.276 25.3068C654.973 24.9962 654.512 24.8409 653.895 24.8409C653.255 24.8409 652.753 24.9811 652.389 25.2614C652.026 25.5417 651.77 25.8409 651.622 26.1591L650.349 25.7045C650.577 25.1742 650.88 24.7614 651.259 24.4659C651.641 24.1667 652.058 23.9583 652.509 23.8409C652.963 23.7197 653.41 23.6591 653.849 23.6591C654.13 23.6591 654.452 23.6932 654.815 23.7614C655.183 23.8258 655.537 23.9602 655.878 24.1648C656.223 24.3693 656.509 24.678 656.736 25.0909C656.963 25.5038 657.077 26.0568 657.077 26.75V32.5H655.736V31.3182H655.668C655.577 31.5076 655.425 31.7102 655.213 31.9261C655.001 32.142 654.719 32.3258 654.366 32.4773C654.014 32.6288 653.584 32.7045 653.077 32.7045ZM653.281 31.5C653.812 31.5 654.259 31.3958 654.622 31.1875C654.99 30.9792 655.266 30.7102 655.452 30.3807C655.641 30.0511 655.736 29.7045 655.736 29.3409V28.1136C655.679 28.1818 655.554 28.2443 655.361 28.3011C655.171 28.3542 654.952 28.4015 654.702 28.4432C654.455 28.4811 654.215 28.5152 653.98 28.5455C653.749 28.572 653.562 28.5947 653.418 28.6136C653.069 28.6591 652.743 28.733 652.44 28.8352C652.141 28.9337 651.899 29.0833 651.713 29.2841C651.531 29.4811 651.44 29.75 651.44 30.0909C651.44 30.5568 651.613 30.9091 651.957 31.1477C652.306 31.3826 652.747 31.5 653.281 31.5ZM663.32 23.7727V24.9091H658.797V23.7727H663.32ZM660.115 21.6818H661.456V30C661.456 30.3788 661.511 30.6629 661.621 30.8523C661.734 31.0379 661.878 31.1629 662.053 31.2273C662.231 31.2879 662.418 31.3182 662.615 31.3182C662.763 31.3182 662.884 31.3106 662.979 31.2955C663.073 31.2765 663.149 31.2614 663.206 31.25L663.479 32.4545C663.388 32.4886 663.261 32.5227 663.098 32.5568C662.935 32.5947 662.729 32.6136 662.479 32.6136C662.1 32.6136 661.729 32.5322 661.365 32.3693C661.005 32.2064 660.706 31.9583 660.467 31.625C660.232 31.2917 660.115 30.8712 660.115 30.3636V21.6818ZM665.337 32.5V23.7727H666.678V32.5H665.337ZM666.018 22.3182C665.757 22.3182 665.532 22.2292 665.342 22.0511C665.157 21.8731 665.064 21.6591 665.064 21.4091C665.064 21.1591 665.157 20.9451 665.342 20.767C665.532 20.589 665.757 20.5 666.018 20.5C666.28 20.5 666.503 20.589 666.689 20.767C666.878 20.9451 666.973 21.1591 666.973 21.4091C666.973 21.6591 666.878 21.8731 666.689 22.0511C666.503 22.2292 666.28 22.3182 666.018 22.3182ZM672.679 32.6818C671.891 32.6818 671.2 32.4943 670.605 32.1193C670.014 31.7443 669.552 31.2197 669.219 30.5455C668.889 29.8712 668.724 29.0833 668.724 28.1818C668.724 27.2727 668.889 26.4792 669.219 25.8011C669.552 25.1231 670.014 24.5966 670.605 24.2216C671.2 23.8466 671.891 23.6591 672.679 23.6591C673.467 23.6591 674.156 23.8466 674.747 24.2216C675.342 24.5966 675.804 25.1231 676.134 25.8011C676.467 26.4792 676.634 27.2727 676.634 28.1818C676.634 29.0833 676.467 29.8712 676.134 30.5455C675.804 31.2197 675.342 31.7443 674.747 32.1193C674.156 32.4943 673.467 32.6818 672.679 32.6818ZM672.679 31.4773C673.277 31.4773 673.77 31.3239 674.156 31.017C674.543 30.7102 674.829 30.3068 675.014 29.8068C675.2 29.3068 675.293 28.7652 675.293 28.1818C675.293 27.5985 675.2 27.0549 675.014 26.5511C674.829 26.0473 674.543 25.6402 674.156 25.3295C673.77 25.0189 673.277 24.8636 672.679 24.8636C672.08 24.8636 671.588 25.0189 671.202 25.3295C670.815 25.6402 670.529 26.0473 670.344 26.5511C670.158 27.0549 670.065 27.5985 670.065 28.1818C670.065 28.7652 670.158 29.3068 670.344 29.8068C670.529 30.3068 670.815 30.7102 671.202 31.017C671.588 31.3239 672.08 31.4773 672.679 31.4773ZM680.021 27.25V32.5H678.68V23.7727H679.976V25.1364H680.089C680.294 24.6932 680.605 24.3371 681.021 24.0682C681.438 23.7955 681.976 23.6591 682.635 23.6591C683.226 23.6591 683.743 23.7803 684.186 24.0227C684.629 24.2614 684.974 24.625 685.22 25.1136C685.466 25.5985 685.589 26.2121 685.589 26.9545V32.5H684.249V27.0455C684.249 26.3598 684.071 25.8258 683.714 25.4432C683.358 25.0568 682.87 24.8636 682.249 24.8636C681.821 24.8636 681.438 24.9564 681.101 25.142C680.768 25.3277 680.504 25.5985 680.311 25.9545C680.118 26.3106 680.021 26.7424 680.021 27.25Z" fill="#797979"/>
<path d="M709 30C713.875 30 716 27.949 716 23C716 27.949 718.11 30 723 30C718.11 30 716 32.1104 716 37C716 32.1104 713.875 30 709 30Z" stroke="#797979" stroke-width="1.5" stroke-linejoin="round"/>
<path d="M703 21.5C706.134 21.5 707.5 20.1815 707.5 17C707.5 20.1815 708.857 21.5 712 21.5C708.857 21.5 707.5 22.8567 707.5 26C707.5 22.8567 706.134 21.5 703 21.5Z" stroke="#797979" stroke-width="1.5" stroke-linejoin="round"/>
<rect x="749" y="7" width="92" height="40" rx="4" fill="#F4F4F4"/>
<path d="M758.409 32.5V20.8636H765.386V22.1136H759.818V26.0455H764.864V27.2955H759.818V32.5H758.409ZM767.618 32.5V23.7727H768.959V32.5H767.618ZM768.3 22.3182C768.038 22.3182 767.813 22.2292 767.624 22.0511C767.438 21.8731 767.345 21.6591 767.345 21.4091C767.345 21.1591 767.438 20.9451 767.624 20.767C767.813 20.589 768.038 20.5 768.3 20.5C768.561 20.5 768.785 20.589 768.97 20.767C769.16 20.9451 769.254 21.1591 769.254 21.4091C769.254 21.6591 769.16 21.8731 768.97 22.0511C768.785 22.2292 768.561 22.3182 768.3 22.3182ZM772.756 20.8636V32.5H771.415V20.8636H772.756ZM779.007 23.7727V24.9091H774.484V23.7727H779.007ZM775.803 21.6818H777.143V30C777.143 30.3788 777.198 30.6629 777.308 30.8523C777.422 31.0379 777.566 31.1629 777.74 31.2273C777.918 31.2879 778.106 31.3182 778.303 31.3182C778.45 31.3182 778.571 31.3106 778.666 31.2955C778.761 31.2765 778.837 31.2614 778.893 31.25L779.166 32.4545C779.075 32.4886 778.948 32.5227 778.786 32.5568C778.623 32.5947 778.416 32.6136 778.166 32.6136C777.787 32.6136 777.416 32.5322 777.053 32.3693C776.693 32.2064 776.393 31.9583 776.155 31.625C775.92 31.2917 775.803 30.8712 775.803 30.3636V21.6818ZM784.589 32.6818C783.749 32.6818 783.023 32.4962 782.413 32.125C781.807 31.75 781.339 31.2273 781.01 30.5568C780.684 29.8826 780.521 29.0985 780.521 28.2045C780.521 27.3106 780.684 26.5227 781.01 25.8409C781.339 25.1553 781.798 24.6212 782.385 24.2386C782.976 23.8523 783.665 23.6591 784.453 23.6591C784.908 23.6591 785.357 23.7348 785.8 23.8864C786.243 24.0379 786.646 24.2841 787.01 24.625C787.374 24.9621 787.663 25.4091 787.879 25.9659C788.095 26.5227 788.203 27.2083 788.203 28.0227V28.5909H781.476V27.4318H786.839C786.839 26.9394 786.741 26.5 786.544 26.1136C786.351 25.7273 786.074 25.4223 785.714 25.1989C785.358 24.9754 784.938 24.8636 784.453 24.8636C783.919 24.8636 783.457 24.9962 783.067 25.2614C782.68 25.5227 782.383 25.8636 782.175 26.2841C781.966 26.7045 781.862 27.1553 781.862 27.6364V28.4091C781.862 29.0682 781.976 29.6269 782.203 30.0852C782.434 30.5398 782.754 30.8864 783.163 31.125C783.572 31.3598 784.048 31.4773 784.589 31.4773C784.942 31.4773 785.26 31.428 785.544 31.3295C785.832 31.2273 786.08 31.0758 786.288 30.875C786.497 30.6705 786.658 30.4167 786.771 30.1136L788.067 30.4773C787.93 30.9167 787.701 31.303 787.379 31.6364C787.057 31.9659 786.66 32.2235 786.186 32.4091C785.713 32.5909 785.18 32.6818 784.589 32.6818ZM790.243 32.5V23.7727H791.538V25.0909H791.629C791.788 24.6591 792.076 24.3087 792.493 24.0398C792.91 23.7708 793.379 23.6364 793.902 23.6364C794 23.6364 794.124 23.6383 794.271 23.642C794.419 23.6458 794.531 23.6515 794.607 23.6591V25.0227C794.561 25.0114 794.457 24.9943 794.294 24.9716C794.135 24.9451 793.966 24.9318 793.788 24.9318C793.364 24.9318 792.985 25.0208 792.652 25.1989C792.322 25.3731 792.061 25.6155 791.868 25.9261C791.679 26.233 791.584 26.5833 791.584 26.9773V32.5H790.243Z" fill="#797979"/>
<path d="M813 18H829C829.552 18 830 18.4476 830 18.9999L830 20.5857C830 20.851 829.895 21.1054 829.707 21.293L823.292 27.7071C823.105 27.8946 823 28.149 823 28.4142V34.7192C823 35.3698 822.388 35.8472 821.757 35.6894L819.757 35.1894C819.312 35.0781 819 34.6781 819 34.2192V28.4142C819 28.149 818.894 27.8946 818.707 27.7071L812.292 21.2929C812.105 21.1054 812 20.851 812 20.5858V19C812 18.4477 812.447 18 813 18Z" stroke="#797979" stroke-width="1.5" stroke-linecap="round" stroke-linejoin="round"/>
<rect x="857" y="7" width="98" height="40" rx="4" fill="#F4F4F4"/>
<path d="M872.773 23.7727C872.705 23.197 872.428 22.75 871.943 22.4318C871.458 22.1136 870.864 21.9545 870.159 21.9545C869.644 21.9545 869.193 22.0379 868.807 22.2045C868.424 22.3712 868.125 22.6004 867.909 22.892C867.697 23.1837 867.591 23.5152 867.591 23.8864C867.591 24.197 867.665 24.464 867.812 24.6875C867.964 24.9072 868.157 25.0909 868.392 25.2386C868.627 25.3826 868.873 25.5019 869.131 25.5966C869.388 25.6875 869.625 25.7614 869.841 25.8182L871.023 26.1364C871.326 26.2159 871.663 26.3258 872.034 26.4659C872.409 26.6061 872.767 26.7973 873.108 27.0398C873.453 27.2784 873.737 27.5852 873.96 27.9602C874.184 28.3352 874.295 28.7955 874.295 29.3409C874.295 29.9697 874.131 30.5379 873.801 31.0455C873.475 31.553 872.998 31.9564 872.369 32.2557C871.744 32.5549 870.985 32.7045 870.091 32.7045C869.258 32.7045 868.536 32.5701 867.926 32.3011C867.32 32.0322 866.843 31.6572 866.494 31.1761C866.15 30.6951 865.955 30.1364 865.909 29.5H867.364C867.402 29.9394 867.549 30.303 867.807 30.5909C868.068 30.875 868.398 31.0871 868.795 31.2273C869.197 31.3636 869.629 31.4318 870.091 31.4318C870.629 31.4318 871.112 31.3447 871.54 31.1705C871.968 30.9924 872.307 30.7462 872.557 30.4318C872.807 30.1136 872.932 29.7424 872.932 29.3182C872.932 28.9318 872.824 28.6174 872.608 28.375C872.392 28.1326 872.108 27.9356 871.756 27.7841C871.403 27.6326 871.023 27.5 870.614 27.3864L869.182 26.9773C868.273 26.7159 867.553 26.3428 867.023 25.858C866.492 25.3731 866.227 24.7386 866.227 23.9545C866.227 23.303 866.403 22.7348 866.756 22.25C867.112 21.7614 867.589 21.3826 868.188 21.1136C868.79 20.8409 869.462 20.7045 870.205 20.7045C870.955 20.7045 871.621 20.839 872.205 21.108C872.788 21.3731 873.25 21.7367 873.591 22.1989C873.936 22.661 874.117 23.1856 874.136 23.7727H872.773ZM877.771 27.25V32.5H876.43V20.8636H877.771V25.1364H877.885C878.089 24.6856 878.396 24.3277 878.805 24.0625C879.218 23.7936 879.768 23.6591 880.453 23.6591C881.048 23.6591 881.569 23.7784 882.016 24.017C882.463 24.2519 882.809 24.6136 883.055 25.1023C883.305 25.5871 883.43 26.2045 883.43 26.9545V32.5H882.089V27.0455C882.089 26.3523 881.91 25.8163 881.55 25.4375C881.194 25.0549 880.699 24.8636 880.067 24.8636C879.627 24.8636 879.233 24.9564 878.885 25.142C878.54 25.3277 878.268 25.5985 878.067 25.9545C877.87 26.3106 877.771 26.7424 877.771 27.25ZM888.452 32.7045C887.899 32.7045 887.397 32.6004 886.946 32.392C886.495 32.1799 886.137 31.875 885.872 31.4773C885.607 31.0758 885.474 30.5909 885.474 30.0227C885.474 29.5227 885.573 29.1174 885.77 28.8068C885.967 28.4924 886.23 28.2462 886.56 28.0682C886.889 27.8902 887.253 27.7576 887.651 27.6705C888.052 27.5795 888.455 27.5076 888.861 27.4545C889.391 27.3864 889.821 27.3352 890.151 27.3011C890.484 27.2633 890.726 27.2008 890.878 27.1136C891.033 27.0265 891.111 26.875 891.111 26.6591V26.6136C891.111 26.053 890.957 25.6174 890.651 25.3068C890.348 24.9962 889.887 24.8409 889.27 24.8409C888.63 24.8409 888.128 24.9811 887.764 25.2614C887.401 25.5417 887.145 25.8409 886.997 26.1591L885.724 25.7045C885.952 25.1742 886.255 24.7614 886.634 24.4659C887.016 24.1667 887.433 23.9583 887.884 23.8409C888.338 23.7197 888.785 23.6591 889.224 23.6591C889.505 23.6591 889.827 23.6932 890.19 23.7614C890.558 23.8258 890.912 23.9602 891.253 24.1648C891.598 24.3693 891.884 24.678 892.111 25.0909C892.338 25.5038 892.452 26.0568 892.452 26.75V32.5H891.111V31.3182H891.043C890.952 31.5076 890.8 31.7102 890.588 31.9261C890.376 32.142 890.094 32.3258 889.741 32.4773C889.389 32.6288 888.959 32.7045 888.452 32.7045ZM888.656 31.5C889.187 31.5 889.634 31.3958 889.997 31.1875C890.365 30.9792 890.641 30.7102 890.827 30.3807C891.016 30.0511 891.111 29.7045 891.111 29.3409V28.1136C891.054 28.1818 890.929 28.2443 890.736 28.3011C890.546 28.3542 890.327 28.4015 890.077 28.4432C889.83 28.4811 889.59 28.5152 889.355 28.5455C889.124 28.572 888.937 28.5947 888.793 28.6136C888.444 28.6591 888.118 28.733 887.815 28.8352C887.516 28.9337 887.274 29.0833 887.088 29.2841C886.906 29.4811 886.815 29.75 886.815 30.0909C886.815 30.5568 886.988 30.9091 887.332 31.1477C887.681 31.3826 888.122 31.5 888.656 31.5ZM894.899 32.5V23.7727H896.195V25.0909H896.286C896.445 24.6591 896.732 24.3087 897.149 24.0398C897.566 23.7708 898.036 23.6364 898.558 23.6364C898.657 23.6364 898.78 23.6383 898.928 23.642C899.075 23.6458 899.187 23.6515 899.263 23.6591V25.0227C899.217 25.0114 899.113 24.9943 898.95 24.9716C898.791 24.9451 898.623 24.9318 898.445 24.9318C898.02 24.9318 897.642 25.0208 897.308 25.1989C896.979 25.3731 896.717 25.6155 896.524 25.9261C896.335 26.233 896.24 26.5833 896.24 26.9773V32.5H894.899ZM904.246 32.6818C903.405 32.6818 902.679 32.4962 902.07 32.125C901.464 31.75 900.996 31.2273 900.666 30.5568C900.34 29.8826 900.178 29.0985 900.178 28.2045C900.178 27.3106 900.34 26.5227 900.666 25.8409C900.996 25.1553 901.454 24.6212 902.041 24.2386C902.632 23.8523 903.321 23.6591 904.109 23.6591C904.564 23.6591 905.013 23.7348 905.456 23.8864C905.899 24.0379 906.303 24.2841 906.666 24.625C907.03 24.9621 907.32 25.4091 907.536 25.9659C907.751 26.5227 907.859 27.2083 907.859 28.0227V28.5909H901.132V27.4318H906.496C906.496 26.9394 906.397 26.5 906.2 26.1136C906.007 25.7273 905.731 25.4223 905.371 25.1989C905.015 24.9754 904.594 24.8636 904.109 24.8636C903.575 24.8636 903.113 24.9962 902.723 25.2614C902.337 25.5227 902.039 25.8636 901.831 26.2841C901.623 26.7045 901.518 27.1553 901.518 27.6364V28.4091C901.518 29.0682 901.632 29.6269 901.859 30.0852C902.09 30.5398 902.411 30.8864 902.82 31.125C903.229 31.3598 903.704 31.4773 904.246 31.4773C904.598 31.4773 904.916 31.428 905.2 31.3295C905.488 31.2273 905.736 31.0758 905.945 30.875C906.153 30.6705 906.314 30.4167 906.428 30.1136L907.723 30.4773C907.587 30.9167 907.357 31.303 907.036 31.6364C906.714 31.9659 906.316 32.2235 905.842 32.4091C905.369 32.5909 904.837 32.6818 904.246 32.6818Z" fill="#797979"/>
<path d="M941 37C942.657 37 944 35.6569 944 34C944 32.3431 942.657 31 941 31C939.343 31 938 32.3431 938 34C938 35.6569 939.343 37 941 37Z" stroke="#797979" stroke-width="1.5" stroke-linecap="round" stroke-linejoin="round"/>
<path d="M941 23C942.657 23 944 21.6568 944 20C944 18.3432 942.657 17 941 17C939.343 17 938 18.3432 938 20C938 21.6568 939.343 23 941 23Z" stroke="#797979" stroke-width="1.5" stroke-linecap="round" stroke-linejoin="round"/>
<path d="M929 30C930.657 30 932 28.6569 932 27C932 25.3431 930.657 24 929 24C927.343 24 926 25.3431 926 27C926 28.6569 927.343 30 929 30Z" stroke="#797979" stroke-width="1.5" stroke-linecap="round" stroke-linejoin="round"/>
<path d="M938.5 21.5L931.5 25.5" stroke="#797979" stroke-width="1.5"/>
<path d="M931.5 28.5L938.5 32.5" stroke="#797979" stroke-width="1.5"/>
<g filter="url(#filter0_di_42_239)">
<rect x="971" y="7" width="136" height="40" rx="8" fill="url(#paint0_linear_42_239)" shape-rendering="crispEdges"/>
<rect x="971.5" y="7.5" width="135" height="39" rx="7.5" stroke="url(#paint1_linear_42_239)" shape-rendering="crispEdges"/>
<path d="M989.943 24.6477H988.17C988.102 24.2689 987.975 23.9356 987.79 23.6477C987.604 23.3598 987.377 23.1155 987.108 22.9148C986.839 22.714 986.538 22.5625 986.205 22.4602C985.875 22.358 985.525 22.3068 985.153 22.3068C984.483 22.3068 983.883 22.4754 983.352 22.8125C982.826 23.1496 982.409 23.6439 982.102 24.2955C981.799 24.947 981.648 25.7424 981.648 26.6818C981.648 27.6288 981.799 28.428 982.102 29.0795C982.409 29.7311 982.828 30.2235 983.358 30.5568C983.888 30.8902 984.485 31.0568 985.148 31.0568C985.515 31.0568 985.864 31.0076 986.193 30.9091C986.527 30.8068 986.828 30.6572 987.097 30.4602C987.366 30.2633 987.593 30.0227 987.778 29.7386C987.968 29.4508 988.098 29.1212 988.17 28.75L989.943 28.7557C989.848 29.3277 989.665 29.8542 989.392 30.3352C989.123 30.8125 988.777 31.2254 988.352 31.5739C987.932 31.9186 987.451 32.1856 986.909 32.375C986.367 32.5644 985.777 32.6591 985.136 32.6591C984.129 32.6591 983.231 32.4205 982.443 31.9432C981.655 31.4621 981.034 30.7746 980.58 29.8807C980.129 28.9867 979.903 27.9205 979.903 26.6818C979.903 25.4394 980.131 24.3731 980.585 23.483C981.04 22.589 981.661 21.9034 982.449 21.4261C983.237 20.9451 984.133 20.7045 985.136 20.7045C985.754 20.7045 986.33 20.7936 986.864 20.9716C987.402 21.1458 987.884 21.4034 988.312 21.7443C988.741 22.0814 989.095 22.4943 989.375 22.983C989.655 23.4678 989.845 24.0227 989.943 24.6477ZM991.908 32.5V23.7727H993.55V25.1591H993.641C993.8 24.6894 994.08 24.3201 994.482 24.0511C994.887 23.7784 995.345 23.642 995.857 23.642C995.963 23.642 996.088 23.6458 996.232 23.6534C996.379 23.661 996.495 23.6705 996.578 23.6818V25.3068C996.51 25.2879 996.389 25.267 996.214 25.2443C996.04 25.2178 995.866 25.2045 995.692 25.2045C995.29 25.2045 994.932 25.2898 994.618 25.4602C994.307 25.6269 994.061 25.8598 993.879 26.1591C993.697 26.4545 993.607 26.7917 993.607 27.1705V32.5H991.908ZM1001.5 32.6761C1000.64 32.6761 999.897 32.4924 999.276 32.125C998.658 31.7538 998.181 31.233 997.844 30.5625C997.51 29.8883 997.344 29.0985 997.344 28.1932C997.344 27.2992 997.51 26.5114 997.844 25.8295C998.181 25.1477 998.651 24.6155 999.253 24.233C999.859 23.8504 1000.57 23.6591 1001.38 23.6591C1001.87 23.6591 1002.35 23.7405 1002.81 23.9034C1003.27 24.0663 1003.69 24.322 1004.05 24.6705C1004.42 25.0189 1004.71 25.4716 1004.92 26.0284C1005.14 26.5814 1005.24 27.2538 1005.24 28.0455V28.6477H998.304V27.375H1003.58C1003.58 26.928 1003.49 26.5322 1003.3 26.1875C1003.12 25.839 1002.87 25.5644 1002.54 25.3636C1002.21 25.1629 1001.83 25.0625 1001.39 25.0625C1000.91 25.0625 1000.5 25.1799 1000.14 25.4148C999.787 25.6458 999.514 25.9489 999.321 26.3239C999.132 26.6951 999.037 27.0985 999.037 27.5341V28.5284C999.037 29.1117 999.139 29.608 999.344 30.017C999.552 30.4261 999.842 30.7386 1000.21 30.9545C1000.58 31.1667 1001.02 31.2727 1001.51 31.2727C1001.84 31.2727 1002.13 31.2273 1002.39 31.1364C1002.66 31.0417 1002.89 30.9015 1003.08 30.7159C1003.28 30.5303 1003.42 30.3011 1003.53 30.0284L1005.13 30.3182C1005 30.7917 1004.77 31.2064 1004.44 31.5625C1004.11 31.9148 1003.7 32.1894 1003.2 32.3864C1002.7 32.5795 1002.13 32.6761 1001.5 32.6761ZM1009.67 32.6932C1009.11 32.6932 1008.61 32.5909 1008.17 32.3864C1007.72 32.178 1007.37 31.8769 1007.1 31.483C1006.85 31.089 1006.72 30.6061 1006.72 30.0341C1006.72 29.5417 1006.81 29.1364 1007 28.8182C1007.19 28.5 1007.45 28.2481 1007.77 28.0625C1008.09 27.8769 1008.45 27.7367 1008.85 27.642C1009.25 27.5473 1009.65 27.4754 1010.06 27.4261C1010.59 27.3655 1011.01 27.3163 1011.34 27.2784C1011.66 27.2367 1011.9 27.1705 1012.05 27.0795C1012.19 26.9886 1012.27 26.8409 1012.27 26.6364V26.5966C1012.27 26.1004 1012.13 25.7159 1011.85 25.4432C1011.57 25.1705 1011.16 25.0341 1010.61 25.0341C1010.04 25.0341 1009.59 25.161 1009.26 25.4148C1008.93 25.6648 1008.71 25.9432 1008.58 26.25L1006.98 25.8864C1007.17 25.3561 1007.45 24.928 1007.81 24.6023C1008.18 24.2727 1008.6 24.0341 1009.08 23.8864C1009.56 23.7348 1010.06 23.6591 1010.59 23.6591C1010.94 23.6591 1011.3 23.7008 1011.69 23.7841C1012.09 23.8636 1012.46 24.0114 1012.8 24.2273C1013.14 24.4432 1013.42 24.7519 1013.64 25.1534C1013.86 25.5511 1013.97 26.0682 1013.97 26.7045V32.5H1012.31V31.3068H1012.25C1012.14 31.5265 1011.97 31.7424 1011.75 31.9545C1011.53 32.1667 1011.25 32.3428 1010.9 32.483C1010.56 32.6231 1010.15 32.6932 1009.67 32.6932ZM1010.04 31.3295C1010.51 31.3295 1010.91 31.2367 1011.24 31.0511C1011.58 30.8655 1011.83 30.6231 1012.01 30.3239C1012.19 30.0208 1012.27 29.697 1012.27 29.3523V28.2273C1012.21 28.2879 1012.1 28.3447 1011.92 28.3977C1011.75 28.447 1011.56 28.4905 1011.34 28.5284C1011.12 28.5625 1010.9 28.5947 1010.69 28.625C1010.49 28.6515 1010.31 28.6742 1010.17 28.6932C1009.84 28.7348 1009.54 28.8049 1009.27 28.9034C1009 29.0019 1008.78 29.1439 1008.62 29.3295C1008.46 29.5114 1008.38 29.7538 1008.38 30.0568C1008.38 30.4773 1008.54 30.7955 1008.85 31.0114C1009.16 31.2235 1009.55 31.3295 1010.04 31.3295ZM1020.31 23.7727V25.1364H1015.54V23.7727H1020.31ZM1016.82 21.6818H1018.52V29.9375C1018.52 30.267 1018.57 30.5152 1018.67 30.6818C1018.77 30.8447 1018.89 30.9564 1019.05 31.017C1019.21 31.0739 1019.38 31.1023 1019.57 31.1023C1019.7 31.1023 1019.82 31.0928 1019.92 31.0739C1020.03 31.0549 1020.11 31.0398 1020.16 31.0284L1020.47 32.4318C1020.37 32.4697 1020.23 32.5076 1020.05 32.5455C1019.87 32.5871 1019.64 32.6098 1019.37 32.6136C1018.92 32.6212 1018.5 32.5417 1018.12 32.375C1017.73 32.2083 1017.42 31.9508 1017.18 31.6023C1016.94 31.2538 1016.82 30.8163 1016.82 30.2898V21.6818ZM1025.86 32.6761C1025 32.6761 1024.26 32.4924 1023.63 32.125C1023.02 31.7538 1022.54 31.233 1022.2 30.5625C1021.87 29.8883 1021.7 29.0985 1021.7 28.1932C1021.7 27.2992 1021.87 26.5114 1022.2 25.8295C1022.54 25.1477 1023.01 24.6155 1023.61 24.233C1024.22 23.8504 1024.93 23.6591 1025.74 23.6591C1026.23 23.6591 1026.71 23.7405 1027.17 23.9034C1027.63 24.0663 1028.05 24.322 1028.41 24.6705C1028.78 25.0189 1029.07 25.4716 1029.28 26.0284C1029.49 26.5814 1029.6 27.2538 1029.6 28.0455V28.6477H1022.66V27.375H1027.94C1027.94 26.928 1027.85 26.5322 1027.66 26.1875C1027.48 25.839 1027.23 25.5644 1026.9 25.3636C1026.57 25.1629 1026.19 25.0625 1025.75 25.0625C1025.27 25.0625 1024.85 25.1799 1024.5 25.4148C1024.15 25.6458 1023.87 25.9489 1023.68 26.3239C1023.49 26.6951 1023.4 27.0985 1023.4 27.5341V28.5284C1023.4 29.1117 1023.5 29.608 1023.7 30.017C1023.91 30.4261 1024.2 30.7386 1024.57 30.9545C1024.94 31.1667 1025.38 31.2727 1025.87 31.2727C1026.2 31.2727 1026.49 31.2273 1026.75 31.1364C1027.02 31.0417 1027.25 30.9015 1027.44 30.7159C1027.63 30.5303 1027.78 30.3011 1027.88 30.0284L1029.49 30.3182C1029.36 30.7917 1029.13 31.2064 1028.8 31.5625C1028.47 31.9148 1028.06 32.1894 1027.56 32.3864C1027.06 32.5795 1026.49 32.6761 1025.86 32.6761ZM1037.42 27.3182V32.5H1035.72V23.7727H1037.35V25.1932H1037.46C1037.66 24.7311 1037.97 24.3598 1038.4 24.0795C1038.83 23.7992 1039.38 23.6591 1040.03 23.6591C1040.63 23.6591 1041.15 23.7841 1041.6 24.0341C1042.04 24.2803 1042.39 24.6477 1042.63 25.1364C1042.88 25.625 1043 26.2292 1043 26.9489V32.5H1041.31V27.1534C1041.31 26.5208 1041.14 26.0265 1040.81 25.6705C1040.48 25.3106 1040.03 25.1307 1039.45 25.1307C1039.06 25.1307 1038.71 25.2159 1038.4 25.3864C1038.1 25.5568 1037.86 25.8068 1037.68 26.1364C1037.51 26.4621 1037.42 26.8561 1037.42 27.3182ZM1049.04 32.6761C1048.18 32.6761 1047.44 32.4924 1046.82 32.125C1046.21 31.7538 1045.73 31.233 1045.39 30.5625C1045.06 29.8883 1044.89 29.0985 1044.89 28.1932C1044.89 27.2992 1045.06 26.5114 1045.39 25.8295C1045.73 25.1477 1046.2 24.6155 1046.8 24.233C1047.41 23.8504 1048.11 23.6591 1048.92 23.6591C1049.42 23.6591 1049.89 23.7405 1050.36 23.9034C1050.82 24.0663 1051.23 24.322 1051.6 24.6705C1051.97 25.0189 1052.26 25.4716 1052.47 26.0284C1052.68 26.5814 1052.79 27.2538 1052.79 28.0455V28.6477H1045.85V27.375H1051.12C1051.12 26.928 1051.03 26.5322 1050.85 26.1875C1050.67 25.839 1050.41 25.5644 1050.08 25.3636C1049.76 25.1629 1049.38 25.0625 1048.94 25.0625C1048.46 25.0625 1048.04 25.1799 1047.69 25.4148C1047.33 25.6458 1047.06 25.9489 1046.87 26.3239C1046.68 26.6951 1046.58 27.0985 1046.58 27.5341V28.5284C1046.58 29.1117 1046.69 29.608 1046.89 30.017C1047.1 30.4261 1047.39 30.7386 1047.76 30.9545C1048.13 31.1667 1048.56 31.2727 1049.06 31.2727C1049.38 31.2727 1049.68 31.2273 1049.94 31.1364C1050.21 31.0417 1050.44 30.9015 1050.63 30.7159C1050.82 30.5303 1050.97 30.3011 1051.07 30.0284L1052.68 30.3182C1052.55 30.7917 1052.32 31.2064 1051.99 31.5625C1051.66 31.9148 1051.24 32.1894 1050.74 32.3864C1050.25 32.5795 1049.68 32.6761 1049.04 32.6761ZM1056.55 32.5L1053.98 23.7727H1055.74L1057.45 30.1818H1057.53L1059.25 23.7727H1061L1062.71 30.1534H1062.79L1064.49 23.7727H1066.25L1063.69 32.5H1061.95L1060.18 26.1989H1060.05L1058.28 32.5H1056.55Z" fill="white"/>
<path fill-rule="evenodd" clip-rule="evenodd" d="M1087 16.25C1081.06 16.25 1076.25 21.0629 1076.25 27C1076.25 32.9371 1081.06 37.75 1087 37.75C1092.94 37.75 1097.75 32.9371 1097.75 27C1097.75 21.0629 1092.94 16.25 1087 16.25ZM1087.75 23C1087.75 22.5858 1087.41 22.25 1087 22.25C1086.59 22.25 1086.25 22.5858 1086.25 23V26.25H1083C1082.59 26.25 1082.25 26.5858 1082.25 27C1082.25 27.4142 1082.59 27.75 1083 27.75H1086.25V31C1086.25 31.4142 1086.59 31.75 1087 31.75C1087.41 31.75 1087.75 31.4142 1087.75 31V27.75H1091C1091.41 27.75 1091.75 27.4142 1091.75 27C1091.75 26.5858 1091.41 26.25 1091 26.25H1087.75V23Z" fill="white"/>
</g>
<defs>
<filter id="filter0_di_42_239" x="963" y="0" width="152" height="59" filterUnits="userSpaceOnUse" color-interpolation-filters="sRGB">
<feFlood flood-opacity="0" result="BackgroundImageFix"/>
<feColorMatrix in="SourceAlpha" type="matrix" values="0 0 0 0 0 0 0 0 0 0 0 0 0 0 0 0 0 0 127 0" result="hardAlpha"/>
<feOffset dy="1"/>
<feGaussianBlur stdDeviation="4"/>
<feComposite in2="hardAlpha" operator="out"/>
<feColorMatrix type="matrix" values="0 0 0 0 0 0 0 0 0 0 0 0 0 0 0 0 0 0 0.25 0"/>
<feBlend mode="normal" in2="BackgroundImageFix" result="effect1_dropShadow_42_239"/>
<feBlend mode="normal" in="SourceGraphic" in2="effect1_dropShadow_42_239" result="shape"/>
<feColorMatrix in="SourceAlpha" type="matrix" values="0 0 0 0 0 0 0 0 0 0 0 0 0 0 0 0 0 0 127 0" result="hardAlpha"/>
<feOffset dy="12"/>
<feGaussianBlur stdDeviation="8"/>
<feComposite in2="hardAlpha" operator="arithmetic" k2="-1" k3="1"/>
<feColorMatrix type="matrix" values="0 0 0 0 0.728333 0 0 0 0 0.728333 0 0 0 0 0.728333 0 0 0 0.2 0"/>
<feBlend mode="normal" in2="shape" result="effect2_innerShadow_42_239"/>
</filter>
<linearGradient id="paint0_linear_42_239" x1="1039" y1="7" x2="1039" y2="47" gradientUnits="userSpaceOnUse">
<stop stop-color="#4C38C2"/>
<stop offset="1" stop-color="#2F2188"/>
</linearGradient>
<linearGradient id="paint1_linear_42_239" x1="1039" y1="47" x2="1039" y2="3.92308" gradientUnits="userSpaceOnUse">
<stop stop-color="#4B36CC"/>
<stop offset="1" stop-color="#9C93D4"/>
</linearGradient>
</defs>
</svg>
